<?xml version="1.0" standalone="no"?>
<!DOCTYPE svg PUBLIC "-//W3C//DTD SVG 20010904//EN"
 "http://www.w3.org/TR/2001/REC-SVG-20010904/DTD/svg10.dtd">
<svg version="1.0" xmlns="http://www.w3.org/2000/svg"
 width="1235.000000pt" height="432.000000pt" viewBox="0 0 1235.000000 432.000000"
 preserveAspectRatio="xMidYMid meet">
<metadata>
Created by potrace 1.16, written by Peter Selinger 2001-2019
</metadata>
<g transform="translate(0.000000,432.000000) scale(0.100000,-0.100000)"
fill="#FFFFFF" stroke="none">
<path d="M0 3350 l0 -340 810 0 c446 0 810 -2 810 -6 0 -4 -261 -445 -362
-611 l-20 -33 470 0 470 0 186 325 c102 178 186 327 186 330 0 3 -202 5 -450
5 -247 0 -450 2 -450 5 0 3 91 148 201 323 111 174 204 323 206 330 4 9 -205
12 -1026 12 l-1031 0 0 -340z"/>
<path d="M10470 3309 c-432 -38 -720 -317 -720 -699 0 -212 86 -398 233 -507
132 -97 222 -130 547 -202 261 -58 272 -62 325 -89 113 -58 168 -189 132 -313
-41 -139 -172 -221 -376 -235 -161 -12 -304 27 -385 104 -47 45 -86 124 -86
175 l0 37 -210 0 -210 0 0 -42 c0 -77 29 -181 72 -267 77 -154 216 -268 403
-330 126 -42 209 -54 370 -54 288 1 503 78 661 238 124 126 186 283 187 475 1
195 -48 328 -162 440 -121 119 -234 166 -596 245 -143 31 -285 68 -315 81
-110 50 -161 124 -168 245 -4 66 -1 84 20 131 63 136 208 205 413 196 81 -4
111 -10 161 -32 103 -46 171 -134 189 -243 l7 -43 210 0 209 0 -6 58 c-21 183
-75 303 -190 418 -167 168 -408 240 -715 213z"/>
<path d="M3490 3085 l0 -185 480 -2 481 -3 -290 -265 -290 -265 0 -142 -1
-141 223 -4 c202 -4 227 -6 279 -27 180 -71 268 -211 255 -406 -12 -189 -108
-314 -280 -367 -103 -31 -239 -23 -330 19 -71 34 -137 95 -168 155 -25 49 -49
142 -49 190 l0 38 -206 0 -207 0 6 -92 c14 -214 104 -397 258 -525 64 -53 210
-126 294 -147 265 -67 558 -26 766 109 124 80 199 163 264 293 56 113 76 206
77 352 0 217 -57 370 -190 511 -93 100 -199 166 -333 210 l-100 33 33 31 c18
18 144 134 281 259 l247 228 0 164 0 164 -750 0 -750 0 0 -185z"/>
<path d="M5310 2099 l0 -1170 533 3 532 4 96 26 c432 118 710 414 806 858 14
68 18 127 17 290 -1 196 -2 210 -32 323 -101 385 -350 653 -720 777 -164 55
-229 60 -754 60 l-478 0 0 -1171z m991 768 c271 -62 456 -241 531 -513 18 -68
22 -105 22 -259 0 -205 -14 -274 -81 -412 -53 -109 -177 -235 -283 -287 -141
-68 -202 -78 -497 -84 l-263 -4 0 792 0 792 253 -5 c172 -3 273 -10 318 -20z"/>
<path d="M7580 2100 l0 -1170 205 0 205 0 0 822 0 822 546 -822 546 -822 209
0 209 0 0 1170 0 1170 -210 0 -210 0 -2 -815 -3 -814 -539 814 -539 815 -209
0 -208 0 0 -1170z"/>
<path d="M270 2152 c0 -17 885 -1515 895 -1515 6 0 106 169 223 375 l213 376
-234 383 -233 384 -432 3 c-238 1 -432 -2 -432 -6z"/>
<path d="M11770 1384 c-45 -19 -106 -78 -133 -129 -16 -30 -21 -58 -21 -110 0
-80 20 -129 76 -182 127 -122 337 -86 421 72 30 56 30 164 0 221 -28 53 -78
102 -128 125 -50 23 -165 25 -215 3z"/>
</g>
</svg>
