<svg width="172" height="70" viewBox="0 0 172 70" fill="none" xmlns="http://www.w3.org/2000/svg">
<path d="M20.6662 22.9934C17.3244 22.9934 15.3563 26.7446 17.2451 29.5052L29.0668 46.7557C29.1725 46.9142 29.3442 47.0066 29.5291 47.0066C32.8709 47.0066 34.8522 43.2554 32.9501 40.4948L21.1417 23.2444C21.036 23.0859 20.8643 22.9934 20.6662 22.9934Z" fill="#288DFF"/>
<path d="M8.10494 35.872L11.6977 41.1158C14.2205 44.7878 18.3944 46.9937 22.8457 46.9937C23.2948 46.9937 23.5722 46.4917 23.308 46.1087L15.8584 35.238C15.7527 35.0795 15.581 34.9871 15.3961 34.9871H8.56725C8.10494 34.9871 7.84077 35.5022 8.10494 35.872Z" fill="#0055FF"/>
<path d="M42.1038 34.115L38.511 28.8712C35.9882 25.186 31.8143 22.9934 27.363 22.9934C26.9139 22.9934 26.6365 23.4953 26.9007 23.8784L34.3503 34.749C34.456 34.9076 34.6277 35 34.8126 35H41.6415C42.0905 34.9868 42.3547 34.4849 42.1038 34.115Z" fill="#38CCFF"/>
<path d="M104.996 38.4346H108.073C108.364 38.4346 108.641 38.6063 108.72 38.8969C108.971 39.8875 109.724 40.363 110.741 40.363C111.943 40.363 112.709 39.7554 112.709 38.778C112.709 35.6476 104.269 37.3383 104.309 31.3416C104.309 28.1451 106.937 26.3619 110.464 26.3619C113.832 26.3619 116.183 27.8809 116.698 30.6019C116.778 31.0114 116.474 31.4076 116.051 31.4076H112.894C112.617 31.4076 112.353 31.2359 112.274 30.9585C112.049 30.1396 111.349 29.6641 110.398 29.6509C109.407 29.6245 108.668 30.1264 108.668 31.1963C108.668 34.1286 117.015 32.8077 117.015 38.461C117.015 41.3008 114.796 43.6652 110.86 43.6652C107.518 43.6652 104.863 42.1462 104.348 39.2535C104.269 38.8176 104.573 38.4346 104.996 38.4346Z" fill="#FFFFFF"/>
<path d="M56.6393 37.2846H59.4791L57.3922 31.103L55.3184 37.2846L54.2353 40.4547L53.3768 42.9907C53.2843 43.2549 53.0333 43.4398 52.756 43.4398H49.8633C49.401 43.4398 49.084 42.9907 49.2425 42.5548L54.8825 26.9819C54.975 26.7177 55.226 26.546 55.5033 26.546H59.347C59.6244 26.546 59.8754 26.7177 59.9679 26.9819L65.6079 42.5548C65.7664 42.9907 65.4494 43.4398 64.9871 43.4398H62.0416C61.7642 43.4398 61.5133 43.2549 61.4208 42.9907L60.5622 40.4547H55.5826L56.6393 37.2846Z" fill="#FFFFFF"/>
<path d="M141.808 37.2846H144.648L142.561 31.103L140.487 37.2846L139.404 40.4547L138.546 42.9907C138.453 43.2549 138.202 43.4398 137.925 43.4398H135.032C134.57 43.4398 134.253 42.9907 134.411 42.5548L140.051 26.9819C140.144 26.7177 140.395 26.546 140.672 26.546H144.516C144.793 26.546 145.044 26.7177 145.137 26.9819L150.777 42.5548C150.935 42.9907 150.618 43.4398 150.156 43.4398H147.211C146.933 43.4398 146.682 43.2549 146.59 42.9907L145.731 40.4547H140.752L141.808 37.2846Z" fill="#FFFFFF"/>
<path d="M157.024 40.2708V27.2207C157.024 26.8509 156.734 26.5603 156.364 26.5603H153.564C153.194 26.5603 152.903 26.8509 152.903 27.2207V42.7937C152.903 43.1635 153.194 43.4541 153.564 43.4541H157.024" fill="#FFFFFF"/>
<path d="M158.346 43.4539H162.48C163.008 43.4539 163.325 42.8595 163.022 42.4236L161.754 40.5744C161.635 40.3895 161.423 40.2838 161.212 40.2838H158.359" fill="#FFFFFF"/>
<path d="M124.967 33.2703V29.8492H131.268C131.796 29.8492 132.113 29.2549 131.809 28.819L130.462 26.8509C130.343 26.666 130.132 26.5603 129.92 26.5603H121.52C121.15 26.5603 120.859 26.8509 120.859 27.2207V42.7937C120.859 43.1635 121.15 43.4541 121.52 43.4541L131.281 43.4409C131.809 43.4409 132.126 42.8465 131.822 42.4106L130.475 40.4425C130.356 40.2576 130.145 40.1519 129.934 40.1519H124.98V36.4403V33.2703H124.967Z" fill="#FFFFFF"/>
<path d="M126.288 36.4534H130.541C131.07 36.4534 131.387 35.859 131.083 35.4231L129.815 33.5739C129.696 33.389 129.485 33.2833 129.273 33.2833H126.288V36.4534Z" fill="#FFFFFF"/>
<path d="M78.6441 38.2626C77.5874 39.3193 76.042 39.8741 74.3777 39.5042C72.687 39.1344 71.3001 37.7739 70.917 36.0832C70.2302 33.0716 72.5021 30.3903 75.3947 30.3903C76.7948 30.3903 78.0365 31.0243 78.8818 32.015C79.0007 32.1603 79.1724 32.2527 79.3705 32.2527H82.6463C83.135 32.2527 83.452 31.7376 83.2406 31.2885C81.8537 28.3562 78.895 26.3221 75.4344 26.3088C70.7585 26.2824 66.7563 30.1922 66.6903 34.868C66.6242 39.7288 70.534 43.6913 75.3815 43.6913C77.5874 43.6913 79.6083 42.8592 81.1405 41.5119C81.3914 41.3006 81.4179 40.9175 81.2329 40.6534L79.6479 38.3419C79.4101 37.9984 78.9346 37.9588 78.6441 38.2626Z" fill="#FFFFFF"/>
<path d="M97.3349 38.2626C96.2783 39.3193 94.7328 39.8741 93.0686 39.5042C91.3779 39.1344 89.991 37.7739 89.6079 36.0832C88.9211 33.0716 91.193 30.3903 94.0856 30.3903C95.4857 30.3903 96.7274 31.0243 97.5727 32.015C97.7048 32.1603 97.8765 32.2527 98.0746 32.2527H101.35C101.839 32.2527 102.156 31.7376 101.945 31.2885C100.558 28.3562 97.5991 26.3221 94.1385 26.3088C89.4626 26.2824 85.4604 30.1922 85.3944 34.868C85.3283 39.7288 89.2381 43.6913 94.0856 43.6913C96.2915 43.6913 98.3124 42.8592 99.8446 41.5119C100.096 41.3006 100.122 40.9175 99.937 40.6534L98.352 38.3419C98.1142 37.9984 97.6387 37.9588 97.3349 38.2626Z" fill="#FFFFFF"/>
</svg>
