<svg width="25" height="25" viewBox="0 0 25 25" fill="none" xmlns="http://www.w3.org/2000/svg">
<path d="M5.82171 9.83234C8.23539 5.5614 9.44222 3.42592 11.0983 2.87622C12.0093 2.57381 12.9907 2.57381 13.9017 2.87622C15.5578 3.42592 16.7646 5.5614 19.1783 9.83234C21.592 14.1033 22.7988 16.2387 22.4368 17.9787C22.2376 18.936 21.7469 19.8043 21.035 20.4591C19.741 21.6494 17.3274 21.6494 12.5 21.6494C7.67265 21.6494 5.25897 21.6494 3.96496 20.4591C3.25308 19.8043 2.76239 18.936 2.56322 17.9787C2.20119 16.2387 3.40803 14.1033 5.82171 9.83234Z" stroke="#E00606" stroke-width="1.5"/>
<path opacity="0.4" d="M12.4922 16.1494H12.5012" stroke="#E00606" stroke-width="2" stroke-linecap="round" stroke-linejoin="round"/>
<path opacity="0.4" d="M12.5 13.1494V9.14941" stroke="#E00606" stroke-width="1.5" stroke-linecap="round" stroke-linejoin="round"/>
</svg>
