<svg width="25" height="24" viewBox="0 0 25 24" fill="none" xmlns="http://www.w3.org/2000/svg">
<path d="M5.82171 9.68293C8.23539 5.41199 9.44222 3.27651 11.0983 2.72681C12.0093 2.4244 12.9907 2.4244 13.9017 2.72681C15.5578 3.27651 16.7646 5.41199 19.1783 9.68293C21.592 13.9539 22.7988 16.0893 22.4368 17.8293C22.2376 18.7866 21.7469 19.6549 21.035 20.3097C19.741 21.5 17.3274 21.5 12.5 21.5C7.67265 21.5 5.25897 21.5 3.96496 20.3097C3.25308 19.6549 2.76239 18.7866 2.56322 17.8293C2.20119 16.0893 3.40803 13.9539 5.82171 9.68293Z" stroke="#E00606" stroke-width="1.5"/>
<path opacity="0.4" d="M12.4922 16H12.5012" stroke="#E00606" stroke-width="2" stroke-linecap="round" stroke-linejoin="round"/>
<path opacity="0.4" d="M12.5 13V9" stroke="#E00606" stroke-width="1.5" stroke-linecap="round" stroke-linejoin="round"/>
</svg>
