<svg width="734" height="141" viewBox="0 0 734 141" fill="none" xmlns="http://www.w3.org/2000/svg">
<path d="M204.64 46.2C206.262 46.2 207.627 46.5413 208.736 47.224C209.846 47.864 210.934 49.144 212 51.064L233.184 89.528C233.398 89.9547 233.44 90.3173 233.312 90.616C233.227 90.872 232.928 91 232.416 91H224.288C223.563 91 223.072 90.7227 222.816 90.168L218.272 81.912H188.192L183.776 90.168C183.478 90.7227 182.987 91 182.304 91H173.984C173.43 91 173.088 90.872 172.96 90.616C172.875 90.3173 172.939 89.9547 173.152 89.528L194.144 51.064C195.211 49.144 196.256 47.864 197.28 47.224C198.304 46.5413 199.499 46.2 200.864 46.2H204.64ZM192.224 74.488H214.24L204.064 55.736C203.894 55.4373 203.659 55.288 203.36 55.288H202.976C202.678 55.288 202.443 55.4373 202.272 55.736L192.224 74.488Z" fill="white"/>
<path d="M294.087 46.2C298.994 46.2 302.514 47.3093 304.647 49.528C306.781 51.7467 307.847 55.032 307.847 59.384V63.032C307.847 66.7013 307.101 69.6027 305.607 71.736C304.114 73.8693 301.682 75.2347 298.311 75.832L309.255 89.4C309.469 89.6134 309.533 89.9333 309.447 90.36C309.362 90.7867 309.021 91 308.423 91H300.167C299.613 91 299.229 90.936 299.015 90.808C298.802 90.68 298.589 90.4667 298.375 90.168L288.263 76.856H267.591V89.592C267.591 90.5307 267.122 91 266.183 91H259.271C258.29 91 257.799 90.5307 257.799 89.592V48.12C257.799 46.84 258.439 46.2 259.719 46.2H294.087ZM267.591 69.048H292.103C294.279 69.048 295.815 68.5787 296.711 67.64C297.607 66.7013 298.055 65.272 298.055 63.352V60.664C298.055 58.744 297.607 57.3147 296.711 56.376C295.815 55.4373 294.279 54.968 292.103 54.968H268.423C267.869 54.968 267.591 55.224 267.591 55.736V69.048Z" fill="white"/>
<path d="M373.721 46.2C378.116 46.2 381.23 47.0747 383.065 48.824C384.942 50.5733 385.881 53.2187 385.881 56.76V59.832C385.881 63.416 384.516 66.1253 381.785 67.96C384.729 69.6667 386.201 72.4187 386.201 76.216V79.928C386.201 81.6347 386.009 83.1707 385.625 84.536C385.241 85.9013 384.601 87.0747 383.705 88.056C382.852 88.9947 381.7 89.72 380.249 90.232C378.798 90.744 377.006 91 374.873 91H336.857C335.577 91 334.937 90.36 334.937 89.08V48.12C334.937 46.84 335.577 46.2 336.857 46.2H373.721ZM344.729 71.8V81.336C344.729 81.8907 345.006 82.168 345.561 82.168H371.801C373.508 82.168 374.724 81.8693 375.449 81.272C376.174 80.632 376.537 79.6293 376.537 78.264V75.832C376.537 74.5093 376.132 73.5067 375.321 72.824C374.553 72.1413 373.102 71.8 370.969 71.8H344.729ZM344.729 64.824H370.969C373.102 64.824 374.553 64.504 375.321 63.864C376.089 63.224 376.473 62.2853 376.473 61.048V58.872C376.473 57.5493 376.089 56.5893 375.321 55.992C374.596 55.352 373.401 55.032 371.737 55.032H345.561C345.006 55.032 344.729 55.3093 344.729 55.864V64.824Z" fill="white"/>
<path d="M421.333 46.2C422.272 46.2 422.741 46.6693 422.741 47.608V89.592C422.741 90.5307 422.272 91 421.333 91H414.421C413.44 91 412.949 90.5307 412.949 89.592V47.608C412.949 46.6693 413.44 46.2 414.421 46.2H421.333Z" fill="white"/>
<path d="M494.942 46.2C495.881 46.2 496.35 46.6693 496.35 47.608V53.688C496.35 54.6267 495.881 55.096 494.942 55.096H462.878C461.641 55.096 460.766 55.416 460.254 56.056C459.742 56.696 459.486 57.5707 459.486 58.68V60.856C459.486 63.2453 460.595 64.44 462.814 64.44H486.814C490.526 64.44 493.321 65.4 495.198 67.32C497.075 69.1973 498.014 71.9067 498.014 75.448V80.568C498.014 83.6827 497.097 86.2 495.262 88.12C493.427 90.04 490.569 91 486.686 91H451.23C450.249 91 449.758 90.5307 449.758 89.592V83.512C449.758 82.5733 450.249 82.104 451.23 82.104H484.83C486.067 82.104 486.942 81.784 487.454 81.144C487.966 80.504 488.222 79.6293 488.222 78.52V75.896C488.222 73.5067 487.113 72.312 484.894 72.312H460.894C457.182 72.312 454.387 71.3733 452.51 69.496C450.633 67.576 449.694 64.8453 449.694 61.304V56.632C449.694 53.5173 450.611 51 452.446 49.08C454.281 47.16 457.139 46.2 461.022 46.2H494.942Z" fill="white"/>
<path d="M570.809 46.2C571.748 46.2 572.217 46.6693 572.217 47.608V53.88C572.217 54.8613 571.748 55.352 570.809 55.352H542.329C540.665 55.352 539.278 55.5013 538.169 55.8C537.102 56.056 536.249 56.5253 535.609 57.208C534.969 57.848 534.5 58.7227 534.201 59.832C533.945 60.9413 533.817 62.3493 533.817 64.056V73.144C533.817 74.8507 533.945 76.28 534.201 77.432C534.5 78.5413 534.969 79.4373 535.609 80.12C536.249 80.76 537.102 81.2293 538.169 81.528C539.278 81.784 540.665 81.912 542.329 81.912H570.809C571.748 81.912 572.217 82.3813 572.217 83.32V89.592C572.217 90.5307 571.748 91 570.809 91H541.945C538.702 91 535.95 90.7013 533.689 90.104C531.428 89.5067 529.572 88.5467 528.121 87.224C526.713 85.8587 525.668 84.1093 524.985 81.976C524.345 79.8 524.025 77.176 524.025 74.104V63.096C524.025 60.024 524.345 57.4213 524.985 55.288C525.668 53.1547 526.713 51.4267 528.121 50.104C529.572 48.7387 531.428 47.7573 533.689 47.16C535.95 46.52 538.702 46.2 541.945 46.2H570.809Z" fill="white"/>
<path d="M626.653 46.2C628.274 46.2 629.64 46.5413 630.749 47.224C631.858 47.864 632.946 49.144 634.013 51.064L655.197 89.528C655.41 89.9547 655.453 90.3173 655.325 90.616C655.24 90.872 654.941 91 654.429 91H646.301C645.576 91 645.085 90.7227 644.829 90.168L640.285 81.912H610.205L605.789 90.168C605.49 90.7227 605 91 604.317 91H595.997C595.442 91 595.101 90.872 594.973 90.616C594.888 90.3173 594.952 89.9547 595.165 89.528L616.157 51.064C617.224 49.144 618.269 47.864 619.293 47.224C620.317 46.5413 621.512 46.2 622.877 46.2H626.653ZM614.237 74.488H636.253L626.077 55.736C625.906 55.4373 625.672 55.288 625.373 55.288H624.989C624.69 55.288 624.456 55.4373 624.285 55.736L614.237 74.488Z" fill="white"/>
<path d="M691.204 46.2C692.228 46.2 693.081 46.2427 693.764 46.328C694.447 46.4133 695.044 46.6053 695.556 46.904C696.068 47.16 696.559 47.544 697.028 48.056C697.497 48.5253 698.031 49.1653 698.628 49.976L722.436 81.208C722.607 81.5067 722.884 81.656 723.268 81.656H723.844C724.185 81.656 724.356 81.4427 724.356 81.016V47.608C724.356 46.6693 724.825 46.2 725.764 46.2H732.484C733.423 46.2 733.892 46.6693 733.892 47.608V84.344C733.892 86.9467 733.423 88.7173 732.484 89.656C731.545 90.552 730.095 91 728.132 91H722.628C721.647 91 720.815 90.9574 720.132 90.872C719.492 90.7867 718.916 90.616 718.404 90.36C717.892 90.104 717.38 89.7413 716.868 89.272C716.399 88.76 715.844 88.0773 715.204 87.224L691.332 55.992C691.076 55.6933 690.799 55.544 690.5 55.544H689.924C689.583 55.544 689.412 55.7573 689.412 56.184V89.592C689.412 90.5307 688.943 91 688.004 91H681.284C680.303 91 679.812 90.5307 679.812 89.592V52.856C679.812 50.2533 680.281 48.504 681.22 47.608C682.159 46.6693 683.609 46.2 685.572 46.2H691.204Z" fill="white"/>
<path d="M78.3059 64.2929L88.6109 46.8079L116.387 90.0699L116.4 98.3699L116.309 41.2389C116.276 40.5498 116.079 39.8785 115.732 39.2819C115.386 38.6853 114.901 38.1807 114.319 37.8109L64.3119 9.04787C63.7144 8.76399 63.0608 8.61821 62.3993 8.62133C61.7379 8.62444 61.0856 8.77638 60.4909 9.06588C60.3365 9.14325 60.1869 9.22973 60.0429 9.32487L59.8689 9.43487L11.3279 37.5629L11.1389 37.6479C10.8873 37.7644 10.6472 37.9043 10.4219 38.0659C9.51151 38.716 8.8911 39.6959 8.69287 40.7969C8.66252 40.9639 8.64181 41.1325 8.63086 41.3019L8.70686 87.8579L34.5789 47.7579C37.8359 42.4409 44.9329 40.7279 51.5209 40.8209L59.2529 41.0209L13.6929 114.085L19.0639 117.177L65.1699 41.0939L85.5489 41.0199L39.5619 119.02L58.7279 130.05L61.0179 131.367C62.0057 131.759 63.1023 131.781 64.1049 131.428L114.815 102.041L105.115 107.659L78.3059 64.2929ZM82.2379 120.92L62.8819 90.5409L74.6969 70.4919L100.117 110.558L82.2379 120.92Z" fill="#2D374B"/>
<path d="M62.8818 90.5409L82.2379 120.919L100.118 110.557L74.6989 70.4919L62.8818 90.5409Z" fill="#28A0F0"/>
<path d="M116.403 98.3709L116.39 90.0709L88.6137 46.8089L78.3027 64.2919L105.117 107.658L114.817 102.04C115.286 101.659 115.67 101.184 115.944 100.645C116.217 100.105 116.374 99.5147 116.404 98.9109L116.403 98.3709Z" fill="#28A0F0"/>
<path d="M0.00488281 106.201L13.6959 114.09L59.2559 41.0259L51.5239 40.8259C44.9359 40.7329 37.8389 42.4449 34.5819 47.7629L8.70988 87.8629L0.0098877 101.236V106.205L0.00488281 106.201Z" fill="white"/>
<path d="M85.5514 41.0249L65.1734 41.0989L19.0674 117.182L35.1824 126.461L39.5644 119.028L85.5514 41.0249Z" fill="white"/>
<path d="M124.987 40.9199C124.894 38.8168 124.29 36.768 123.229 34.9501C122.167 33.1322 120.68 31.5998 118.894 30.4849L68.232 1.35089C66.4234 0.462142 64.4351 0 62.42 0C60.4049 0 58.4166 0.462142 56.608 1.35089C56.185 1.56389 7.34 29.8929 7.34 29.8929C6.66135 30.2187 6.01224 30.6028 5.39999 31.0409C3.81397 32.1688 2.50413 33.6413 1.56886 35.348C0.633592 37.0547 0.0972076 38.9512 0 40.8949V101.233L8.7 87.8599L8.633 41.3059C8.6737 40.6676 8.85545 40.0464 9.16515 39.4868C9.47484 38.9272 9.90478 38.4433 10.424 38.0699C10.654 37.9049 60.333 9.1489 60.491 9.0699C61.0857 8.7804 61.738 8.62847 62.3994 8.62535C63.0609 8.62224 63.7146 8.76802 64.312 9.0519L114.319 37.8169C114.901 38.1867 115.386 38.6913 115.733 39.2879C116.079 39.8846 116.277 40.5558 116.309 41.2449V98.9169C116.297 99.5148 116.157 100.103 115.9 100.643C115.642 101.183 115.272 101.661 114.814 102.046L105.114 107.664L100.114 110.564L82.234 120.926L64.101 131.435C63.0985 131.789 62.0018 131.767 61.014 131.374L39.561 119.035L35.179 126.467L54.459 137.567C55.097 137.929 55.665 138.251 56.131 138.513C56.853 138.913 57.345 139.188 57.518 139.272C59.131 139.979 60.875 140.338 62.636 140.325C64.2511 140.327 65.8522 140.026 67.356 139.437L120.023 108.937C121.509 107.781 122.723 106.314 123.581 104.638C124.438 102.962 124.917 101.118 124.985 99.2369L124.987 40.9199Z" fill="#96BEDC"/>
</svg>
