<svg width="174" height="24" viewBox="0 0 174 24" fill="none" xmlns="http://www.w3.org/2000/svg">
<path fill-rule="evenodd" clip-rule="evenodd" d="M11.4788 0.194722C11.0225 -0.0649078 10.4611 -0.0649072 10.0048 0.194723L0.740857 5.46611C0.28252 5.72691 0 6.21003 0 6.733V17.267C0 17.79 0.282521 18.2731 0.740858 18.5339L10.0048 23.8053C10.4611 24.0649 11.0225 24.0649 11.4788 23.8053L20.7428 18.5339C21.2011 18.2731 21.4836 17.79 21.4836 17.267V6.733C21.4836 6.21003 21.2011 5.72691 20.7428 5.46611L11.4788 0.194722ZM10.7418 2.72631L2.58627 7.367V16.633L3.25154 17.0116L9.58984 6.56389C10.0993 5.72411 11.3298 5.72426 11.8392 6.56388L18.1915 17.0346L18.8974 16.633V7.367L10.7418 2.72631ZM15.9494 18.3104L10.7145 9.68154L5.49363 18.2874L10.7418 21.2737L15.9494 18.3104Z" fill="white"/>
<path d="M122.848 11.5806C122.848 9.04764 124.903 7.01306 127.415 7.01306C128.955 7.01306 130.321 7.7745 131.152 8.95299C131.561 9.5324 132.367 9.67466 132.952 9.27071C133.538 8.86677 133.682 8.0696 133.274 7.49018C131.984 5.65991 129.843 4.45523 127.415 4.45523C123.454 4.45523 120.261 7.65575 120.261 11.5806C120.261 15.5055 123.454 18.706 127.415 18.706C129.843 18.706 131.984 17.5013 133.274 15.671C133.682 15.0916 133.538 14.2944 132.952 13.8905C132.367 13.4866 131.561 13.6288 131.152 14.2082C130.321 15.3867 128.955 16.1482 127.415 16.1482C124.903 16.1482 122.848 14.1136 122.848 11.5806Z" fill="white"/>
<path d="M35.9389 17.018C35.6535 17.5052 36.009 18.1151 36.5783 18.1151H45.546L44.0476 15.5573H39.7835L43.403 9.37869L47.0224 15.5573H47.0136L48.512 18.1151H50.2276C50.797 18.1151 51.1524 17.5052 50.867 17.018L44.0423 5.36779C43.7577 4.88185 43.0482 4.88185 42.7636 5.36779L35.9389 17.018Z" fill="white"/>
<path d="M59.1146 5.73415C59.1146 5.33053 59.4455 5.00334 59.8536 5.00334H69.4597C69.8678 5.00334 70.1986 5.33053 70.1986 5.73415V6.83036C70.1986 7.23397 69.8678 7.56116 69.4597 7.56116H61.7009V10.119H69.4597C69.8678 10.119 70.1986 10.4462 70.1986 10.8498V17.4271C70.1986 17.8307 69.8678 18.1579 69.4597 18.1579H59.8536C59.4455 18.1579 59.1146 17.8307 59.1146 17.4271V16.3309C59.1146 15.9272 59.4455 15.6 59.8536 15.6H67.6124V12.6768L59.8536 12.6768C59.4455 12.6768 59.1146 12.3496 59.1146 11.946V5.73415Z" fill="white"/>
<path d="M100.864 5.73415C100.864 5.33053 101.195 5.00334 101.603 5.00334H111.209C111.618 5.00334 111.948 5.33053 111.948 5.73415V6.83036C111.948 7.23397 111.618 7.56116 111.209 7.56116H101.603C101.195 7.56116 100.864 7.23397 100.864 6.83036V5.73415Z" fill="white"/>
<path d="M142.614 5.00334C142.206 5.00334 141.875 5.33053 141.875 5.73415V6.83036C141.875 7.23397 142.206 7.56116 142.614 7.56116H146.124V17.4271C146.124 17.8307 146.455 18.1579 146.863 18.1579H147.971C148.379 18.1579 148.71 17.8307 148.71 17.4271V7.56116H152.22C152.628 7.56116 152.959 7.23397 152.959 6.83036V5.73415C152.959 5.33053 152.628 5.00334 152.22 5.00334H142.614Z" fill="white"/>
<path d="M100.864 10.8498V17.4271C100.864 17.8307 101.195 18.1579 101.603 18.1579H111.209C111.618 18.1579 111.948 17.8307 111.948 17.4271V16.3309C111.948 15.9272 111.618 15.6 111.209 15.6H103.451V12.6768H111.209C111.618 12.6768 111.948 12.3496 111.948 11.946V10.8498C111.948 10.4462 111.618 10.119 111.209 10.119H101.603C101.195 10.119 100.864 10.4462 100.864 10.8498Z" fill="white"/>
<path d="M165.796 5.37158C166.081 4.88564 166.79 4.88565 167.075 5.37158L173.899 17.0217C174.185 17.509 173.829 18.1189 173.26 18.1189H171.544L170.046 15.5611H170.055L166.435 9.38248L162.816 15.5611H167.08L168.578 18.1189H159.611C159.041 18.1189 158.686 17.509 158.971 17.0217L165.796 5.37158Z" fill="white"/>
<path fill-rule="evenodd" clip-rule="evenodd" d="M80.5437 17.4271C80.5437 17.8307 80.8745 18.1579 81.2826 18.1579H82.391C82.7991 18.1579 83.13 17.8307 83.13 17.4271V12.6768H88.1178C90.2603 12.6768 91.9971 10.9591 91.9971 8.84008C91.9971 6.7211 90.2603 5.00334 88.1178 5.00334H81.0891C80.7879 5.00334 80.5437 5.24484 80.5437 5.54274V17.4271ZM83.13 7.56116V10.119H88.1178C88.8319 10.119 89.4109 9.5464 89.4109 8.84008C89.4109 8.13375 88.8319 7.56116 88.1178 7.56116H83.13Z" fill="white"/>
</svg>
