<svg xmlns="http://www.w3.org/2000/svg" width="271" height="68" viewBox="0 0 271 68" fill="none">
    <g clip-path="url(#clip0_1772_3472)">
        <path
            d="M270.8 21.0004V25.0004C270.4 24.9004 270 24.9004 269.7 24.9004C269.4 24.9004 269 24.9004 268.5 24.9004C267.4 24.9004 266.5 25.1004 265.6 25.4004C264.7 25.7004 264.1 26.2004 263.5 26.7004C262.9 27.3004 262.5 27.9004 262.1 28.7004C261.8 29.5004 261.6 30.3004 261.5 31.2004L260.2 31.9004C260.2 30.4004 260.4 28.9004 260.7 27.6004C261 26.3004 261.6 25.1004 262.2 24.0004C262.9 22.9004 263.8 22.1004 264.8 21.6004C265.9 21.0004 267.2 20.7004 268.6 20.7004C268.9 20.7004 269.3 20.7004 269.8 20.8004C270.3 20.9004 270.6 20.9004 270.8 21.0004ZM262.3 25.2004V46.6004H257.6V21.2004H262.2L262.3 25.2004ZM253.3 21.0004V25.0004C252.9 24.9004 252.5 24.9004 252.2 24.9004C251.9 24.9004 251.5 24.9004 251 24.9004C249.9 24.9004 249 25.1004 248.1 25.4004C247.3 25.7004 246.6 26.2004 246 26.7004C245.4 27.3004 245 27.9004 244.6 28.7004C244.3 29.5004 244.1 30.3004 244 31.2004L242.7 31.9004C242.7 30.4004 242.9 28.9004 243.2 27.6004C243.5 26.3004 244.1 25.1004 244.7 24.0004C245.4 22.9004 246.3 22.1004 247.3 21.6004C248.4 21.0004 249.7 20.7004 251.1 20.7004C251.4 20.7004 251.8 20.7004 252.3 20.8004C252.8 20.9004 253.1 20.9004 253.3 21.0004ZM244.7 25.2004V46.6004H240V21.2004H244.6L244.7 25.2004ZM223.9 47.1004C222 47.1004 220.3 46.8004 218.7 46.2004C217.2 45.6004 215.8 44.7004 214.7 43.6004C213.6 42.5004 212.8 41.2004 212.2 39.7004C211.6 38.2004 211.3 36.5004 211.3 34.8004V33.8004C211.3 31.7004 211.6 29.9004 212.3 28.3004C213 26.7004 213.9 25.3004 215 24.2004C216.1 23.1004 217.4 22.2004 218.8 21.6004C220.2 21.0004 221.7 20.7004 223.3 20.7004C225.3 20.7004 226.9 21.0004 228.4 21.6004C229.8 22.2004 231 23.1004 231.9 24.2004C232.8 25.3004 233.5 26.6004 233.9 28.2004C234.3 29.7004 234.6 31.4004 234.6 33.1004V35.1004H214.2V31.5004H230V31.2004C229.9 30.1004 229.7 29.0004 229.2 27.9004C228.8 26.8004 228.1 26.0004 227.2 25.3004C226.3 24.6004 225 24.3004 223.4 24.3004C222.3 24.3004 221.4 24.5004 220.5 24.9004C219.6 25.3004 218.8 25.9004 218.2 26.7004C217.6 27.5004 217.1 28.5004 216.7 29.7004C216.3 30.9004 216.2 32.2004 216.2 33.8004V34.8004C216.2 36.0004 216.4 37.1004 216.7 38.2004C217.1 39.3004 217.6 40.2004 218.3 41.0004C219 41.8004 219.9 42.4004 220.9 42.9004C221.9 43.4004 223.1 43.6004 224.3 43.6004C226 43.6004 227.4 43.3004 228.5 42.7004C229.6 42.1004 230.6 41.2004 231.5 40.2004L234.3 42.3004C233.7 43.1004 233 43.9004 232 44.7004C231.1 45.5004 230 46.1004 228.6 46.5004C227.3 46.8004 225.7 47.1004 223.9 47.1004ZM197.3 15.0004H202V40.3004C202 41.2004 202.1 41.8004 202.4 42.3004C202.7 42.7004 203.1 43.0004 203.5 43.2004C204 43.3004 204.4 43.4004 205 43.4004C205.4 43.4004 205.8 43.4004 206.2 43.3004C206.6 43.2004 207 43.2004 207.2 43.1004V46.7004C206.8 46.8004 206.3 46.9004 205.7 47.0004C205.1 47.1004 204.4 47.2004 203.5 47.2004C202.4 47.2004 201.3 47.0004 200.3 46.6004C199.3 46.2004 198.6 45.5004 198 44.5004C197.4 43.5004 197.2 42.1004 197.2 40.5004V15.0004H197.3ZM207.1 21.2004V24.5004H192.3V21.2004H207.1ZM184.8 39.9004C184.8 39.3004 184.6 38.7004 184.3 38.2004C184 37.7004 183.4 37.2004 182.5 36.7004C181.6 36.2004 180.3 35.9004 178.5 35.5004C177 35.2004 175.6 34.8004 174.4 34.4004C173.2 34.0004 172.1 33.5004 171.3 32.9004C170.5 32.3004 169.8 31.6004 169.4 30.9004C168.9 30.1004 168.7 29.2004 168.7 28.1004C168.7 27.1004 168.9 26.1004 169.4 25.3004C169.9 24.4004 170.6 23.6004 171.4 22.9004C172.3 22.2004 173.4 21.7004 174.6 21.3004C175.8 20.9004 177.2 20.7004 178.8 20.7004C181 20.7004 182.9 21.1004 184.4 21.8004C186 22.5004 187.1 23.5004 188 24.7004C188.8 25.9004 189.2 27.2004 189.2 28.7004H184.5C184.5 28.0004 184.3 27.3004 183.8 26.7004C183.4 26.0004 182.7 25.5004 181.9 25.0004C181.1 24.6004 180 24.3004 178.8 24.3004C177.5 24.3004 176.4 24.5004 175.6 24.9004C174.8 25.3004 174.2 25.7004 173.9 26.3004C173.5 26.9004 173.4 27.5004 173.4 28.1004C173.4 28.6004 173.5 29.0004 173.7 29.4004C173.9 29.8004 174.2 30.1004 174.7 30.4004C175.2 30.7004 175.8 31.0004 176.6 31.2004C177.4 31.5004 178.5 31.7004 179.8 32.0004C182 32.5004 183.9 33.0004 185.3 33.7004C186.7 34.4004 187.8 35.2004 188.5 36.1004C189.2 37.1004 189.6 38.2004 189.6 39.6004C189.6 40.7004 189.3 41.7004 188.8 42.7004C188.3 43.6004 187.6 44.4004 186.7 45.1004C185.8 45.8004 184.7 46.3004 183.4 46.7004C182.1 47.1004 180.7 47.2004 179.1 47.2004C176.7 47.2004 174.6 46.8004 173 46.0004C171.4 45.2004 170.1 44.2004 169.2 42.9004C168.3 41.6004 167.9 40.3004 167.9 38.9004H172.6C172.7 40.1004 173 41.0004 173.7 41.7004C174.4 42.4004 175.2 42.9004 176.2 43.2004C177.2 43.5004 178.1 43.6004 179.1 43.6004C180.4 43.6004 181.5 43.4004 182.3 43.1004C183.2 42.8004 183.8 42.4004 184.3 41.8004C184.6 41.2004 184.8 40.6004 184.8 39.9004ZM156.3 14.4004C156.3 13.7004 156.5 13.1004 157 12.6004C157.5 12.1004 158.2 11.9004 159.1 11.9004C160 11.9004 160.7 12.1004 161.1 12.6004C161.6 13.1004 161.8 13.7004 161.8 14.4004C161.8 15.1004 161.6 15.7004 161.1 16.1004C160.6 16.6004 159.9 16.8004 159.1 16.8004C158.2 16.8004 157.5 16.6004 157 16.1004C156.5 15.7004 156.3 15.1004 156.3 14.4004ZM161.4 21.2004V46.6004H156.7V21.2004H161.4ZM145.5 39.9004C145.5 39.3004 145.3 38.7004 145 38.2004C144.7 37.7004 144.1 37.2004 143.2 36.7004C142.3 36.2004 141 35.9004 139.2 35.5004C137.7 35.2004 136.3 34.8004 135.1 34.4004C133.9 34.0004 132.8 33.5004 132 32.9004C131.2 32.3004 130.5 31.6004 130.1 30.9004C129.6 30.1004 129.4 29.2004 129.4 28.1004C129.4 27.1004 129.6 26.1004 130.1 25.3004C130.6 24.4004 131.3 23.6004 132.1 22.9004C133 22.2004 134.1 21.7004 135.3 21.3004C136.5 20.9004 137.9 20.7004 139.5 20.7004C141.7 20.7004 143.6 21.1004 145.1 21.8004C146.7 22.5004 147.8 23.5004 148.7 24.7004C149.5 25.9004 149.9 27.2004 149.9 28.7004H145.2C145.2 28.0004 145 27.3004 144.5 26.7004C144.1 26.0004 143.4 25.5004 142.6 25.0004C141.8 24.6004 140.7 24.3004 139.5 24.3004C138.2 24.3004 137.1 24.5004 136.3 24.9004C135.5 25.3004 134.9 25.7004 134.6 26.3004C134.2 26.9004 134.1 27.5004 134.1 28.1004C134.1 28.6004 134.2 29.0004 134.4 29.4004C134.6 29.8004 134.9 30.1004 135.4 30.4004C135.9 30.7004 136.5 31.0004 137.3 31.2004C138.1 31.5004 139.2 31.7004 140.5 32.0004C142.7 32.5004 144.6 33.0004 146 33.7004C147.4 34.4004 148.5 35.2004 149.2 36.1004C149.9 37.1004 150.3 38.2004 150.3 39.6004C150.3 40.7004 150 41.7004 149.5 42.7004C149 43.6004 148.3 44.4004 147.4 45.1004C146.5 45.8004 145.4 46.3004 144.1 46.7004C142.8 47.1004 141.4 47.2004 139.8 47.2004C137.4 47.2004 135.3 46.8004 133.7 46.0004C132 45.2004 130.8 44.2004 129.9 42.9004C129 41.6004 128.6 40.3004 128.6 38.9004H133.3C133.4 40.1004 133.7 41.0004 134.4 41.7004C135.1 42.4004 135.9 42.9004 136.9 43.2004C137.9 43.5004 138.8 43.6004 139.8 43.6004C141.1 43.6004 142.2 43.4004 143 43.1004C143.9 42.8004 144.5 42.4004 145 41.8004C145.2 41.2004 145.5 40.6004 145.5 39.9004ZM118.7 39.9004C118.7 39.3004 118.5 38.7004 118.2 38.2004C117.9 37.7004 117.3 37.2004 116.4 36.7004C115.5 36.2004 114.2 35.9004 112.4 35.5004C110.9 35.2004 109.5 34.8004 108.3 34.4004C107.1 34.0004 106 33.5004 105.2 32.9004C104.4 32.3004 103.7 31.6004 103.3 30.9004C102.8 30.1004 102.6 29.2004 102.6 28.1004C102.6 27.1004 102.8 26.1004 103.3 25.3004C103.8 24.4004 104.5 23.6004 105.3 22.9004C106.2 22.2004 107.3 21.7004 108.5 21.3004C109.7 20.9004 111.1 20.7004 112.7 20.7004C114.9 20.7004 116.8 21.1004 118.3 21.8004C119.9 22.5004 121 23.5004 121.9 24.7004C122.7 25.9004 123.1 27.2004 123.1 28.7004H118.4C118.4 28.0004 118.2 27.3004 117.7 26.7004C117.3 26.0004 116.6 25.5004 115.8 25.0004C115 24.6004 113.9 24.3004 112.7 24.3004C111.4 24.3004 110.3 24.5004 109.5 24.9004C108.7 25.3004 108.1 25.7004 107.8 26.3004C107.4 26.9004 107.3 27.5004 107.3 28.1004C107.3 28.6004 107.4 29.0004 107.6 29.4004C107.8 29.8004 108.1 30.1004 108.6 30.4004C109.1 30.7004 109.7 31.0004 110.5 31.2004C111.3 31.5004 112.4 31.7004 113.7 32.0004C115.9 32.5004 117.8 33.0004 119.2 33.7004C120.6 34.4004 121.7 35.2004 122.4 36.1004C123.1 37.1004 123.5 38.2004 123.5 39.6004C123.5 40.7004 123.2 41.7004 122.7 42.7004C122.2 43.6004 121.5 44.4004 120.6 45.1004C119.7 45.8004 118.6 46.3004 117.3 46.7004C116 47.1004 114.6 47.2004 113 47.2004C110.6 47.2004 108.5 46.8004 106.9 46.0004C105.2 45.2004 104 44.2004 103.1 42.9004C102.2 41.6004 101.8 40.3004 101.8 38.9004H106.5C106.6 40.1004 106.9 41.0004 107.6 41.7004C108.3 42.4004 109.1 42.9004 110.1 43.2004C111.1 43.5004 112 43.6004 113 43.6004C114.3 43.6004 115.4 43.4004 116.2 43.1004C117.1 42.8004 117.7 42.4004 118.2 41.8004C118.5 41.2004 118.7 40.6004 118.7 39.9004ZM91.5 31.2004L91.6 34.3004H86.9C85.6 34.3004 84.4 34.4004 83.3 34.6004C82.3 34.8004 81.4 35.1004 80.7 35.5004C80 35.9004 79.5 36.4004 79.1 37.0004C78.7 37.6004 78.5 38.3004 78.5 39.0004C78.5 39.8004 78.7 40.5004 79.1 41.2004C79.5 41.9004 80.1 42.4004 80.8 42.8004C81.6 43.2004 82.6 43.4004 83.7 43.4004C85.1 43.4004 86.4 43.1004 87.5 42.6004C88.6 42.0004 89.5 41.3004 90.1 40.5004C90.8 39.7004 91.1 38.9004 91.2 38.1004L93.2 40.2004C93.1 40.9004 92.8 41.6004 92.2 42.4004C91.7 43.2004 91 44.0004 90.1 44.7004C89.2 45.4004 88.2 46.0004 87 46.5004C85.8 47.0004 84.5 47.2004 83 47.2004C81.1 47.2004 79.5 46.9004 78.1 46.2004C76.7 45.5004 75.6 44.6004 74.9 43.5004C74.1 42.4004 73.8 41.1004 73.8 39.7004C73.8 38.3004 74.1 37.1004 74.7 36.1004C75.3 35.0004 76.1 34.2004 77.2 33.5004C78.3 32.8004 79.6 32.3004 81.1 31.9004C82.6 31.5004 84.3 31.4004 86.2 31.4004H91.5V31.2004ZM90.7 42.3004V29.2004C90.7 28.2004 90.5 27.3004 90 26.6004C89.6 25.8004 88.9 25.3004 88.1 24.9004C87.2 24.5004 86.2 24.3004 84.9 24.3004C83.7 24.3004 82.7 24.5004 81.8 24.9004C80.9 25.3004 80.2 25.8004 79.7 26.4004C79.2 27.0004 79 27.7004 79 28.4004H74.3C74.3 27.5004 74.6 26.6004 75.1 25.7004C75.6 24.8004 76.3 24.0004 77.3 23.3004C78.3 22.6004 79.4 22.0004 80.7 21.6004C82 21.2004 83.5 20.9004 85.2 20.9004C87.2 20.9004 88.9 21.2004 90.5 21.8004C92 22.4004 93.2 23.4004 94.1 24.6004C95 25.9004 95.4 27.4004 95.4 29.3004V41.2004C95.4 42.0004 95.5 42.9004 95.6 43.9004C95.8 44.9004 96 45.7004 96.3 46.4004V46.8004H91.4C91.2 46.3004 91 45.6004 90.8 44.8004C90.8 43.8004 90.7 43.0004 90.7 42.3004Z"
            fill="#DB5F94" />
        <path
            d="M33.5 0L34.8 21.2L40.5 0.7L37.3 21.7L47.2 2.9L39.7 22.8L53.3 6.4L41.9 24.3L58.5 11.1L43.6 26.3L62.6 16.8L44.9 28.6L65.5 23.3L45.7 31.1L66.9 30.1L46 33.7L66.9 37.2L45.7 36.3L65.5 44.1L44.9 38.8L62.6 50.5L43.6 41L58.5 56.2L41.9 43L53.3 60.9L39.7 44.5L47.2 64.4L37.3 45.6L40.5 66.6L34.8 46.1L33.5 67.3L32.2 46.1L26.5 66.6L29.6 45.6L19.8 64.4L27.2 44.5L13.7 60.9L25.1 43L8.5 56.2L23.3 41L4.3 50.5L22 38.8L1.5 44.1L21.2 36.3L0 37.2L20.9 33.7L0 30.1L21.2 31.1L1.5 23.3L22 28.6L4.3 16.8L23.3 26.3L8.5 11.1L25.1 24.3L13.7 6.4L27.2 22.8L19.8 2.9L29.6 21.7L26.5 0.7L32.2 21.2L33.5 0Z"
            fill="#F66824" />
    </g>
    <defs>
        <clipPath id="clip0_1772_3472">
            <rect width="270.8" height="67.3" fill="white" />
        </clipPath>
    </defs>
</svg>