<svg width="26" height="26" viewBox="0 0 26 26" fill="none" xmlns="http://www.w3.org/2000/svg">
    <path opacity="0.4" fill-rule="evenodd" clip-rule="evenodd" d="M3.56543 13C3.56543 12.421 4.03477 11.9517 4.61373 11.9517H21.3865C21.9654 11.9517 22.4347 12.421 22.4347 13C22.4347 13.579 21.9654 14.0483 21.3865 14.0483H4.61373C4.03477 14.0483 3.56543 13.579 3.56543 13Z" fill="#030115"/>
    <path d="M5.69123 13.0003C5.78903 13.1626 5.99407 13.4541 6.21827 13.7078C6.66458 14.213 7.27965 14.7899 7.92173 15.3473C8.5586 15.9003 9.19855 16.4139 9.68115 16.7905C9.92191 16.9784 10.3374 17.2922 10.4769 17.3977C10.943 17.741 11.0426 18.3972 10.6993 18.8633C10.356 19.3295 9.69973 19.4291 9.23355 19.0857L9.22966 19.0828C9.07831 18.9685 8.63947 18.6371 8.39128 18.4433C7.89112 18.0531 7.22069 17.5153 6.54719 16.9306C5.8789 16.3503 5.1836 15.7032 4.64713 15.096C4.37996 14.7937 4.13 14.4765 3.94116 14.1633C3.76968 13.8788 3.56545 13.4649 3.56543 13.0003C3.56545 12.5358 3.76968 12.1218 3.94116 11.8373C4.13 11.5241 4.37996 11.2069 4.64712 10.9045C5.1836 10.2974 5.8789 9.65029 6.54719 9.07006C7.22069 8.48531 7.89112 7.94752 8.39128 7.55719C8.63947 7.3635 9.07803 7.03226 9.22938 6.91795L9.23355 6.91479C9.69973 6.57146 10.356 6.67105 10.6993 7.13723C11.0426 7.60337 10.943 8.25955 10.4769 8.6029C10.3374 8.70831 9.92191 9.02216 9.68115 9.21003C9.19855 9.58667 8.5586 10.1002 7.92173 10.6532C7.27965 11.2106 6.66458 11.7876 6.21827 12.2928C5.99407 12.5465 5.78903 12.838 5.69123 13.0003Z" fill="#030115"/>
    </svg>
    