<svg width="32" height="33" viewBox="0 0 32 33" fill="none" xmlns="http://www.w3.org/2000/svg">
<path d="M16.0007 11.168C21.8917 11.168 26.6673 9.37711 26.6673 7.16797C26.6673 4.95883 21.8917 3.16797 16.0007 3.16797C10.1096 3.16797 5.33398 4.95883 5.33398 7.16797C5.33398 9.37711 10.1096 11.168 16.0007 11.168Z" stroke="white" stroke-width="2"/>
<path d="M9.33398 14.957C10.1361 15.1981 11.0331 15.3968 12.0007 15.5436" stroke="white" stroke-width="2" stroke-linecap="round"/>
<path d="M26.6673 16.5C26.6673 18.7092 21.8917 20.5 16.0007 20.5C10.1096 20.5 5.33398 18.7092 5.33398 16.5" stroke="white" stroke-width="2"/>
<path d="M9.33398 24.293C10.1361 24.534 11.0331 24.7327 12.0007 24.8795" stroke="white" stroke-width="2" stroke-linecap="round"/>
<path d="M26.6673 7.16797V25.8346C26.6673 28.0438 21.8917 29.8346 16.0007 29.8346C10.1096 29.8346 5.33398 28.0438 5.33398 25.8346V7.16797" stroke="white" stroke-width="2"/>
</svg>
