<svg width="166" height="65" viewBox="0 0 166 65" fill="none" xmlns="http://www.w3.org/2000/svg">
    <path
        d="M11.481 45.0264C11.4389 45.0264 11.3969 45.0051 11.3548 44.9625C11.3127 44.8985 11.3338 44.8133 11.3969 44.7706L20.9684 39.1435C21.0316 39.1009 21.1157 39.1222 21.1578 39.1862C21.1999 39.2501 21.1788 39.3354 21.1157 39.378L11.5441 45.0051C11.5231 45.0264 11.502 45.0264 11.481 45.0264ZM52.6283 45.0264C52.6073 45.0264 52.5862 45.0264 52.5652 45.0051L42.9936 39.3993C42.9305 39.3567 42.9095 39.2714 42.9516 39.2075C42.9936 39.1435 43.0778 39.1222 43.1409 39.1648L52.7124 44.7919C52.7755 44.8346 52.7966 44.9198 52.7545 44.9838C52.7335 45.0051 52.6914 45.0264 52.6283 45.0264ZM32.0547 19.9816C31.9705 19.9816 31.9284 19.9177 31.9284 19.8537V8.55697C31.9284 8.47167 31.9916 8.42908 32.0547 8.42908C32.1178 8.42908 32.1809 8.49302 32.1809 8.55697V19.8537C32.1809 19.9177 32.1388 19.9816 32.0547 19.9816Z"
        fill="#7A7BFF" />
    <path
        d="M32.0547 33.1329L20.5057 26.2909L32.0547 19.5128L43.6037 26.2909L32.0547 33.1329ZM21.5785 26.2909L32.0547 32.4935L42.5308 26.2909L32.0547 20.1523L21.5785 26.2909Z"
        fill="#7BCCD8" />
    <path
        d="M32.3281 46.1561L20.7791 39.442V25.8219L32.3281 32.6639V46.1561ZM21.3261 39.1223L31.7812 45.2183V32.9836L21.3261 26.7811V39.1223Z"
        fill="#52C7DA" />
    <path
        d="M31.7812 46.1561V32.6639L31.9074 32.5787L43.3302 25.8219V39.442L43.2039 39.5272L31.7812 46.1561ZM32.3281 32.9836V45.2183L42.7832 39.1223V26.7811L32.3281 32.9836Z"
        fill="#52C7DA" />
    <path
        d="M32.0547 57.6023L10.8499 45.2609V20.2588L32.0547 7.81104L53.2594 20.2588V45.2609L32.0547 57.6023ZM12.1121 44.515L32.0547 56.1101L51.9972 44.515V20.9835L32.0547 9.30305L12.1121 20.9835V44.515Z"
        fill="#7A7BFF" />
    <path
        d="M32.0547 57.4955C31.697 57.4955 31.4236 57.2183 31.4236 56.8561V33.1755L11.1445 21.1753C10.8499 21.0048 10.7447 20.5999 10.913 20.3014C11.0814 20.0031 11.481 19.8965 11.7756 20.0669L32.3492 32.259C32.5385 32.3656 32.6647 32.5787 32.6647 32.8132V56.8561C32.6858 57.2183 32.4123 57.4955 32.0547 57.4955Z"
        fill="#7A7BFF" />
    <path
        d="M32.0547 33.4525C31.8443 33.4525 31.6339 33.346 31.5077 33.1328C31.3394 32.8344 31.4236 32.4294 31.7391 32.2589L52.3128 20.0669C52.6072 19.8964 53.007 19.9816 53.1752 20.3014C53.3435 20.5998 53.2594 21.0047 52.9439 21.1753L32.3702 33.3673C32.265 33.4312 32.1599 33.4525 32.0547 33.4525Z"
        fill="#7A7BFF" />
    <path
        d="M79.9262 32.1812C80.6031 32.4211 81.1613 32.7383 81.601 33.1325C82.0407 33.5096 82.3706 33.9724 82.5907 34.5209C82.8273 35.0523 82.9459 35.6608 82.9459 36.3465C82.9459 37.4092 82.6751 38.3348 82.1339 39.1233C81.5927 39.9119 80.8314 40.5203 79.85 40.9489C78.8687 41.3603 77.7184 41.566 76.3989 41.566H69.0398V23.6191H76.1451C78.1923 23.6191 79.7656 24.0562 80.8651 24.9304C81.9816 25.7875 82.5399 26.9017 82.5399 28.273C82.5399 28.9072 82.4301 29.4729 82.21 29.97C81.9899 30.4499 81.6854 30.8784 81.2965 31.2555C80.9076 31.6155 80.4508 31.924 79.9262 32.1812ZM75.8914 27.0902H73.2269V30.7927H75.8914C76.5848 30.7927 77.1431 30.6213 77.5662 30.2785C78.0059 29.9185 78.226 29.4643 78.226 28.9158C78.226 28.3673 78.0059 27.9302 77.5662 27.6045C77.1265 27.2617 76.5682 27.0902 75.8914 27.0902ZM73.2269 38.0949H76.272C76.9825 38.0949 77.5491 37.9234 77.9722 37.5806C78.4119 37.2378 78.632 36.775 78.632 36.1922C78.632 35.5923 78.4207 35.1209 77.9976 34.7781C77.5745 34.4353 76.9908 34.2638 76.2466 34.2638H73.2269V38.0949ZM91.6599 41.8745C90.1544 41.8745 88.8602 41.5745 87.7773 40.9746C86.6944 40.3747 85.857 39.5176 85.2651 38.4034C84.6897 37.2893 84.4023 35.9608 84.4023 34.4181C84.4023 32.8582 84.6897 31.5298 85.2651 30.4328C85.857 29.3186 86.6944 28.4615 87.7773 27.8616C88.8602 27.2617 90.1544 26.9617 91.6599 26.9617C93.9266 26.9617 95.6947 27.6216 96.9635 28.9415C98.2494 30.2613 98.8921 32.0869 98.8921 34.4181C98.8921 35.9608 98.6047 37.2893 98.0293 38.4034C97.4539 39.5176 96.6253 40.3747 95.5424 40.9746C94.4595 41.5745 93.1653 41.8745 91.6599 41.8745ZM91.6599 38.6348C92.6749 38.6348 93.4699 38.2577 94.0452 37.5035C94.6372 36.7493 94.9334 35.7208 94.9334 34.4181C94.9334 33.0982 94.6372 32.0698 94.0452 31.3327C93.4699 30.5785 92.6749 30.2014 91.6599 30.2014C90.6277 30.2014 89.8157 30.5785 89.2238 31.3327C88.6484 32.0698 88.361 33.0982 88.361 34.4181C88.361 35.7208 88.6484 36.7493 89.2238 37.5035C89.8157 38.2577 90.6277 38.6348 91.6599 38.6348ZM110.423 41.566V32.7468C110.423 32.0097 110.237 31.4184 109.864 30.9727C109.492 30.5271 109.002 30.3042 108.393 30.3042C107.699 30.3042 107.056 30.5442 106.464 31.0241C105.889 31.4869 105.28 32.2926 104.637 33.441L104.079 30.0471C104.721 28.9329 105.5 28.1444 106.413 27.6816C107.327 27.2016 108.258 26.9617 109.205 26.9617C110.288 26.9617 111.209 27.1931 111.971 27.6559C112.749 28.1187 113.341 28.7615 113.747 29.5843C114.17 30.4071 114.381 31.3755 114.381 32.4897V41.566H110.423ZM101.008 41.566V27.2702H104.84L104.967 29.8157V41.566H101.008Z"
        fill="black" />
    <path
        d="M140.235 26.9616C141.047 26.9616 141.809 27.1159 142.519 27.4244C143.23 27.7158 143.822 28.1186 144.296 28.6329V22.5392H148.229V41.5659H144.422L144.346 40.126C143.872 40.6574 143.28 41.0859 142.57 41.4116C141.859 41.7202 141.081 41.8745 140.235 41.8745C139.017 41.8745 137.934 41.5402 136.987 40.8717C136.04 40.2032 135.295 39.3033 134.754 38.172C134.213 37.0406 133.942 35.7893 133.942 34.418C133.942 33.0296 134.213 31.7697 134.754 30.6384C135.295 29.5071 136.04 28.6157 136.987 27.9644C137.934 27.2959 139.017 26.9616 140.235 26.9616ZM141.25 38.5833C141.961 38.5833 142.587 38.3605 143.128 37.9148C143.669 37.452 144.059 36.8521 144.296 36.115V32.6953C144.059 31.9411 143.669 31.3498 143.128 30.9212C142.587 30.4756 141.961 30.2527 141.25 30.2527C140.608 30.2527 140.032 30.4413 139.525 30.8184C139.017 31.1783 138.62 31.6754 138.332 32.3097C138.045 32.9267 137.901 33.6295 137.901 34.418C137.901 35.1894 138.045 35.8922 138.332 36.5264C138.62 37.1435 139.017 37.6406 139.525 38.0177C140.032 38.3948 140.608 38.5833 141.25 38.5833ZM159.937 41.5659L159.81 38.9947V31.9497C159.81 31.2812 159.565 30.7584 159.074 30.3813C158.584 29.9871 157.907 29.7899 157.044 29.7899C156.215 29.7899 155.539 29.9699 155.014 30.3299C154.507 30.6727 154.21 31.1612 154.126 31.7954H150.294C150.379 30.7841 150.717 29.9185 151.309 29.1985C151.901 28.4786 152.697 27.9301 153.695 27.553C154.71 27.1588 155.885 26.9616 157.222 26.9616C158.541 26.9616 159.692 27.1673 160.673 27.5787C161.654 27.9729 162.407 28.5643 162.931 29.3528C163.473 30.1242 163.744 31.0755 163.744 32.2068V41.5659H159.937ZM155.42 41.8745C154.49 41.8745 153.669 41.6945 152.959 41.3345C152.248 40.9574 151.698 40.4431 151.309 39.7918C150.92 39.1404 150.726 38.4034 150.726 37.5806C150.726 36.1065 151.284 34.9665 152.4 34.1609C153.534 33.3381 155.09 32.9267 157.07 32.9267H160.191V35.7036L156.968 35.7293C156.24 35.7293 155.657 35.8664 155.217 36.1407C154.794 36.3978 154.583 36.7921 154.583 37.3235C154.583 37.7006 154.735 38.0262 155.04 38.3005C155.361 38.5748 155.809 38.7119 156.384 38.7119C157.179 38.7119 157.882 38.5148 158.491 38.1205C159.117 37.7091 159.633 37.152 160.039 36.4493L160.47 39.149C160.047 40.0918 159.396 40.786 158.516 41.2317C157.653 41.6602 156.621 41.8745 155.42 41.8745Z"
        fill="black" />
    <mask id="mask0_1_310" style="mask-type: luminance" maskUnits="userSpaceOnUse" x="114" y="20" width="15"
        height="22">
        <path d="M128.153 20.7729H114.637V41.6219H128.153V20.7729Z" fill="white" />
    </mask>
    <g mask="url(#mask0_1_310)">
        <path
            d="M118.688 41.6218V25.9119C118.688 24.9006 118.908 24.0178 119.347 23.2636C119.787 22.4923 120.388 21.8923 121.149 21.4638C121.91 21.0181 122.765 20.7953 123.712 20.7953H127.491V24.035H125.285C124.812 24.035 124.372 24.0778 123.966 24.1635C123.56 24.2492 123.238 24.4292 123.002 24.7035C122.765 24.9606 122.646 25.3634 122.646 25.9119V41.6218H118.688ZM115.896 30.5658V27.3261H128.91L127.491 30.5658H115.896Z"
            fill="black" />
    </g>
    <mask id="mask1_1_310" style="mask-type: luminance" maskUnits="userSpaceOnUse" x="122" y="21" width="15"
        height="21">
        <path d="M136.042 21.6672H122.802V41.6218H136.042V21.6672Z" fill="white" />
    </mask>
    <g mask="url(#mask1_1_310)">
        <path d="M127.415 41.6218V27.326H131.374V41.6218H127.415Z" fill="black" />
    </g>
</svg>