<svg width="26" height="27" viewBox="0 0 26 27" fill="none" xmlns="http://www.w3.org/2000/svg">
<path d="M19.0385 2.97705V5.07364M6.45898 2.97705V5.07364" stroke="white" stroke-width="1.57244" stroke-linecap="round" stroke-linejoin="round"/>
<path d="M10.6538 18.7015L10.6538 14.8723C10.6538 14.6713 10.5104 14.5083 10.3336 14.5083H9.60547M14.4588 18.7015L15.8787 14.8744C15.945 14.6954 15.8038 14.5083 15.6025 14.5083H13.7987" stroke="white" stroke-width="1.57244" stroke-linecap="round"/>
<path d="M2.79102 13.715C2.79102 9.1473 2.79102 6.86342 4.10361 5.44441C5.4162 4.02539 7.52878 4.02539 11.7539 4.02539H13.7457C17.9709 4.02539 20.0835 4.02539 21.3961 5.44441C22.7086 6.86342 22.7086 9.1473 22.7086 13.715V14.2534C22.7086 18.8211 22.7086 21.105 21.3961 22.524C20.0835 23.943 17.9709 23.943 13.7457 23.943H11.7539C7.52878 23.943 5.4162 23.943 4.10361 22.524C2.79102 21.105 2.79102 18.8211 2.79102 14.2534V13.715Z" stroke="white" stroke-width="1.57244" stroke-linecap="round" stroke-linejoin="round"/>
<path d="M6.45898 9.2666H19.0385" stroke="white" stroke-width="1.57244" stroke-linecap="round" stroke-linejoin="round"/>
</svg>
