<svg width="33" height="33" viewBox="0 0 33 33" fill="none" xmlns="http://www.w3.org/2000/svg">
<path d="M16.6678 29.8333C16.9935 29.8333 17.2963 29.6825 17.9019 29.3811L22.7699 26.9576C24.9241 25.8853 26.0011 25.3491 26.0011 24.5V13.8333M16.6678 29.8333C16.3421 29.8333 16.0393 29.6825 15.4337 29.3811L10.5656 26.9576C8.41153 25.8853 7.33447 25.3491 7.33447 24.5V13.8333M16.6678 29.8333V19.1667M26.0011 13.8333C26.0011 12.9842 24.9241 12.448 22.7699 11.3757L17.9019 8.95225C17.2963 8.65075 16.9935 8.5 16.6678 8.5C16.3421 8.5 16.0393 8.65075 15.4337 8.95225L10.5656 11.3757C8.41153 12.448 7.33447 12.9842 7.33447 13.8333M26.0011 13.8333C26.0011 14.6824 24.9241 15.2187 22.7699 16.2909L17.9019 18.7144C17.2963 19.0159 16.9935 19.1667 16.6678 19.1667M7.33447 13.8333C7.33447 14.6824 8.41153 15.2187 10.5656 16.2909L15.4337 18.7144C16.0393 19.0159 16.3421 19.1667 16.6678 19.1667" stroke="black" stroke-width="2" stroke-linejoin="round"/>
<path d="M30.0024 28.4974L26.0024 25.1641" stroke="black" stroke-width="2" stroke-linecap="round" stroke-linejoin="round"/>
<path d="M16.6665 3.16406V8.4974" stroke="black" stroke-width="2" stroke-linecap="round" stroke-linejoin="round"/>
<path d="M3.33252 28.4974L7.33252 25.1641" stroke="black" stroke-width="2" stroke-linecap="round" stroke-linejoin="round"/>
</svg>
