<svg width="26" height="27" viewBox="0 0 26 27" fill="none" xmlns="http://www.w3.org/2000/svg">
<path d="M13.2498 23.943C19.0393 23.943 23.7328 19.2495 23.7328 13.46C23.7328 7.67043 19.0393 2.97705 13.2498 2.97705C8.55589 2.97705 4.62682 6.06207 3.29102 10.3151H5.91175" stroke="white" stroke-width="1.57244" stroke-linecap="round" stroke-linejoin="round"/>
<path d="M13.25 9.26709V13.4603L15.3466 15.5569" stroke="white" stroke-width="1.57244" stroke-linecap="round" stroke-linejoin="round"/>
<path d="M2.76562 13.4595C2.76562 13.8131 2.78156 14.1628 2.81274 14.5078M10.1037 23.9424C9.74559 23.8246 9.39579 23.6871 9.0554 23.5313M4.03342 18.7009C3.83127 18.3114 3.65094 17.9077 3.49416 17.4914M5.73358 21.1188C6.05402 21.464 6.39593 21.7872 6.75706 22.0861" stroke="white" stroke-width="1.57244" stroke-linecap="round" stroke-linejoin="round"/>
</svg>
