<svg width="22" height="22" viewBox="0 0 22 22" fill="none" xmlns="http://www.w3.org/2000/svg">
    <path
        d="M2.26562 16.2418C2.26562 14.8962 2.26562 14.2232 2.56852 13.729C2.738 13.4524 2.97054 13.2198 3.24712 13.0504C3.7414 12.7475 4.41425 12.7475 5.75994 12.7475C7.10564 12.7475 7.77849 12.7475 8.27277 13.0504C8.54934 13.2198 8.78188 13.4524 8.95136 13.729C9.25426 14.2232 9.25426 14.8962 9.25426 16.2418C9.25426 17.5875 9.25426 18.2604 8.95136 18.7547C8.78188 19.0312 8.54934 19.2638 8.27277 19.4333C7.77849 19.7361 7.10564 19.7361 5.75994 19.7361C4.41425 19.7361 3.7414 19.7361 3.24712 19.4333C2.97054 19.2638 2.738 19.0312 2.56852 18.7547C2.26562 18.2604 2.26562 17.5875 2.26562 16.2418Z"
        stroke="#030115" stroke-width="1.31037" />
    <path
        d="M12.748 16.2418C12.748 14.8962 12.748 14.2232 13.0509 13.729C13.2204 13.4524 13.4529 13.2198 13.7295 13.0504C14.2238 12.7475 14.8967 12.7475 16.2424 12.7475C17.588 12.7475 18.2609 12.7475 18.7552 13.0504C19.0318 13.2198 19.2643 13.4524 19.4338 13.729C19.7367 14.2232 19.7367 14.8962 19.7367 16.2418C19.7367 17.5875 19.7367 18.2604 19.4338 18.7547C19.2643 19.0312 19.0318 19.2638 18.7552 19.4333C18.2609 19.7361 17.588 19.7361 16.2424 19.7361C14.8967 19.7361 14.2238 19.7361 13.7295 19.4333C13.4529 19.2638 13.2204 19.0312 13.0509 18.7547C12.748 18.2604 12.748 17.5875 12.748 16.2418Z"
        stroke="#030115" stroke-width="1.31037" />
    <path
        d="M2.26562 5.75842C2.26562 4.41272 2.26562 3.73987 2.56852 3.24559C2.738 2.96902 2.97054 2.73648 3.24712 2.567C3.7414 2.2641 4.41425 2.2641 5.75994 2.2641C7.10564 2.2641 7.77849 2.2641 8.27277 2.567C8.54934 2.73648 8.78188 2.96902 8.95136 3.24559C9.25426 3.73987 9.25426 4.41272 9.25426 5.75842C9.25426 7.10411 9.25426 7.77696 8.95136 8.27124C8.78188 8.54782 8.54934 8.78035 8.27277 8.94984C7.77849 9.25273 7.10564 9.25273 5.75994 9.25273C4.41425 9.25273 3.7414 9.25273 3.24712 8.94984C2.97054 8.78035 2.738 8.54782 2.56852 8.27124C2.26562 7.77696 2.26562 7.10411 2.26562 5.75842Z"
        stroke="#030115" stroke-width="1.31037" />
    <path
        d="M12.748 5.75842C12.748 4.41272 12.748 3.73987 13.0509 3.24559C13.2204 2.96902 13.4529 2.73648 13.7295 2.567C14.2238 2.2641 14.8967 2.2641 16.2424 2.2641C17.588 2.2641 18.2609 2.2641 18.7552 2.567C19.0318 2.73648 19.2643 2.96902 19.4338 3.24559C19.7367 3.73987 19.7367 4.41272 19.7367 5.75842C19.7367 7.10411 19.7367 7.77696 19.4338 8.27124C19.2643 8.54782 19.0318 8.78035 18.7552 8.94984C18.2609 9.25273 17.588 9.25273 16.2424 9.25273C14.8967 9.25273 14.2238 9.25273 13.7295 8.94984C13.4529 8.78035 13.2204 8.54782 13.0509 8.27124C12.748 7.77696 12.748 7.10411 12.748 5.75842Z"
        stroke="#030115" stroke-width="1.31037" />
</svg>
    