<svg width="18" height="18" viewBox="0 0 18 18" fill="none" xmlns="http://www.w3.org/2000/svg">
<path opacity="0.4" d="M12.0412 6.1875C13.0669 6.18749 13.8936 6.18747 14.5439 6.27489C15.2189 6.36566 15.7873 6.55982 16.2388 7.01126C16.6902 7.4627 16.8844 8.03108 16.9751 8.70623C17.0625 9.3564 17.0625 10.1831 17.0625 11.2088V12.0412C17.0625 13.0669 17.0625 13.8936 16.9751 14.5439C16.8844 15.2189 16.6902 15.7873 16.2388 16.2388C15.7873 16.6902 15.2189 16.8844 14.5439 16.9751C13.8936 17.0625 13.0669 17.0625 12.0412 17.0625H11.2088C10.1831 17.0625 9.3564 17.0625 8.70615 16.9751C8.03108 16.8844 7.4627 16.6902 7.01126 16.2387C6.55982 15.7873 6.36566 15.2189 6.27489 14.5439C6.18747 13.8936 6.18749 13.0669 6.1875 12.0412V11.2088C6.18749 10.1831 6.18747 9.3564 6.27489 8.70615C6.36566 8.03108 6.55982 7.4627 7.01126 7.01126C7.4627 6.55982 8.03108 6.36566 8.70623 6.27489C9.3564 6.18747 10.1831 6.18749 11.2088 6.1875H12.0412Z" fill="#3840C7"/>
<path d="M5.0625 11.1427C5.06243 10.172 5.06237 9.28185 5.15992 8.5563C5.2674 7.75687 5.52026 6.91128 6.21577 6.21577C6.91128 5.52026 7.75687 5.2674 8.5563 5.15992C9.28185 5.06237 10.172 5.06243 11.1427 5.0625H12.8198C13.0418 5.0625 13.1528 5.0625 13.2196 4.99064C13.2863 4.91879 13.2784 4.81065 13.2625 4.59438C13.2486 4.4066 13.2309 4.22919 13.2083 4.06158C13.1113 3.34192 12.9174 2.74388 12.5039 2.23997C12.3558 2.05959 12.1904 1.89419 12.01 1.74615C11.4783 1.30979 10.8418 1.11791 10.0686 1.02651C9.31538 0.937485 8.3634 0.937493 7.1617 0.9375H7.08832C5.88662 0.937493 4.9346 0.937485 4.18144 1.02651C3.40821 1.11791 2.77169 1.30979 2.23997 1.74615C2.05959 1.89419 1.89419 2.05959 1.74615 2.23997C1.30979 2.77169 1.11791 3.40821 1.02651 4.18144C0.937485 4.9346 0.937493 5.88662 0.9375 7.08831V7.16168C0.937493 8.3634 0.937485 9.31537 1.02651 10.0685C1.11791 10.8418 1.30979 11.4783 1.74615 12.01C1.89419 12.1904 2.05959 12.3558 2.23997 12.5039C2.74388 12.9174 3.34192 13.1113 4.06158 13.2083C4.22919 13.2309 4.4066 13.2486 4.59438 13.2625C4.81065 13.2784 4.91879 13.2863 4.99064 13.2196C5.0625 13.1528 5.0625 13.0418 5.0625 12.8198V11.1427Z" fill="#3840C7"/>
</svg>
