<svg width="24" height="25" viewBox="0 0 24 25" fill="none" xmlns="http://www.w3.org/2000/svg">
	<path
		opacity="0.3"
		d="M12 1.74023C11.134 1.74023 10.3597 2.01711 9.52381 2.48617C8.7139 2.94066 7.78587 3.61168 6.61887 4.45547L5.10984 5.54655C4.1733 6.22369 3.42529 6.76452 2.86109 7.2651C2.27855 7.78196 1.84274 8.29723 1.5663 8.94536C1.28926 9.59492 1.22225 10.2607 1.25941 11.0283C1.29528 11.7691 1.43264 12.6629 1.60393 13.7774L1.91919 15.8289C2.16256 17.4127 2.35635 18.6738 2.64105 19.6564C2.93544 20.6723 3.35016 21.4789 4.09141 22.0954C4.82958 22.7094 5.70891 22.9828 6.78306 23.1133C7.828 23.2402 9.14615 23.2402 10.8111 23.2402H13.1889C14.8539 23.2402 16.172 23.2402 17.217 23.1133C18.2911 22.9828 19.1705 22.7094 19.9086 22.0954C20.6499 21.4789 21.0646 20.6723 21.359 19.6564C21.6437 18.6739 21.8375 17.4127 22.0808 15.8289L22.3961 13.7773C22.5674 12.6628 22.7048 11.7691 22.7406 11.0283C22.7778 10.2607 22.7108 9.59492 22.4337 8.94536C22.1573 8.29723 21.7215 7.78196 21.1389 7.2651C20.5747 6.76453 19.8267 6.2237 18.8902 5.54656L17.3812 4.45548C16.2142 3.61169 15.2861 2.94066 14.4762 2.48617C13.6403 2.01711 12.8661 1.74023 12 1.74023Z"
		fill="#2DB8E3"
	/>
	<path
		fill-rule="evenodd"
		clip-rule="evenodd"
		d="M12 14.4902C12.5523 14.4902 13 14.9379 13 15.4902V18.4902C13 19.0425 12.5523 19.4902 12 19.4902C11.4477 19.4902 11 19.0425 11 18.4902V15.4902C11 14.9379 11.4477 14.4902 12 14.4902Z"
		fill="#2DB8E3"
	/>
</svg>
