<svg width="21" height="22" viewBox="0 0 21 22" fill="none" xmlns="http://www.w3.org/2000/svg">
<path d="M13.9941 9.25195L15.0656 10.1755C15.5161 10.5637 15.7413 10.7579 15.7413 10.9991C15.7413 11.2403 15.5161 11.4345 15.0656 11.8227L13.9941 12.7463" stroke="#030115" stroke-width="1.31037" stroke-linecap="round" stroke-linejoin="round"/>
<path d="M7.00595 9.25195L5.93447 10.1755C5.48402 10.5637 5.25879 10.7579 5.25879 10.9991C5.25879 11.2403 5.48402 11.4345 5.93447 11.8227L7.00595 12.7463" stroke="#030115" stroke-width="1.31037" stroke-linecap="round" stroke-linejoin="round"/>
<path d="M11.3736 8.37891L9.62646 13.6204" stroke="#030115" stroke-width="1.31037" stroke-linecap="round" stroke-linejoin="round"/>
<path d="M2.20117 10.9992C2.20117 7.08701 2.20117 5.13092 3.41653 3.91555C4.6319 2.7002 6.58799 2.7002 10.5002 2.7002C14.4123 2.7002 16.3684 2.7002 17.5839 3.91555C18.7992 5.13092 18.7992 7.08701 18.7992 10.9992C18.7992 14.9113 18.7992 16.8675 17.5839 18.0829C16.3684 19.2982 14.4123 19.2982 10.5002 19.2982C6.58799 19.2982 4.6319 19.2982 3.41653 18.0829C2.20117 16.8675 2.20117 14.9113 2.20117 10.9992Z" stroke="#030115" stroke-width="1.31037"/>
</svg>
