<svg width="34" height="34" viewBox="0 0 34 34" fill="none" xmlns="http://www.w3.org/2000/svg">
<rect width="34" height="34" rx="17" fill="#3840C7"/>
<path opacity="0.4" fill-rule="evenodd" clip-rule="evenodd" d="M21.2 13.4475C21.1932 13.1942 21.1743 12.9797 21.1218 12.7844C20.8996 11.9572 20.2521 11.3112 19.423 11.0895C19.1157 11.0074 18.7609 11.0076 18.2832 11.0078L12.1944 11.0079C11.1993 11.0079 10.3926 11.8127 10.3926 12.8055V17.6431C10.3926 18.7357 10.3925 19.6164 10.4859 20.3091C10.5828 21.0282 10.7901 21.6338 11.2722 22.1147C11.7542 22.5955 12.3611 22.8024 13.0819 22.8991C13.7762 22.9922 14.659 22.9922 15.7542 22.9922H19.4442C20.2575 22.9922 20.9282 22.9922 21.459 22.921C22.0163 22.8463 22.5084 22.6833 22.9025 22.2901C23.2966 21.897 23.4598 21.406 23.5348 20.8501C23.6062 20.3205 23.6061 19.6514 23.6061 18.8399V17.557C23.6061 16.7456 23.6062 16.0765 23.5348 15.5469C23.4598 14.9909 23.2966 14.4999 22.9025 14.1068C22.5084 13.7136 22.0163 13.5506 21.459 13.4759C21.376 13.4648 21.2898 13.4554 21.2 13.4475ZM18.2003 12.2063C18.7976 12.2063 18.9783 12.2114 19.1118 12.2471C19.5263 12.3579 19.8502 12.681 19.9612 13.0945C19.9804 13.1659 19.9908 13.2507 19.9962 13.4056C19.8201 13.4047 19.636 13.4047 19.4439 13.4047H12.1941C11.8624 13.4047 11.5935 13.1364 11.5935 12.8055C11.5935 12.4746 11.8624 12.2063 12.1941 12.2063H18.2003Z" fill="white"/>
<path d="M21.6087 18.2292C21.6087 17.5503 21.0584 17 20.3796 17C19.7007 17 19.1504 17.5503 19.1504 18.2292C19.1504 18.908 19.7007 19.4583 20.3796 19.4583C21.0584 19.4583 21.6087 18.908 21.6087 18.2292Z" fill="white"/>
</svg>
