<svg width="24" height="24" viewBox="0 0 24 24" fill="none" xmlns="http://www.w3.org/2000/svg">
    <path opacity="0.3"
        d="M14.3818 1.51758C14.4521 1.63547 14.5099 1.75027 14.5557 1.85997C14.8718 2.46227 14.9856 3.15897 14.8086 3.81096C14.6221 4.49763 14.1297 5.06519 13.3781 5.363C13.0448 5.49504 12.9322 5.62171 12.8832 5.69582C12.8226 5.78722 12.7878 5.90153 12.7424 6.15096L12.73 6.2204C12.6913 6.4408 12.6319 6.77945 12.472 7.10204C12.2755 7.49855 11.9537 7.83691 11.4529 8.1015C10.0792 8.82724 8.22486 8.52531 6.55932 6.76545C5.75334 5.91383 5.45165 5.67373 4.91074 5.61664C4.90064 5.61557 4.89056 5.6143 4.88051 5.61283C4.54258 5.56322 3.86155 5.60633 3.09474 5.97939C1.93058 7.69747 1.25 9.77096 1.25 12.0026C1.25 17.8522 5.92204 22.6105 11.7381 22.7495C11.6633 22.694 11.5963 22.6419 11.5377 22.5943C10.925 22.1352 10.5804 21.5623 10.5448 20.8993C10.5115 20.2809 10.7568 19.711 11.0246 19.2505C11.4151 18.579 11.5337 18.3619 11.5951 18.1156C11.6603 17.8541 11.6657 17.5401 11.6657 16.6472C11.6657 16.1549 11.7376 15.6587 11.958 15.2152C12.1872 14.754 12.554 14.3971 13.0535 14.1662C13.988 13.7344 15.3453 13.7643 17.1462 14.1245C17.353 14.1658 17.5705 14.1346 17.8568 14.0168C18.0947 13.919 18.322 13.7888 18.6019 13.6284C18.6893 13.5784 18.7818 13.5254 18.8813 13.4696C19.6649 13.0299 20.736 12.5071 22.105 12.9882C22.1378 12.9997 22.1696 13.0135 22.2005 13.0294C22.3303 13.0964 22.4902 13.1953 22.6692 13.3264C22.7226 12.8924 22.75 12.4506 22.75 12.0026C22.75 6.88357 19.1726 2.60158 14.3818 1.51758Z"
        fill="#26272C" />
    <path
        d="M11.9513 1.25195C12.7213 1.68974 13.0826 2.21084 13.1775 2.45218C13.1888 2.48079 13.2018 2.50867 13.2164 2.53569C13.3951 2.8647 13.4248 3.18164 13.3609 3.41707C13.3025 3.63208 13.1527 3.83802 12.8254 3.96768C12.2787 4.1843 11.8889 4.47952 11.6324 4.86687C11.3873 5.23693 11.3135 5.62366 11.2665 5.8812L11.2594 5.92038C11.211 6.18666 11.1877 6.3145 11.1279 6.43516C11.084 6.52383 11.001 6.64293 10.7521 6.77442C10.1265 7.10492 8.98199 7.14244 7.64865 5.73359C6.87835 4.91967 6.23126 4.25203 5.08288 4.12573C4.97057 4.10991 4.84734 4.0998 4.71484 4.09666C6.61862 2.34146 9.15988 1.26433 11.9513 1.25195Z"
        fill="#26272C" />
    <path
        d="M22.3246 15.0061C22.0025 14.6824 21.717 14.4771 21.5556 14.3848C20.8664 14.1623 20.3209 14.3811 19.6156 14.7768C19.5477 14.8149 19.476 14.8561 19.4013 14.899C19.107 15.0681 18.7654 15.2643 18.4276 15.4032C17.9783 15.588 17.4478 15.7135 16.8523 15.5944C15.0817 15.2403 14.1473 15.3124 13.683 15.527C13.4831 15.6193 13.3737 15.7367 13.3015 15.8819C13.2206 16.0447 13.166 16.287 13.166 16.6463V16.7465C13.1662 17.5013 13.1663 18.0141 13.0509 18.4775C12.9318 18.9551 12.695 19.3619 12.3659 19.9275L12.3215 20.0036C12.1062 20.3739 12.033 20.6348 12.0429 20.8179C12.0501 20.9511 12.1048 21.1465 12.4459 21.3993C12.4557 21.4065 12.4652 21.414 12.4746 21.4217C12.8019 21.6898 13.4895 22.1474 14.3179 22.5013C18.1628 21.6565 21.2358 18.7536 22.3246 15.0061Z"
        fill="#26272C" />
</svg>