<svg xmlns="http://www.w3.org/2000/svg" width="154" height="32" viewBox="0 0 154 32" fill="none">
    <rect width="32" height="32" rx="10" fill="#57BF94" />
    <path fill-rule="evenodd" clip-rule="evenodd"
        d="M12.0801 19.7297C14.14 19.7297 15.8098 18.0599 15.8098 16C15.8098 13.9401 14.14 12.2703 12.0801 12.2703C10.0202 12.2703 8.35035 13.9401 8.35035 16C8.35035 18.0599 10.0202 19.7297 12.0801 19.7297ZM12.0801 22C15.3938 22 18.0801 19.3137 18.0801 16C18.0801 12.6863 15.3938 10 12.0801 10C8.76637 10 6.08008 12.6863 6.08008 16C6.08008 19.3137 8.76637 22 12.0801 22Z"
        fill="#F9FFFC" />
    <path fill-rule="evenodd" clip-rule="evenodd"
        d="M19.8226 15.8584C19.8226 13.6132 18.8737 11.7235 17.562 10.7009L18.888 9C20.7909 10.4835 21.9793 13.0384 21.9793 15.8584C21.9793 18.862 20.6289 21.5741 18.4964 23L17.2976 21.2071C18.7417 20.2416 19.8226 18.2573 19.8226 15.8584Z"
        fill="#F9FFFC" />
    <path fill-rule="evenodd" clip-rule="evenodd"
        d="M23.8575 16C23.8575 12.0654 22.3214 9.00919 20.5377 7.92355L21.7085 6C24.4354 7.65973 26.1093 11.6612 26.1093 16C26.1093 20.3388 24.4354 24.3403 21.7085 26L20.5377 24.0765C22.3214 22.9908 23.8575 19.9346 23.8575 16Z"
        fill="#F9FFFC" />
    <path
        d="M41.16 27V5.91H45.24V27H41.16ZM44.16 27V23.4H55.83V27H44.16ZM44.16 17.97V14.49H54.78V17.97H44.16ZM44.16 9.51V5.91H55.68V9.51H44.16ZM65.4511 27.3C63.9711 27.3 62.6411 26.97 61.4611 26.31C60.2811 25.65 59.3511 24.75 58.6711 23.61C57.9911 22.47 57.6511 21.19 57.6511 19.77C57.6511 18.33 57.9911 17.04 58.6711 15.9C59.3511 14.76 60.2811 13.86 61.4611 13.2C62.6611 12.52 63.9911 12.18 65.4511 12.18C66.5911 12.18 67.6411 12.39 68.6011 12.81C69.5611 13.23 70.3911 13.83 71.0911 14.61L68.5711 17.16C68.1911 16.74 67.7311 16.42 67.1911 16.2C66.6711 15.98 66.0911 15.87 65.4511 15.87C64.7311 15.87 64.0811 16.04 63.5011 16.38C62.9411 16.7 62.4911 17.15 62.1511 17.73C61.8311 18.29 61.6711 18.96 61.6711 19.74C61.6711 20.5 61.8311 21.18 62.1511 21.78C62.4911 22.36 62.9411 22.82 63.5011 23.16C64.0811 23.48 64.7311 23.64 65.4511 23.64C66.1111 23.64 66.7011 23.53 67.2211 23.31C67.7611 23.07 68.2211 22.73 68.6011 22.29L71.1511 24.84C70.4111 25.64 69.5611 26.25 68.6011 26.67C67.6411 27.09 66.5911 27.3 65.4511 27.3ZM83.1267 27V18.69C83.1267 17.83 82.8567 17.13 82.3167 16.59C81.7767 16.05 81.0767 15.78 80.2167 15.78C79.6567 15.78 79.1567 15.9 78.7167 16.14C78.2767 16.38 77.9267 16.72 77.6667 17.16C77.4267 17.6 77.3067 18.11 77.3067 18.69L75.7767 17.91C75.7767 16.77 76.0167 15.78 76.4967 14.94C76.9767 14.08 77.6367 13.41 78.4767 12.93C79.3367 12.45 80.3167 12.21 81.4167 12.21C82.5167 12.21 83.4867 12.45 84.3267 12.93C85.1867 13.41 85.8567 14.07 86.3367 14.91C86.8167 15.75 87.0567 16.72 87.0567 17.82V27H83.1267ZM73.3767 27V5.31H77.3067V27H73.3767ZM97.0324 27.3C95.5724 27.3 94.2524 26.97 93.0724 26.31C91.9124 25.63 90.9824 24.72 90.2824 23.58C89.6024 22.42 89.2624 21.13 89.2624 19.71C89.2624 18.29 89.6024 17.02 90.2824 15.9C90.9624 14.76 91.8924 13.86 93.0724 13.2C94.2524 12.52 95.5624 12.18 97.0024 12.18C98.4824 12.18 99.8024 12.52 100.962 13.2C102.142 13.86 103.072 14.76 103.752 15.9C104.432 17.02 104.772 18.29 104.772 19.71C104.772 21.13 104.432 22.42 103.752 23.58C103.072 24.72 102.142 25.63 100.962 26.31C99.8024 26.97 98.4924 27.3 97.0324 27.3ZM97.0024 23.64C97.7424 23.64 98.3924 23.48 98.9524 23.16C99.5324 22.82 99.9724 22.36 100.272 21.78C100.592 21.18 100.752 20.5 100.752 19.74C100.752 18.98 100.592 18.31 100.272 17.73C99.9524 17.15 99.5124 16.7 98.9524 16.38C98.3924 16.04 97.7424 15.87 97.0024 15.87C96.2824 15.87 95.6424 16.04 95.0824 16.38C94.5224 16.7 94.0824 17.15 93.7624 17.73C93.4424 18.31 93.2824 18.98 93.2824 19.74C93.2824 20.5 93.4424 21.18 93.7624 21.78C94.0824 22.36 94.5224 22.82 95.0824 23.16C95.6424 23.48 96.2824 23.64 97.0024 23.64ZM107.303 27V5.31H111.233V27H107.303ZM114.715 27V12.51H118.675V27H114.715ZM116.695 10.17C116.055 10.17 115.525 9.96 115.105 9.54C114.685 9.1 114.475 8.56 114.475 7.92C114.475 7.3 114.685 6.77 115.105 6.33C115.525 5.89 116.055 5.67 116.695 5.67C117.355 5.67 117.885 5.89 118.285 6.33C118.705 6.77 118.915 7.3 118.915 7.92C118.915 8.56 118.705 9.1 118.285 9.54C117.885 9.96 117.355 10.17 116.695 10.17ZM131.906 27V18.69C131.906 17.83 131.636 17.13 131.096 16.59C130.556 16.05 129.856 15.78 128.996 15.78C128.436 15.78 127.936 15.9 127.496 16.14C127.056 16.38 126.706 16.72 126.446 17.16C126.206 17.6 126.086 18.11 126.086 18.69L124.556 17.91C124.556 16.77 124.796 15.78 125.276 14.94C125.776 14.08 126.456 13.41 127.316 12.93C128.196 12.45 129.186 12.21 130.286 12.21C131.346 12.21 132.296 12.48 133.136 13.02C133.976 13.54 134.636 14.23 135.116 15.09C135.596 15.93 135.836 16.84 135.836 17.82V27H131.906ZM122.156 27V12.51H126.086V27H122.156ZM148.242 27L142.632 19.53L148.212 12.51H152.742L146.202 20.43L146.352 18.51L153.042 27H148.242ZM139.002 27V5.31H142.932V27H139.002Z"
        fill="#ffffff" />
</svg>