<svg width="24" height="25" viewBox="0 0 24 25" fill="none" xmlns="http://www.w3.org/2000/svg">
<g opacity="0.4">
<path d="M6.04943 2.74024C6.71427 2.74021 7.28712 2.74018 7.74585 2.80185C8.23749 2.86795 8.70875 3.01701 9.091 3.39925C9.47324 3.7815 9.6223 4.25276 9.6884 4.7444C9.75008 5.20315 9.75004 5.87475 9.75001 6.53961C9.75004 7.20448 9.75008 7.77734 9.6884 8.23609C9.6223 8.72773 9.47324 9.19899 9.091 9.58124C8.70875 9.96348 8.23749 10.1125 7.74585 10.1786C7.2871 10.2403 6.6155 10.2403 5.95064 10.2402C5.28577 10.2403 4.71291 10.2403 4.25416 10.1786C3.76252 10.1125 3.29126 9.96348 2.90902 9.58124C2.52677 9.19899 2.37771 8.72773 2.31161 8.23609C2.24994 7.77736 2.24997 7.20446 2.25 6.53962C2.24997 5.87475 2.24993 5.20315 2.31161 4.7444C2.37771 4.25276 2.52677 3.7815 2.90901 3.39925C3.29126 3.01701 3.76252 2.86795 4.25416 2.80185C4.71291 2.74017 5.38457 2.74021 6.04943 2.74024Z" fill="#2DB8E3"/>
<path d="M18.0494 2.74024C18.7143 2.74021 19.2871 2.74018 19.7458 2.80185C20.2375 2.86795 20.7087 3.01701 21.091 3.39925C21.4732 3.7815 21.6223 4.25276 21.6884 4.7444C21.7501 5.20315 21.75 5.87475 21.75 6.53961C21.75 7.20448 21.7501 7.77734 21.6884 8.23609C21.6223 8.72773 21.4732 9.19899 21.091 9.58124C20.7087 9.96348 20.2375 10.1125 19.7458 10.1786C19.2871 10.2403 18.6155 10.2403 17.9506 10.2402C17.2858 10.2403 16.7129 10.2403 16.2542 10.1786C15.7625 10.1125 15.2913 9.96348 14.909 9.58124C14.5268 9.19899 14.3777 8.72773 14.3116 8.23609C14.2499 7.77736 14.25 7.20446 14.25 6.53962C14.25 5.87475 14.2499 5.20315 14.3116 4.7444C14.3777 4.25276 14.5268 3.7815 14.909 3.39925C15.2913 3.01701 15.7625 2.86795 16.2542 2.80185C16.7129 2.74017 17.3846 2.74021 18.0494 2.74024Z" fill="#2DB8E3"/>
<path d="M18.0494 14.7402C18.7143 14.7402 19.2871 14.7401 19.7458 14.8018C20.2375 14.8679 20.7087 15.017 21.091 15.3992C21.4732 15.7815 21.6223 16.2527 21.6884 16.7444C21.7501 17.2031 21.75 17.8747 21.75 18.5396C21.75 19.2044 21.7501 19.7773 21.6884 20.236C21.6223 20.7277 21.4732 21.1989 21.091 21.5812C20.7087 21.9634 20.2375 22.1125 19.7458 22.1786C19.2871 22.2403 18.6155 22.2402 17.9506 22.2402C17.2858 22.2402 16.7129 22.2403 16.2542 22.1786C15.7625 22.1125 15.2913 21.9634 14.909 21.5812C14.5268 21.1989 14.3777 20.7277 14.3116 20.236C14.2499 19.7773 14.25 19.2044 14.25 18.5396C14.25 17.8747 14.2499 17.2031 14.3116 16.7444C14.3777 16.2527 14.5268 15.7815 14.909 15.3992C15.2913 15.017 15.7625 14.8679 16.2542 14.8018C16.7129 14.7401 17.3846 14.7402 18.0494 14.7402Z" fill="#2DB8E3"/>
<path d="M6.04943 14.7402C6.71427 14.7402 7.28712 14.7401 7.74585 14.8018C8.23749 14.8679 8.70875 15.017 9.091 15.3992C9.47324 15.7815 9.6223 16.2527 9.6884 16.7444C9.75008 17.2031 9.75004 17.776 9.75001 18.4408V18.5396C9.75004 19.2044 9.75008 19.7773 9.6884 20.236C9.6223 20.7277 9.47324 21.1989 9.091 21.5812C8.70875 21.9634 8.23749 22.1125 7.74585 22.1786C7.2871 22.2403 6.71424 22.2402 6.04937 22.2402C5.38451 22.2402 4.71291 22.2403 4.25416 22.1786C3.76252 22.1125 3.29126 21.9634 2.90902 21.5812C2.52677 21.1989 2.37771 20.7277 2.31161 20.236C2.24994 19.7773 2.24997 19.2044 2.25 18.5396C2.24997 17.8747 2.24993 17.2031 2.31161 16.7444C2.37771 16.2527 2.52677 15.7815 2.90901 15.3992C3.29126 15.017 3.76252 14.8679 4.25416 14.8018C4.71291 14.7401 5.38457 14.7402 6.04943 14.7402Z" fill="#2DB8E3"/>
</g>
<path d="M9.74155 7.49023H11.9999C12.5522 7.49023 12.9999 7.04251 12.9999 6.49023C12.9999 5.93795 12.5522 5.49023 11.9999 5.49023H9.74023C9.74996 5.81887 9.74994 6.18022 9.74992 6.5396C9.74994 6.88187 9.74995 7.19975 9.74155 7.49023Z" fill="#2DB8E3"/>
<path d="M17 10.2318V12.4901C17 13.0424 17.4477 13.4901 18 13.4901C18.5523 13.4901 19 13.0424 19 12.4901V10.2305C18.6714 10.2402 18.31 10.2402 17.9506 10.2402C17.6084 10.2402 17.2905 10.2402 17 10.2318Z" fill="#2DB8E3"/>
<path d="M14.2597 17.4902C14.25 17.8188 14.25 18.1802 14.25 18.5396C14.25 18.8818 14.25 19.1997 14.2584 19.4902H12C11.4477 19.4902 11 19.0425 11 18.4902C11 17.9379 11.4477 17.4902 12 17.4902H14.2597Z" fill="#2DB8E3"/>
<path d="M7 14.7486C6.70953 14.7402 6.39167 14.7402 6.04943 14.7402C5.69004 14.7402 5.32866 14.7402 5 14.7499V12.4902C5 11.9379 5.44772 11.4902 6 11.4902C6.55228 11.4902 7 11.9379 7 12.4902V14.7486Z" fill="#2DB8E3"/>
</svg>
