<svg width="22" height="22" viewBox="0 0 22 22" fill="none" xmlns="http://www.w3.org/2000/svg">
    <path fill-rule="evenodd" clip-rule="evenodd"
        d="M11.0014 4.01129C10.4664 4.01129 9.94648 4.07124 9.44758 4.18446C8.97706 4.29122 8.5091 3.99635 8.40234 3.52584C8.29558 3.05534 8.59044 2.58737 9.06095 2.48061C9.6859 2.33881 10.3355 2.26413 11.0014 2.26413C15.826 2.26413 19.7372 6.17528 19.7372 10.9999C19.7372 13.1681 18.9469 15.1517 17.6401 16.6782H18.4268C18.9093 16.6782 19.3004 17.0693 19.3004 17.5518C19.3004 18.0342 18.9093 18.4253 18.4268 18.4253H15.349C14.8665 18.4253 14.4754 18.0342 14.4754 17.5518V14.4942C14.4754 14.0118 14.8665 13.6207 15.349 13.6207C15.8314 13.6207 16.2225 14.0118 16.2225 14.4942V15.6457C17.3227 14.4104 17.9901 12.783 17.9901 10.9999C17.9901 7.1402 14.8612 4.01129 11.0014 4.01129ZM2.70241 4.46166C2.70241 3.97919 3.09353 3.58808 3.57599 3.58808H6.63352C7.11598 3.58808 7.5071 3.97919 7.5071 4.46166V7.50561C7.5071 7.98807 7.11598 8.37918 6.63352 8.37918C6.15106 8.37918 5.75994 7.98807 5.75994 7.50561V6.37708C4.67191 7.60962 4.01278 9.22789 4.01278 10.9999C4.01278 14.8597 7.1417 17.9886 11.0014 17.9886C11.5364 17.9886 12.0564 17.9286 12.5553 17.8154C13.0258 17.7087 13.4937 18.0035 13.6005 18.474C13.7072 18.9445 13.4124 19.4125 12.9419 19.5192C12.3169 19.661 11.6673 19.7357 11.0014 19.7357C6.17677 19.7357 2.26562 15.8245 2.26562 10.9999C2.26562 8.8381 3.05126 6.85995 4.35112 5.33524H3.57599C3.09353 5.33524 2.70241 4.94412 2.70241 4.46166Z"
        fill="#030115" />
</svg>
    