<svg width="18" height="18" viewBox="0 0 18 18" fill="none" xmlns="http://www.w3.org/2000/svg">
    <path d="M8.32515 2.25C5.58793 2.25493 4.15456 2.32213 3.23854 3.23816C2.25 4.22669 2.25 5.81773 2.25 8.99977C2.25 12.1819 2.25 13.7729 3.23854 14.7614C4.22708 15.75 5.81813 15.75 9.00023 15.75C12.1823 15.75 13.7733 15.75 14.7619 14.7614C15.6779 13.8455 15.7451 12.4121 15.75 9.67485" stroke="#2DB8E3" stroke-width="1.125" stroke-linecap="round" stroke-linejoin="round"/>
    <path opacity="0.4" d="M15.4159 2.58311L11.2539 6.7336M15.4159 2.58311C15.0454 2.21223 12.5497 2.2468 12.0221 2.2543M15.4159 2.58311C15.7863 2.95399 15.7518 5.45244 15.7443 5.98063" stroke="#2DB8E3" stroke-width="1.125" stroke-linecap="round" stroke-linejoin="round"/>
    </svg>
    