<svg width="24" height="25" viewBox="0 0 24 25" fill="none" xmlns="http://www.w3.org/2000/svg">
	<path
		opacity="0.3"
		d="M12 1.74023C6.09523 1.74023 1.25 6.32861 1.25 12.0569C1.25 14.8046 2.36972 17.2967 4.18451 19.1396C4.45227 19.4115 4.53937 19.6902 4.50088 19.8954C4.35863 20.6415 4.03697 21.3347 3.56917 21.9101C3.40224 22.1154 3.35586 22.3935 3.44713 22.6419C3.5384 22.8902 3.75381 23.0721 4.01396 23.1205C5.62504 23.4202 7.29542 23.1502 8.72714 22.3888C8.96068 22.2646 9.11322 22.1837 9.22775 22.1293C9.25931 22.1121 9.34334 22.0809 9.42696 22.0938C9.53909 22.1091 9.68979 22.1372 9.92698 22.1818C10.6103 22.3101 11.3041 22.3745 12 22.3736C17.9048 22.3736 22.75 17.7852 22.75 12.0569C22.75 6.32861 17.9048 1.74023 12 1.74023Z"
		fill="#2DB8E3"
	/>
	<path
		fill-rule="evenodd"
		clip-rule="evenodd"
		d="M12 8.99023C11.3228 8.99023 11 9.44686 11 9.74847C11 10.3008 10.5523 10.7484 10 10.7484C9.44772 10.7484 9 10.3008 9 9.74847C9 8.10798 10.4681 6.99023 12 6.99023C13.5319 6.99023 15 8.10798 15 9.74847C15 10.3265 14.8065 10.8569 14.4901 11.2892C14.3051 11.5419 14.092 11.7791 13.9056 11.9827C13.8704 12.0212 13.8361 12.0585 13.8027 12.0948C13.6484 12.2628 13.5131 12.41 13.3878 12.5614C13.0666 12.9495 13 13.1514 13 13.2649V13.7045C13 14.2568 12.5523 14.7045 12 14.7045C11.4477 14.7045 11 14.2568 11 13.7045V13.2649C11 12.4074 11.4761 11.7345 11.847 11.2862C12.0087 11.0909 12.1863 10.8978 12.3414 10.7292C12.372 10.6959 12.4017 10.6636 12.4303 10.6324C12.6156 10.43 12.7622 10.2636 12.8762 10.108C12.9608 9.99234 13 9.8705 13 9.74847C13 9.44686 12.6772 8.99023 12 8.99023ZM11 16.9902C11 16.4379 11.4477 15.9902 12 15.9902H12.012C12.5643 15.9902 13.012 16.4379 13.012 16.9902C13.012 17.5425 12.5643 17.9902 12.012 17.9902H12C11.4477 17.9902 11 17.5425 11 16.9902Z"
		fill="#2DB8E3"
	/>
</svg>
