<svg width="32" height="33" viewBox="0 0 32 33" fill="none" xmlns="http://www.w3.org/2000/svg">
<path d="M26.6673 19.832V9.16536C26.6673 6.6512 26.6673 5.39412 25.8863 4.61308C25.1052 3.83203 23.8481 3.83203 21.334 3.83203H10.6673C8.15316 3.83203 6.89608 3.83203 6.11504 4.61308C5.33398 5.39412 5.33398 6.6512 5.33398 9.16536V19.832" stroke="white" stroke-width="2" stroke-linecap="round" stroke-linejoin="round"/>
<path d="M4.66284 21.1859L5.35872 19.832H26.6017L27.3357 21.1859C29.2596 24.7347 29.7388 26.509 29.0075 27.8372C28.2763 29.1654 26.3375 29.1654 22.4599 29.1654H9.53884C5.66124 29.1654 3.72243 29.1654 2.99117 27.8372C2.25992 26.509 2.739 24.7347 4.66284 21.1859Z" stroke="white" stroke-width="2" stroke-linecap="round" stroke-linejoin="round"/>
<path d="M20.666 9.83203L21.8926 10.8892C22.4082 11.3337 22.666 11.5559 22.666 11.832C22.666 12.1082 22.4082 12.3304 21.8926 12.7748L20.666 13.832" stroke="white" stroke-width="2" stroke-linecap="round" stroke-linejoin="round"/>
<path d="M11.334 9.83203L10.1074 10.8892C9.59181 11.3337 9.33398 11.5559 9.33398 11.832C9.33398 12.1082 9.5918 12.3304 10.1074 12.7748L11.334 13.832" stroke="white" stroke-width="2" stroke-linecap="round" stroke-linejoin="round"/>
<path d="M17.3327 8.5L14.666 15.1667" stroke="white" stroke-width="2" stroke-linecap="round" stroke-linejoin="round"/>
</svg>
