<svg xmlns="http://www.w3.org/2000/svg" width="240" height="68" viewBox="0 0 240 68" fill="none">
    <path fill-rule="evenodd" clip-rule="evenodd"
        d="M10.9092 16.7416C11.0255 16.7416 11.3892 17.0471 11.7092 17.4107C12.0437 17.7889 12.611 18.2252 13.0182 18.4289C13.4255 18.6034 13.8764 18.7634 14.0364 18.7489C14.1964 18.7489 14.4146 18.8507 14.5164 18.9816C14.6619 19.1707 14.4728 19.418 13.2219 20.698C12.4073 21.5125 11.3019 22.778 10.7637 23.4907C10.2255 24.2034 9.46915 25.3234 9.09097 25.9634C8.69824 26.6034 8.32006 27.3161 8.24733 27.5634C8.16006 27.8107 7.98552 28.1889 7.84006 28.4361C7.70915 28.6834 7.38915 29.5852 7.15643 30.4725C6.90915 31.3598 6.64733 32.6252 6.56006 33.3089C6.47279 33.9925 6.40006 35.0107 6.40006 35.5634C6.40006 36.1307 6.47279 37.178 6.56006 37.8907C6.64733 38.6034 6.89461 39.8252 7.12733 40.5816C7.34552 41.338 7.79643 42.5161 8.13097 43.1998C8.46552 43.8834 8.93097 44.7707 9.17824 45.1634C9.42552 45.5707 9.93461 46.2543 10.3128 46.6907C10.6764 47.1271 11.3892 47.8834 11.8692 48.3634C12.3637 48.8434 13.3092 49.6143 13.9782 50.0652C14.6473 50.5161 15.7528 51.1561 16.4364 51.4761C17.1201 51.8107 17.7455 52.0725 17.8182 52.0725C17.891 52.0725 18.2546 52.1889 18.6182 52.3489C18.9819 52.5089 20.0146 52.7416 20.9164 52.858C21.8037 52.9889 23.1564 53.0907 23.8837 53.0907C24.6255 53.0907 25.9201 52.9889 26.7637 52.8725C27.6655 52.7561 28.8582 52.4652 29.6728 52.1743C30.4292 51.898 31.4182 51.4907 31.8546 51.258C32.291 51.0398 33.1201 50.5452 33.6728 50.1816C34.2255 49.8034 35.0837 49.1343 35.5492 48.7125C36.0292 48.2761 36.6546 47.6798 36.931 47.3598C37.2219 47.0543 37.7746 46.3707 38.1528 45.8325C38.5455 45.3089 39.2001 44.1598 39.6364 43.2725C40.1164 42.2689 40.5964 40.9889 40.8873 39.8543C41.3528 38.1234 41.3673 37.9198 41.3673 35.5634C41.3528 33.2652 41.3237 32.9598 40.9019 31.3452C40.6546 30.3852 40.2473 29.1489 40.0292 28.5816C39.7964 28.0289 39.3892 27.1707 39.1273 26.6907C38.8655 26.2107 38.4146 25.4543 38.1382 25.018C37.8473 24.5816 37.3237 23.8252 36.9601 23.3452C36.5964 22.8652 35.5782 21.7307 34.691 20.8434C33.2655 19.3743 33.1201 19.1707 33.3092 18.9816C33.4255 18.8507 33.6582 18.7489 33.8182 18.7489C33.9782 18.7634 34.4437 18.6034 34.8364 18.4289C35.2582 18.2252 35.811 17.8034 36.1455 17.4107C36.4655 17.0325 36.8146 16.7271 36.9164 16.7271C37.0037 16.7271 37.3382 16.9016 37.6437 17.1198C37.9346 17.338 38.8073 18.0507 39.5637 18.7052C40.3201 19.3598 41.2801 20.2761 41.6873 20.7416C42.0946 21.2216 42.6619 21.8907 42.9382 22.2543C43.2146 22.618 43.5201 23.0543 43.6073 23.2434C43.7673 23.5343 43.7092 23.6361 43.0255 24.3343C42.6037 24.7561 42.1237 25.3671 41.9637 25.6871C41.7455 26.1234 41.6873 26.5452 41.6873 27.4907C41.6873 28.4071 41.7455 28.858 41.9492 29.2361C42.0946 29.5125 42.3564 29.9489 42.531 30.1816C42.7201 30.4289 43.2437 30.8507 43.7237 31.1271C44.4946 31.5634 44.7128 31.6216 45.8182 31.6652C46.8073 31.6943 47.0837 31.7525 47.2292 31.9561C47.331 32.1016 47.4619 32.7707 47.5201 33.4543C47.5928 34.138 47.6219 35.738 47.6073 37.018C47.6073 38.298 47.5201 39.7671 47.4328 40.2907C47.331 40.9016 47.1855 41.2943 47.0255 41.4107C46.8801 41.5125 46.5746 41.5561 46.3273 41.498C46.0946 41.4543 45.5273 41.4689 45.091 41.5125C44.5576 41.5707 44.0437 41.7598 43.5492 42.0798C43.1419 42.3271 42.6037 42.8361 42.3564 43.1998C42.1092 43.5634 41.8328 44.1889 41.7455 44.5816C41.6582 44.9889 41.6146 45.7016 41.6582 46.1816C41.7164 46.7634 41.8764 47.2725 42.1528 47.7089C42.371 48.0725 42.8364 48.5961 43.171 48.8725C43.5201 49.1489 43.7964 49.4398 43.7964 49.5271C43.7964 49.6143 43.3164 50.298 42.7346 51.0543C42.1528 51.8107 41.1782 52.9016 40.5819 53.498C39.9855 54.0943 38.9819 54.9525 38.371 55.4325C37.7455 55.898 37.1201 56.2907 36.9892 56.2907C36.8437 56.3052 36.451 55.9998 36.1164 55.6361C35.7673 55.2725 35.1273 54.8071 34.6619 54.6034C34.0801 54.3271 33.571 54.2107 33.0182 54.2107C32.4655 54.2107 31.9564 54.3271 31.3455 54.5889C30.8655 54.8071 30.2692 55.1998 30.0073 55.4471C29.7455 55.7089 29.3673 56.3198 29.1492 56.7998C28.8146 57.5271 28.7564 57.8471 28.8001 59.7816L28.2619 59.9125C27.9564 59.9852 27.2437 60.1307 26.691 60.218C26.0655 60.3198 24.7855 60.3634 23.4182 60.3198C22.1819 60.2761 20.7419 60.1743 20.2182 60.0871C19.6946 59.9998 19.2146 59.8543 19.1273 59.7671C19.0401 59.6943 18.9819 59.1125 18.9673 58.5016C18.9673 57.6725 18.8801 57.1925 18.6328 56.6543C18.4582 56.2616 18.1092 55.7089 17.8473 55.4471C17.5855 55.1998 16.9892 54.8071 16.5092 54.6034C15.8692 54.3125 15.4037 54.2252 14.7637 54.2252C14.0946 54.2398 13.6728 54.3416 12.9892 54.6761C12.4364 54.9525 11.8837 55.3598 11.6073 55.7089C11.3455 56.0289 11.011 56.2907 10.8801 56.2907C10.7346 56.2907 10.4001 56.1452 10.1528 55.9707C9.89097 55.7816 9.20733 55.258 8.65461 54.778C8.10188 54.298 7.21461 53.4834 6.72006 52.9598C6.21097 52.4361 5.39643 51.4761 4.93097 50.8361C4.45097 50.1961 4.05824 49.6143 4.05824 49.5271C4.07279 49.4398 4.34915 49.1489 4.6837 48.858C5.03279 48.5671 5.49824 47.9852 5.74552 47.5489C6.1237 46.8652 6.18188 46.618 6.16733 45.5998C6.16733 44.7416 6.09461 44.2907 5.89097 43.8543C5.73097 43.5489 5.30915 42.9961 4.94552 42.6471C4.58188 42.2834 4.10188 41.8907 3.85461 41.7743C3.57824 41.6289 2.9237 41.5271 2.03642 41.498C1.28006 41.4834 0.640061 41.4398 0.625515 41.4252C0.61097 41.3961 0.509152 40.9889 0.407334 40.5089C0.305515 39.9852 0.232788 38.4289 0.232788 36.5816C0.232788 34.6761 0.29097 33.1925 0.407334 32.6543C0.509152 32.1743 0.61097 31.7671 0.625515 31.738C0.640061 31.7234 1.25097 31.6798 1.9637 31.6652C3.17097 31.6216 3.34552 31.578 4.14552 31.098C4.72733 30.7489 5.17824 30.3561 5.4837 29.8761C5.74552 29.4834 6.03642 28.7998 6.1237 28.3634C6.25461 27.7525 6.25461 27.3598 6.1237 26.6907C6.03642 26.2107 5.78915 25.5561 5.57097 25.2361C5.36733 24.9161 4.97461 24.4798 4.71279 24.2616C4.42188 24.0143 4.21824 23.7234 4.21824 23.5343C4.21824 23.3452 4.55279 22.7343 4.96006 22.1816C5.38188 21.6289 6.35643 20.538 7.11279 19.7816C7.8837 19.0107 9.0037 18.0216 9.60006 17.5707C10.1964 17.1052 10.7928 16.7416 10.9092 16.7416ZM11.0982 49.4107C11.5928 49.8616 12.4946 50.6034 13.091 51.0398C13.7019 51.4907 14.7782 52.1452 15.491 52.4798C16.2182 52.8289 16.9892 53.2216 17.2364 53.338C17.4837 53.4543 18.4873 53.7598 19.491 54.0071C21.2073 54.4434 21.4546 54.4725 23.9273 54.4725C26.3855 54.458 26.6473 54.4434 28.291 54.0071C29.251 53.7598 30.5019 53.3525 31.0546 53.1198C31.6073 52.8871 32.4655 52.4652 32.9455 52.1889C33.4255 51.9125 34.1819 51.4325 34.6328 51.1125C35.0837 50.8071 35.7382 50.298 36.0873 50.0071C36.4364 49.7016 36.6982 49.4252 36.6546 49.3961C36.611 49.3525 36.0873 49.7016 35.491 50.1671C34.8946 50.618 34.0073 51.2289 33.5273 51.5198C33.0473 51.7961 32.291 52.218 31.8546 52.4361C31.4182 52.6543 30.4001 53.0471 29.6001 53.3089C28.8001 53.5707 27.7237 53.8761 27.2001 53.978C26.6764 54.0798 25.2073 54.1525 23.9273 54.1525C22.6473 54.1525 21.1782 54.0798 20.6546 53.978C20.131 53.8761 18.9964 53.5561 18.1092 53.2507C17.2364 52.9452 16.0437 52.4507 15.491 52.1598C14.9382 51.8689 14.2401 51.4761 13.9637 51.3016C13.6728 51.1271 13.1782 50.7925 12.8728 50.5452C12.5528 50.3125 11.8255 49.7016 11.2582 49.1925C10.691 48.6834 10.2255 48.3343 10.211 48.4216C10.1964 48.5089 10.5892 48.9598 11.0982 49.4107ZM218.196 26.0361C219.956 26.0361 221.498 26.0943 221.644 26.1671C221.775 26.2398 222.836 27.6216 224 29.2216C225.164 30.8216 226.138 32.1452 226.182 32.1452C226.226 32.1452 227.069 31.0252 228.073 29.6434C229.062 28.2616 230.109 26.8798 230.909 26.0216L234.007 26.0361C236.553 26.0361 237.135 26.0798 237.309 26.2543C237.426 26.3707 237.571 26.618 237.615 26.7925C237.658 26.9816 237.615 27.2871 237.513 27.4907C237.411 27.6943 235.855 29.8761 234.066 32.3634C232.262 34.8507 230.778 36.9307 230.749 37.018C230.72 37.1052 232.436 39.4907 234.546 42.3271C236.669 45.1634 238.4 47.5925 238.4 47.7089C238.4 47.8252 238.24 48.1016 237.673 48.7271H231.055L230.604 48.2616C230.356 47.9998 229.498 46.8943 228.698 45.818C227.913 44.7416 226.982 43.4761 226.036 42.1816L223.68 45.3525C222.371 47.0834 221.193 48.5671 221.062 48.6252C220.916 48.6834 219.375 48.7271 217.644 48.7271C214.778 48.7416 214.444 48.7125 214.24 48.4798C214.109 48.3343 213.964 48.1016 213.92 47.9561C213.862 47.8252 213.876 47.5634 213.949 47.3743C214.007 47.1998 215.68 44.8434 217.658 42.138C219.622 39.4471 221.236 37.178 221.236 37.0907C221.236 37.0034 219.724 34.8071 217.891 32.1743C215.52 28.8143 214.531 27.2871 214.516 26.9961C214.502 26.7489 214.604 26.458 214.764 26.298C214.996 26.0652 215.316 26.0361 218.196 26.0361Z"
        fill="white" />
    <path
        d="M24.0728 0.727051C24.1892 0.727051 24.3346 0.828869 24.4074 0.959778C24.4752 1.10523 24.388 1.29432 24.1455 1.52705C23.9419 1.73069 23.7092 1.83251 23.6074 1.77432C23.491 1.7016 23.491 1.55614 23.6365 1.19251C23.7528 0.945233 23.9419 0.727051 24.0728 0.727051ZM29.0328 5.3816C29.1492 5.3816 29.251 5.43978 29.2801 5.51251C29.3092 5.59978 29.2074 6.05069 29.0619 6.53069C28.9165 7.02523 28.8001 7.69432 28.8001 8.02887C28.8001 8.37796 28.9601 9.10523 29.1492 9.67251C29.3237 10.2252 29.7892 11.2434 30.1819 11.9271C30.5601 12.6107 31.0983 13.5561 31.3601 14.0361C31.6365 14.5161 31.971 15.3016 32.131 15.7816C32.291 16.2616 32.451 16.9307 32.4946 17.2652C32.5528 17.7307 32.5237 17.9343 32.3637 18.0361C32.2037 18.1525 31.971 18.0507 31.4474 17.6143C31.0692 17.3089 30.1092 16.378 29.3092 15.5489C28.4946 14.7198 27.5783 13.6725 27.2583 13.2361C26.9383 12.7998 26.5601 12.1598 26.4292 11.8107C26.2983 11.4761 26.1819 10.8943 26.1819 10.5161C26.1819 10.1234 26.2837 9.49796 26.4146 9.09069C26.5601 8.69796 26.8946 7.99978 27.171 7.56341C27.4474 7.12705 27.9419 6.45796 28.2619 6.07978C28.5819 5.68705 28.931 5.3816 29.0328 5.3816ZM16.7128 12.7998C16.7565 12.7998 16.8728 12.858 16.9601 12.9161C17.0474 12.9743 17.1637 13.6434 17.2074 14.3998C17.2655 15.3743 17.411 16.1452 17.7165 17.018C17.9492 17.7016 18.4292 18.807 18.7783 19.4761C19.1274 20.1452 19.5055 20.8725 19.6219 21.0761C19.7383 21.2798 20.0292 21.7889 20.291 22.1816C20.5383 22.5889 21.1783 23.5925 21.7019 24.4361C22.211 25.2798 22.851 26.3125 23.0983 26.7343C23.3601 27.1416 23.5637 27.5198 23.5637 27.5634C23.5637 27.607 23.7819 28.1161 24.0583 28.698C24.3346 29.2652 24.6983 30.3998 24.8583 31.1998C25.0328 31.9998 25.1637 32.8725 25.1637 33.1343C25.1637 33.3816 25.091 33.9052 25.0037 34.298C24.9165 34.6761 24.7419 35.3161 24.6255 35.7089C24.4946 36.1161 24.1455 36.858 23.8401 37.3816C23.5346 37.9052 22.7783 38.8507 22.1528 39.4907C21.5274 40.1307 20.5674 41.047 20.0146 41.527C19.4619 42.007 18.7637 42.6616 18.4583 42.9816C18.1528 43.3016 17.731 43.7961 17.5274 44.0725C17.3237 44.3489 16.9601 45.0616 16.7274 45.6434C16.3783 46.487 16.291 46.8943 16.291 47.7525C16.3055 48.5234 16.2474 48.8434 16.0728 48.9889C15.9565 49.0761 15.7528 49.1343 15.6365 49.0907C15.5201 49.047 15.0401 48.7271 14.5892 48.378C14.1237 48.0289 13.2219 47.1998 12.5819 46.5307C11.9419 45.8616 11.1128 44.858 10.7492 44.2907C10.3855 43.7234 9.87646 42.8507 9.64373 42.327C9.39646 41.8034 9.00373 40.6689 8.74191 39.7816C8.42191 38.6325 8.26191 37.7307 8.20373 36.5816C8.16009 35.6943 8.18918 34.3561 8.26191 33.5998C8.34918 32.8434 8.62555 31.5052 8.87282 30.618C9.13464 29.7307 9.49827 28.698 9.70191 28.2907C9.90555 27.898 10.3419 27.098 10.6765 26.5161C10.9965 25.9489 11.3746 25.4543 11.5055 25.4252C11.6801 25.3961 11.7237 25.4834 11.6946 25.7452C11.6801 25.9489 11.5492 26.5743 11.4183 27.127C11.2728 27.767 11.2001 28.5816 11.2292 29.3234C11.2728 30.3561 11.331 30.5743 11.7092 31.1125C11.9565 31.447 12.2765 31.767 12.4365 31.8107C12.5965 31.8689 13.0619 31.898 13.4546 31.898C13.8619 31.898 14.4001 31.7816 14.6619 31.6507C14.9092 31.5198 15.4619 31.0689 15.8546 30.6616C16.3492 30.1477 16.7371 29.5513 17.0183 28.8725C17.251 28.3198 17.4983 27.3161 17.5855 26.6616C17.7019 25.8034 17.7019 25.1052 17.5855 24.247C17.4983 23.5925 17.1055 21.9052 16.6983 20.5089C16.0001 18.1525 15.9419 17.8471 15.9419 16.3634C15.9274 15.0252 15.9855 14.6034 16.2765 13.7743C16.4655 13.2361 16.6692 12.7998 16.7128 12.7998Z"
        fill="#FF6600" />
    <path fill-rule="evenodd" clip-rule="evenodd"
        d="M166.313 17.7454C169.411 17.7309 169.542 17.7454 169.818 18.0509C170.095 18.3418 170.109 18.589 170.182 27.9272L170.866 27.3745C171.258 27.0836 171.927 26.6472 172.364 26.4436C172.8 26.2254 173.556 25.949 174.036 25.8181C174.546 25.6872 175.549 25.5999 176.436 25.5999C177.498 25.5999 178.313 25.6872 179.127 25.8909C179.767 26.0654 180.684 26.4145 181.164 26.6763C181.644 26.9527 182.4 27.5345 182.836 27.9854C183.273 28.4363 183.884 29.2072 184.189 29.7163C184.495 30.2109 184.902 31.1272 185.091 31.7381C185.295 32.3636 185.527 33.3527 185.629 33.9199C185.731 34.5018 185.804 36.1599 185.789 37.5999C185.789 39.6654 185.716 40.5236 185.484 41.6727C185.266 42.6763 184.96 43.549 184.48 44.509C183.986 45.5272 183.564 46.1236 182.924 46.7636C182.429 47.2436 181.586 47.8836 181.018 48.1745C180.451 48.4799 179.535 48.8145 178.982 48.9309C178.415 49.0618 177.28 49.1636 176.436 49.1636C175.593 49.1636 174.502 49.0618 173.993 48.9454C173.498 48.829 172.713 48.5381 172.247 48.3054C171.796 48.0727 171.04 47.5927 169.746 46.5454V47.229C169.76 47.709 169.658 48.0581 169.164 48.7272H166.138C163.244 48.7418 163.113 48.7272 162.836 48.4218C162.546 48.1163 162.546 47.9127 162.546 33.2363C162.546 18.8363 162.56 18.3418 162.822 18.0509C163.084 17.7599 163.229 17.7454 166.313 17.7454ZM171.287 32.7418C170.967 33.0909 170.618 33.6145 170.502 33.8909C170.386 34.1672 170.24 35.0254 170.182 35.7818C170.124 36.5381 170.124 37.8181 170.196 38.6181C170.255 39.4327 170.429 40.4218 170.604 40.8727C170.793 41.4109 171.113 41.8763 171.549 42.2981C171.913 42.6327 172.466 42.9672 172.756 43.0545C173.062 43.1272 173.731 43.1999 174.255 43.1999C174.866 43.1999 175.404 43.0981 175.782 42.9236C176.102 42.7781 176.538 42.4727 176.756 42.2399C176.975 42.0072 177.28 41.5272 177.44 41.1636C177.6 40.7999 177.789 40.0872 177.876 39.5636C177.964 39.0399 178.036 38.0654 178.036 37.3818C178.036 36.6981 177.964 35.7236 177.876 35.1999C177.789 34.6763 177.6 33.9636 177.44 33.5999C177.28 33.2363 176.975 32.7563 176.756 32.5236C176.538 32.2909 176.102 31.9854 175.782 31.8399C175.375 31.6509 174.866 31.5636 174.109 31.5636C173.367 31.5636 172.829 31.6509 172.436 31.8399C172.116 31.9854 171.593 32.3927 171.287 32.7418ZM73.1637 17.949C75.0983 17.9927 76.3492 18.0799 77.091 18.2545C77.6874 18.3854 78.7637 18.7345 79.491 19.0109C80.2037 19.3018 81.1928 19.7672 81.6728 20.0581C82.1528 20.3345 83.0401 21.0472 83.6365 21.6145C84.2328 22.1963 84.9601 23.0399 85.2365 23.5054C85.5128 23.9709 85.891 24.7854 86.0656 25.309C86.2401 25.8327 86.4001 26.5018 86.4001 26.8072C86.4001 27.1563 86.2983 27.4472 86.1092 27.6363C85.8328 27.9127 85.6292 27.9272 78.2546 27.9272L77.9928 27.549C77.8619 27.3454 77.4546 26.7781 77.091 26.2836C76.5965 25.629 76.2037 25.2654 75.491 24.8872C74.5455 24.3636 74.531 24.3636 72.7274 24.3636C71.0837 24.3636 70.8365 24.3927 70.1092 24.7418C69.6728 24.9454 69.091 25.3381 68.8146 25.6145C68.5528 25.8909 68.1746 26.3999 68.0001 26.7636C67.8255 27.1272 67.5928 27.7818 67.4765 28.2181C67.331 28.8145 67.2728 30.1672 67.2874 33.4545C67.2874 36.5381 67.3455 38.1527 67.4765 38.7636C67.5783 39.2436 67.8692 40.0145 68.131 40.4945C68.3783 40.9599 68.8146 41.5272 69.091 41.7599C69.3674 41.9781 69.9201 42.3127 70.3274 42.5018C70.9674 42.7927 71.2874 42.8363 72.8001 42.8363C74.2983 42.8363 74.6619 42.7781 75.4183 42.4872C75.9855 42.2545 76.5383 41.8763 77.0328 41.3963C77.4983 40.9163 77.8619 40.3927 78.0219 39.9272C78.1674 39.5345 78.3274 38.6618 78.4728 36.7999H76.2474C75.0401 36.7999 73.9055 36.7418 73.7455 36.6545C73.5855 36.5672 73.3819 36.2909 73.3092 36.0436C73.2219 35.7818 73.1637 34.8799 73.1637 34.0363C73.1637 33.1927 73.2219 32.2909 73.3092 32.0436C73.3819 31.7818 73.5855 31.5054 73.7455 31.4181C73.9201 31.3309 76.3201 31.2727 85.9637 31.2727L86.2546 31.6799C86.531 32.0436 86.5601 32.2763 86.5455 35.1272C86.5455 37.0036 86.4583 38.7054 86.3419 39.5636C86.2255 40.3199 85.9346 41.3963 85.7165 41.9636C85.4837 42.5309 85.1201 43.3163 84.8874 43.709C84.6546 44.1163 83.9274 44.9599 83.2874 45.5999C82.6328 46.2399 81.7455 46.9818 81.3092 47.229C80.8728 47.4909 80.0437 47.8981 79.491 48.1163C78.9237 48.349 77.8474 48.6981 77.091 48.8872C75.8401 49.1927 75.4037 49.2363 72.5819 49.2218C69.6583 49.2218 69.3528 49.1927 68.0001 48.829C67.2001 48.6109 65.9492 48.1454 65.2365 47.7963C64.5092 47.4472 63.5346 46.8363 63.0546 46.4436C62.5746 46.0509 61.9346 45.4109 61.6292 45.0181C61.3237 44.6109 60.8583 43.8981 60.5819 43.4181C60.3201 42.9381 59.9419 42.0218 59.7383 41.3818C59.5346 40.7418 59.2874 39.7236 59.1855 39.1272C59.0546 38.3854 58.9965 36.5963 58.9965 33.4545C58.9965 30.6327 59.0692 28.509 59.171 27.9272C59.2728 27.4036 59.5201 26.429 59.7237 25.7454C59.9274 25.0618 60.3492 24.0872 60.6546 23.5636C60.9601 23.0399 61.5274 22.269 61.9056 21.8327C62.2983 21.3963 62.9383 20.7999 63.3455 20.509C63.7383 20.2181 64.5237 19.7381 65.091 19.4618C65.6437 19.1709 66.5601 18.8072 67.1274 18.6327C67.6801 18.4581 68.6401 18.2254 69.2365 18.109C70.0219 17.9636 71.1128 17.9199 73.1637 17.949ZM201.236 25.6581C203.578 25.7018 203.986 25.7454 205.164 26.0945C205.876 26.3127 206.938 26.7345 207.491 27.0254C208.16 27.3745 208.887 27.9418 209.6 28.6545C210.4 29.4399 210.851 30.0509 211.229 30.8363C211.535 31.4327 211.869 32.3199 212 32.7999C212.116 33.2799 212.291 34.2254 212.364 34.909C212.436 35.5927 212.509 36.6981 212.509 37.3818C212.509 38.0654 212.436 39.1709 212.364 39.8545C212.291 40.5381 212.116 41.4836 212 41.9636C211.869 42.4436 211.549 43.2872 211.287 43.8545C211.011 44.4218 210.531 45.2072 210.226 45.5999C209.92 46.0072 209.178 46.6763 208.582 47.0981C207.986 47.5199 206.982 48.0581 206.356 48.3054C205.746 48.5381 204.626 48.829 203.884 48.9599C202.866 49.1345 201.978 49.1781 200.146 49.1199C198.342 49.0618 197.455 48.9599 196.582 48.7272C195.942 48.5527 194.938 48.1745 194.342 47.8836C193.687 47.5636 192.858 46.9672 192.247 46.3999C191.695 45.8763 191.026 45.0909 190.749 44.6545C190.487 44.2181 190.109 43.4036 189.906 42.8363C189.716 42.269 189.484 41.3236 189.382 40.7272C189.266 40.0145 189.236 38.6181 189.28 36.7272C189.324 34.6472 189.411 33.5709 189.586 32.9454C189.716 32.4654 190.08 31.5345 190.4 30.8799C190.807 30.0218 191.244 29.3963 191.884 28.7563C192.393 28.2472 193.266 27.5636 193.818 27.229C194.371 26.909 195.331 26.4727 195.927 26.269C196.524 26.0654 197.382 25.8327 197.818 25.7599C198.255 25.6872 199.796 25.6436 201.236 25.6581ZM198.851 31.4618C198.604 31.6072 198.24 31.9272 198.036 32.189C197.833 32.4363 197.542 33.0618 197.382 33.5709C197.193 34.1818 197.062 35.0836 197.004 36.3345C196.946 37.3672 196.989 38.7927 197.076 39.5636C197.149 40.3199 197.338 41.2072 197.469 41.5272C197.6 41.8472 197.862 42.3272 198.051 42.589C198.24 42.8363 198.676 43.1999 199.011 43.3599C199.36 43.5345 199.956 43.709 200.364 43.7527C200.756 43.7818 201.411 43.7527 201.818 43.6509C202.255 43.5636 202.778 43.2872 203.127 43.0109C203.476 42.7199 203.84 42.2109 204.029 41.7745C204.218 41.3527 204.422 40.5818 204.509 40.0436C204.582 39.4909 204.655 38.269 204.64 37.309C204.64 36.349 204.553 35.069 204.451 34.4727C204.349 33.8763 204.131 33.1199 203.971 32.7999C203.811 32.4799 203.418 31.9999 203.113 31.7527C202.807 31.4909 202.269 31.2145 201.92 31.1272C201.586 31.0545 201.033 30.9818 200.684 30.9963C200.349 30.9963 199.898 31.0545 199.68 31.1127C199.462 31.1854 199.084 31.3309 198.851 31.4618ZM101.818 25.8036C103.447 25.8327 104.495 25.9345 105.091 26.0945C105.571 26.2254 106.516 26.6036 107.2 26.9381C108.175 27.4036 108.684 27.7818 109.615 28.7127C110.313 29.4109 110.996 30.2836 111.316 30.8363C111.593 31.3599 111.971 32.2036 112.146 32.7272C112.32 33.2509 112.553 34.1963 112.669 34.8363C112.786 35.4763 112.873 36.6545 112.873 37.4545C112.873 38.7636 112.829 38.9381 112.218 39.5781L97.891 39.5636V40.1163C97.891 40.4072 97.9783 40.989 98.0946 41.3818C98.1965 41.789 98.3856 42.3127 98.5019 42.5454C98.6328 42.7781 98.9965 43.229 99.331 43.5345C99.6656 43.8254 100.204 44.1454 100.538 44.2327C100.887 44.3199 101.455 44.3636 101.818 44.3199C102.182 44.2763 102.706 44.1309 102.982 43.9999C103.258 43.8545 103.869 43.3745 105.193 42.109L108.131 42.0654C109.92 42.0363 111.273 42.0799 111.593 42.1672C112.015 42.2981 112.16 42.4145 112.233 42.7345C112.291 42.9527 112.291 43.3309 112.247 43.5636C112.189 43.7963 111.869 44.4218 111.535 44.9454C111.186 45.4545 110.487 46.2254 109.964 46.6618C109.44 47.0836 108.495 47.6945 107.855 48.0145C107.215 48.3199 106.167 48.7272 105.527 48.9018C104.524 49.1781 103.971 49.2218 101.6 49.2218C99.3455 49.2363 98.6474 49.1927 97.8183 48.9599C97.251 48.8145 96.3346 48.4799 95.7819 48.2181C95.2146 47.9709 94.3419 47.4327 93.8328 47.0399C93.3092 46.6472 92.5965 45.9345 92.2474 45.4545C91.8837 44.9745 91.4037 44.189 91.1856 43.709C90.9528 43.229 90.6183 42.2836 90.4437 41.5999C90.1528 40.5236 90.1237 40.0145 90.1237 37.5999C90.1383 35.229 90.1819 34.6763 90.4583 33.6727C90.6328 33.0327 90.9819 32.0581 91.2583 31.4909C91.5201 30.9381 92.0437 30.0799 92.4074 29.5999C92.771 29.1199 93.3528 28.4945 93.7019 28.2036C94.051 27.9127 94.7492 27.4472 95.2728 27.1709C95.7965 26.8799 96.5092 26.5454 96.8728 26.4145C97.2365 26.2836 97.9492 26.0799 98.4728 25.9636C99.1565 25.8181 100.087 25.7599 101.818 25.8036ZM99.4474 31.2436C99.1419 31.4618 98.7492 31.869 98.5892 32.1454C98.4292 32.4218 98.1965 32.9454 98.0946 33.309C97.9783 33.6727 97.891 34.2399 97.891 34.589V35.1999H105.091C104.96 33.789 104.771 33.0618 104.596 32.6545C104.422 32.2618 104.131 31.7672 103.956 31.5927C103.782 31.4036 103.375 31.1127 103.055 30.9527C102.735 30.7927 102.109 30.6327 101.673 30.6036C101.236 30.5745 100.669 30.6181 100.436 30.6909C100.189 30.7781 99.7528 31.0109 99.4474 31.2436ZM127.127 25.7599C128.858 25.7599 129.702 25.8181 130.764 26.0363C131.651 26.2109 132.582 26.5309 133.382 26.9236C134.255 27.3599 134.88 27.8109 135.506 28.4218C136.044 28.9599 136.567 29.6727 136.844 30.2545C137.106 30.7781 137.411 31.6654 137.527 32.2181C137.702 33.0472 137.746 34.6763 137.746 48.2181L137.411 48.5527C137.091 48.8727 137.018 48.8872 134.066 48.8727C131.258 48.8727 131.04 48.8581 130.764 48.5818C130.531 48.349 130.473 48.1018 130.473 46.4727L129.702 47.1999C129.28 47.6072 128.509 48.1309 127.986 48.3927C127.476 48.6399 126.662 48.9454 126.182 49.0763C125.673 49.2072 124.684 49.309 123.782 49.309C122.706 49.309 121.92 49.2218 121.091 49.0181C120.451 48.8436 119.535 48.509 119.055 48.2472C118.575 47.9854 117.789 47.389 117.309 46.909C116.815 46.4145 116.262 45.6872 116.044 45.2363C115.826 44.7999 115.593 43.9999 115.506 43.4618C115.389 42.7927 115.389 42.1818 115.491 41.5709C115.564 41.0618 115.826 40.2618 116.058 39.7818C116.32 39.2581 116.786 38.6181 117.266 38.1818C117.716 37.7599 118.633 37.1636 119.418 36.7563C120.175 36.3781 121.324 35.9127 121.964 35.7236C122.604 35.5345 123.942 35.2436 124.946 35.0836C125.949 34.909 127.506 34.6618 130.08 34.2545L130.007 33.2363C129.964 32.5381 129.847 32.0436 129.629 31.6799C129.455 31.3745 129.106 31.0254 128.873 30.909C128.626 30.7927 128.058 30.6472 127.593 30.6036C127.026 30.5309 126.502 30.5745 125.92 30.749C125.207 30.9527 124.975 31.1127 123.418 32.8872H120.436C117.6 32.8872 117.44 32.8727 117.164 32.5818C116.931 32.3345 116.887 32.1454 116.96 31.6654C117.004 31.3309 117.193 30.7345 117.382 30.3272C117.571 29.9345 118.153 29.1781 118.676 28.6545C119.316 28.0145 120.024 27.4957 120.8 27.0981C121.44 26.7636 122.458 26.3563 123.055 26.1963C123.651 26.0363 124.306 25.8763 124.509 25.8472C124.713 25.8181 125.891 25.7745 127.127 25.7599ZM125.164 39.6363C124.756 39.7527 124.16 40.029 123.826 40.2472C123.491 40.4654 123.098 40.8581 122.967 41.0909C122.836 41.3236 122.735 41.7745 122.735 42.0799C122.749 42.3709 122.88 42.7927 123.026 43.0254C123.186 43.2436 123.549 43.5781 123.869 43.7672C124.291 44.0436 124.698 44.1454 125.455 44.189C126.007 44.2181 126.735 44.1745 127.055 44.1018C127.375 44.0145 127.913 43.7527 128.262 43.5345C128.596 43.3163 129.076 42.8363 129.324 42.4727C129.556 42.109 129.818 41.5854 129.906 41.309C129.978 41.0327 130.08 40.3199 130.109 39.7527C130.167 38.8072 130.153 38.6909 129.92 38.7054C129.789 38.7054 128.815 38.8799 127.782 39.069C126.735 39.2581 125.556 39.5054 125.164 39.6363ZM149.382 26.1818L149.673 26.589C149.906 26.8945 149.978 27.1999 149.949 28.8727L150.647 28.2036C151.026 27.8399 151.738 27.3309 152.218 27.0981C152.698 26.8509 153.484 26.5454 153.964 26.4145C154.56 26.2545 155.476 26.1818 156.8 26.1818C158.633 26.1818 158.778 26.2109 159.098 26.5163C159.418 26.8218 159.433 26.9236 159.433 29.4545C159.433 31.8545 159.404 32.1018 158.836 32.8727L155.884 32.9163C153.28 32.9599 152.873 32.989 152.291 33.2654C151.927 33.4254 151.462 33.7454 151.244 33.9781C151.026 34.2109 150.749 34.6909 150.618 35.0545C150.429 35.6072 150.4 36.6254 150.4 41.6727C150.4 45.3236 150.342 47.8254 150.255 48.1163C150.182 48.3636 149.978 48.6545 149.818 48.7272C149.658 48.8145 148.175 48.8727 146.356 48.8727C143.316 48.8872 143.186 48.8727 142.909 48.5672C142.618 48.2618 142.618 48.0581 142.618 37.5272C142.618 27.1854 142.633 26.7781 142.895 26.4872C143.156 26.1963 143.302 26.1818 149.382 26.1818Z"
        fill="white" />
    <path
        d="M23.6074 1.74512C23.6801 1.74512 23.7383 1.89057 23.7528 2.07966C23.7674 2.25421 23.6365 2.9233 23.4474 3.5633C23.2147 4.3633 23.0837 5.27966 23.0256 6.47239C22.9528 8.07239 22.9819 8.31966 23.3165 9.45421C23.5347 10.1378 23.8983 11.0688 24.1456 11.5342C24.3783 11.9851 24.9019 12.8433 25.2947 13.4106C25.6874 13.9924 26.3419 14.8651 26.7637 15.3451C27.1856 15.8251 28.9165 17.5851 30.6037 19.2724C32.3056 20.9597 34.0219 22.7342 34.4147 23.2142C34.8074 23.7088 35.491 24.6106 35.9274 25.2215C36.3637 25.8324 37.0183 26.9088 37.3819 27.6069C37.7456 28.3051 38.2547 29.396 38.5019 30.036C38.7492 30.676 39.1128 31.8542 39.2874 32.6542C39.5201 33.716 39.6074 34.5742 39.6074 35.8542C39.6074 36.8142 39.5347 37.9633 39.4183 38.3997C39.3165 38.836 39.1128 39.6506 38.9528 40.2178C38.7928 40.7851 38.4292 41.7597 38.1237 42.3997C37.8328 43.0397 37.2947 43.9851 36.9456 44.5088C36.611 45.0324 35.6947 46.0797 34.9237 46.836C34.1528 47.5924 33.1637 48.4506 32.7274 48.7415C32.291 49.0324 31.6656 49.4106 31.3456 49.5706C31.0256 49.7451 30.2983 50.0797 29.7456 50.3124C29.1783 50.5451 28.131 50.8942 27.4183 51.0688C26.371 51.3306 25.6583 51.3888 23.9274 51.4033C22.3128 51.4033 21.4692 51.3451 20.6547 51.156C20.0583 51.0106 19.4183 50.7924 19.2292 50.676C19.011 50.5306 18.8656 50.2251 18.7347 49.6288C18.6037 48.9888 18.6037 48.596 18.7347 47.9269C18.8365 47.4469 19.0837 46.7197 19.2874 46.3269C19.5056 45.9197 19.8837 45.2942 20.131 44.916C20.3783 44.5378 21.3383 43.4324 22.2547 42.4578C23.171 41.4833 24.2474 40.2906 24.6401 39.796C25.0328 39.316 25.5856 38.4142 25.891 37.8178C26.1965 37.2215 26.5747 36.1306 26.7492 35.4178C26.9092 34.7051 27.0547 33.716 27.0547 33.236C27.0547 32.756 26.9237 31.7378 26.7637 30.9815C26.6183 30.2251 26.3856 29.3378 26.2692 29.0178C26.1528 28.6978 25.9056 28.0724 25.7019 27.636C25.5128 27.1997 25.1492 26.5015 24.9165 26.1088C24.6837 25.7015 24.2037 24.8869 23.8547 24.2906C23.5056 23.6942 23.1128 23.0833 22.9965 22.9233C22.8656 22.7778 22.6328 22.4433 22.4728 22.1669C22.3128 21.9051 21.891 21.2797 21.5274 20.7706C21.1492 20.2615 20.611 19.4469 20.3201 18.9378C20.0001 18.3997 19.6074 17.3815 19.331 16.3924C18.9092 14.8797 18.8801 14.6324 18.9528 13.0906C18.9965 11.956 19.1419 10.9233 19.4183 9.89057C19.6219 9.04694 20.0292 7.73784 20.3201 6.98148C20.5965 6.22512 21.091 5.10512 21.4256 4.50875C21.7456 3.91239 22.1819 3.18512 22.371 2.90875C22.5747 2.63239 22.9092 2.25421 23.1128 2.07966C23.3165 1.89057 23.5492 1.74512 23.6074 1.74512Z"
        fill="#F4129A" />
</svg>