<svg id="组_2" data-name="组 2" xmlns="http://www.w3.org/2000/svg" width="556.03" height="130.47" viewBox="0 0 556.03 130.47">
  <defs>
    <style>
      .cls-1, .cls-2, .cls-5 {
        fill: #fff;
      }

      .cls-1, .cls-2, .cls-3, .cls-4, .cls-5 {
        fill-rule: evenodd;
      }

      .cls-1 {
        opacity: 0.5;
      }

      .cls-2 {
        opacity: 0.62;
      }

      .cls-3, .cls-4 {
        fill: none;
        stroke: #fff;
        stroke-width: 5px;
      }

      .cls-3 {
        stroke-linecap: round;
        stroke-linejoin: round;
      }
    </style>
  </defs>
  <path id="形状_24" data-name="形状 24" class="cls-1" d="M4747,1863s24.73,13.2,23,61c0,0-.87,8.99-9,13,0,0,1.89-4.45-3-9C4758,1928,4744.84,1912.07,4747,1863Z" transform="translate(-4642.22 -1830.84)"/>
  <path id="形状_25" data-name="形状 25" class="cls-2" d="M4843,1885s-22.92,38.54-73,41l-8,12,36-3,25-6,23-10h6l-3-6S4850.89,1897.86,4843,1885Z" transform="translate(-4642.22 -1830.84)"/>
  <path id="形状_20" data-name="形状 20" class="cls-3" d="M4768.61,1925.98s4.35-37.82-20.88-61.25c0,0,2.09,17.69,1.39,26.45s2.81,25.43,12.53,38.98c0,0,.9,3.54,0,5.57,0,0,6.67-1.84,29.24-1.4,0,0,20.57-.71,54.29-16.7a14.917,14.917,0,0,1,5.57,0,22.366,22.366,0,0,1-4.18-6.96s3.52-19.91-13.92-40.38v-2.78l-2.78,1.39s-30.18-12.48-66.83-6.96l-8.35-2.78" transform="translate(-4642.22 -1830.84)"/>
  <path id="形状_22" data-name="形状 22" class="cls-4" d="M4781.14,1889.78s20.86-.03,25.06,4.18" transform="translate(-4642.22 -1830.84)"/>
  <path id="形状_23" data-name="形状 23" class="cls-4" d="M4793.67,1899.53s15.25-2.02,22.28-13.92" transform="translate(-4642.22 -1830.84)"/>
  <path id="z" class="cls-5" d="M4849.67,1849.03l-3.33-4.32a2.028,2.028,0,1,1,3.21-2.48l6.5,8.44a1.354,1.354,0,0,1-.17,2.05,2.194,2.194,0,0,1-1.42.45l-12.72.52,3.79,4.92a2.028,2.028,0,1,1-3.21,2.48l-6.65-8.64c-0.71-1.05-.66-1.89.14-2.51a2.086,2.086,0,0,1,.86-0.34,0.964,0.964,0,0,0,.38-0.13Z" transform="translate(-4642.22 -1830.84)"/>
  <path id="形状_21" data-name="形状 21" class="cls-4" d="M4736.59,1909.27s-11.13,45.12,27.85,44.55c0,0,76.09-7.99,84.92-89.09" transform="translate(-4642.22 -1830.84)"/>
  <path id="形状_21_拷贝" data-name="形状 21 拷贝" class="cls-4" d="M4764.44,1953.82m72.13-111.74c-9.43-5.82-25.77-6.45-54.04,10.12" transform="translate(-4642.22 -1830.84)"/>
  <path id="Go_Sleep_pro" data-name="Go     Sleep pro" class="cls-5" d="M4673.25,1894.19q-3.315-.375-3.31-3.02c0-1.75,1.1-2.76,3.31-3.01h9.2q4.29-.075,5.88,1.39t1.5,5.39q-0.15,10.56-6.18,17.37t-16.42,7.12q-11.31-.15-18.09-7.31t-6.93-20.64q0.225-12.285,7.27-19.75t18.2-7.68q11.985,0.675,17.18,6.48c1.51,1.91,1.58,3.45.23,4.63s-3.09,1.09-5.2-.26q-6.105-4.755-12.21-4.82-8.745.3-13.61,6.33a23.3,23.3,0,0,0-4.93,14.91q0.225,10.485,5.42,16.17a16.376,16.376,0,0,0,12.51,5.69q14.55,0.825,15.83-18.99h-9.65Zm27.29,4.37q0.375,15.075,11.15,15.22a10.261,10.261,0,0,0,8.02-4.03q3.285-3.96,3.43-10.74-0.075-6.705-3.09-10.81a10.317,10.317,0,0,0-8.51-4.26q-10.86.525-11,14.62h0Zm-6.79.75q0.15-9.12,5.09-15.07a16.4,16.4,0,0,1,12.7-6.18q8.43,0.15,13.34,5.58,4.89,5.43,5.05,15.22-0.165,9.72-5.13,15.03t-13.71,5.54a16.15,16.15,0,0,1-12.36-5.16q-4.83-5.16-4.98-14.96h0Zm198.67-28.78q-8.9,0-8.89,6.78a8.1,8.1,0,0,0,3.95,6.22,40.349,40.349,0,0,0,6.75,3.73q8.43,4.14,12.09,7.91a12.145,12.145,0,0,1,3.58,8.96,13.7,13.7,0,0,1-4.41,10.52q-4.485,4.245-15.03,4.78-8.295.3-13.42-3.69a3.175,3.175,0,0,1-.33-4.33q1.53-2.22,4.25-.95a18.827,18.827,0,0,0,9.35,2.87,13.239,13.239,0,0,0,8.21-1.96,8.548,8.548,0,0,0,4.15-7.24q0.75-5.34-11.76-11.45a36.446,36.446,0,0,1-10.78-6.52,11.666,11.666,0,0,1-3.69-8.85q0.075-6.63,4.22-9.87t11-3.24a20.141,20.141,0,0,1,14.02,4.67,3.08,3.08,0,0,1-.26,4.26q-1.845,2.07-4.71-.04a14.253,14.253,0,0,0-8.29-2.56h0Zm31.65-7.09v52.15q-0.45,3.765-3.35,3.77t-3.28-3.77V1863.6c0.25-2.52,1.34-3.78,3.28-3.81s3.05,1.19,3.35,3.65h0Zm39.64,38.28h-24.72q0.975,11.535,12.21,11.91a16.723,16.723,0,0,0,10.85-3.47q3.09-2.025,4.75-.45c1.1,1.06,1.08,2.41-.08,4.07q-5.04,5.655-15.52,5.65-8.445-.075-13.64-5.2t-5.35-15.22q0-9.12,4.78-14.99t13.61-6.11q8.97,0.525,13.37,6.6a20.67,20.67,0,0,1,4.41,12.24,6.436,6.436,0,0,1-.75,3.69c-0.55.86-1.86,1.28-3.92,1.28h0Zm-24.57-5.12h22.76q-1.725-12.06-11.3-12.66-10.26.225-11.46,12.66h0Zm64.66,5.12h-24.72q0.99,11.535,12.21,11.91a16.723,16.723,0,0,0,10.85-3.47c2.06-1.35,3.65-1.5,4.75-.45s1.08,2.41-.07,4.07q-5.055,5.655-15.53,5.65-8.43-.075-13.64-5.2-5.19-5.115-5.35-15.22,0-9.12,4.79-14.99t13.6-6.11q8.97,0.525,13.38,6.6a20.67,20.67,0,0,1,4.41,12.24,6.512,6.512,0,0,1-.76,3.69c-0.55.86-1.86,1.28-3.92,1.28h0Zm-24.57-5.12h22.76q-1.725-12.06-11.3-12.66-10.245.225-11.46,12.66h0Zm35.73,34.74v-49.81c0.25-2.56,1.36-3.84,3.35-3.84s3.13,1.28,3.43,3.84v2.11a12.836,12.836,0,0,1,11.15-5.73,16.006,16.006,0,0,1,12.36,5.88q4.905,5.73,5.13,15.22-0.165,9.495-4.98,14.88t-13.26,5.54a12.375,12.375,0,0,1-10.4-5.05v16.96c-0.3,2.41-1.45,3.61-3.43,3.61s-3.1-1.2-3.35-3.61h0Zm6.18-32.63q0.15,14.775,11.15,15.22a10.065,10.065,0,0,0,8.06-3.92q3.24-3.915,3.39-11,0.15-14.31-11.15-15.07-11.76.375-11.45,14.77h0Zm75.21,32.63v-49.81q0.375-3.84,3.35-3.84c1.98,0,3.13,1.28,3.43,3.84v2.11a12.836,12.836,0,0,1,11.15-5.73,16.006,16.006,0,0,1,12.36,5.88q4.9,5.73,5.13,15.22-0.15,9.495-4.98,14.88-4.815,5.385-13.26,5.54a12.375,12.375,0,0,1-10.4-5.05v16.96c-0.3,2.41-1.45,3.61-3.43,3.61s-3.1-1.2-3.35-3.61h0Zm6.18-32.63q0.15,14.775,11.15,15.22a10.065,10.065,0,0,0,8.06-3.92q3.24-3.915,3.4-11,0.15-14.31-11.16-15.07-11.76.375-11.45,14.77h0Zm36.47,17.78v-34.96q0.375-3.69,3.36-3.69t3.42,3.69v3.62q3.855-6.78,9.5-7.24,3.165,0.15,3.5,2.98t-2.6,3.8q-10.32,2.49-10.4,12.21v18.99q-0.45,3.615-3.42,3.73t-3.36-3.13h0Zm29.84-17.93q0.39,15.075,11.16,15.22a10.261,10.261,0,0,0,8.02-4.03q3.285-3.96,3.43-10.74-0.075-6.705-3.09-10.81a10.317,10.317,0,0,0-8.51-4.26q-10.86.525-11.01,14.62h0Zm-6.78.75q0.15-9.12,5.09-15.07a16.4,16.4,0,0,1,12.7-6.18q8.43,0.15,13.34,5.58,4.89,5.43,5.05,15.22-0.165,9.72-5.13,15.03t-13.71,5.54a16.15,16.15,0,0,1-12.36-5.16q-4.83-5.16-4.98-14.96h0Z" transform="translate(-4642.22 -1830.84)"/>
</svg>
