<svg width="24" height="25" viewBox="0 0 24 25" fill="none" xmlns="http://www.w3.org/2000/svg">
	<path
		opacity="0.3"
		d="M12.0522 2.74023C14.365 2.74022 16.1699 2.74021 17.5765 2.91041C19.0078 3.08361 20.1406 3.44382 21.0373 4.25078C21.9452 5.06792 22.3609 6.1177 22.5587 7.4417C22.75 8.72244 22.75 10.4845 22.75 12.5527C22.75 14.621 22.75 16.258 22.5587 17.5387C22.3609 18.8627 21.9452 19.9125 21.0373 20.7297C20.1406 21.5366 19.0078 21.8968 17.5765 22.07C16.1699 22.2402 14.365 22.2402 12.0522 22.2402C9.73935 22.2402 7.83014 22.2402 6.42355 22.07C4.99222 21.8968 3.85936 21.5366 2.96274 20.7297C2.05481 19.9125 1.63907 18.8627 1.44129 17.5387C1.24997 16.258 1.24998 14.621 1.25 12.5527C1.24998 10.4845 1.24997 8.72244 1.44129 7.4417C1.63907 6.1177 2.05481 5.06792 2.96274 4.25078C3.85936 3.44382 4.99222 3.08361 6.42355 2.91041C7.83014 2.74021 9.73933 2.74022 12.0522 2.74023Z"
		fill="#2DB8E3"
	/>
	<path
		d="M8.44175 7.74024C8.78264 7.74019 9.10926 7.74013 9.37776 7.77623C9.67878 7.8167 10.0163 7.9145 10.296 8.19423C10.5758 8.47397 10.6736 8.81148 10.714 9.1125C10.7501 9.381 10.7501 9.70762 10.75 10.0485V10.9319C10.7501 11.2728 10.7501 11.5995 10.714 11.868C10.6736 12.169 10.5758 12.5065 10.296 12.7862C10.0163 13.066 9.67878 13.1638 9.37776 13.2042C9.10926 13.2403 8.78264 13.2403 8.44174 13.2402H7.55828C7.21738 13.2403 6.89076 13.2403 6.62226 13.2042C6.32124 13.1638 5.98373 13.066 5.70399 12.7862C5.42426 12.5065 5.32646 12.169 5.28599 11.868C5.24989 11.5995 5.24995 11.2728 5.25 10.9319V10.0485C5.24995 9.70762 5.24989 9.381 5.28599 9.1125C5.32646 8.81148 5.42426 8.47397 5.70399 8.19423C5.98373 7.9145 6.32124 7.8167 6.62226 7.77623C6.89076 7.74013 7.21738 7.74019 7.55827 7.74024H8.44175Z"
		fill="#2DB8E3"
	/>
	<path
		fill-rule="evenodd"
		clip-rule="evenodd"
		d="M5.25 16.4902C5.25 16.076 5.58579 15.7402 6 15.7402H10C10.4142 15.7402 10.75 16.076 10.75 16.4902C10.75 16.9044 10.4142 17.2402 10 17.2402H6C5.58579 17.2402 5.25 16.9044 5.25 16.4902Z"
		fill="#2DB8E3"
	/>
	<path
		fill-rule="evenodd"
		clip-rule="evenodd"
		d="M13.25 8.49023C13.25 8.07602 13.5858 7.74023 14 7.74023H18C18.4142 7.74023 18.75 8.07602 18.75 8.49023C18.75 8.90444 18.4142 9.24023 18 9.24023H14C13.5858 9.24023 13.25 8.90444 13.25 8.49023Z"
		fill="#2DB8E3"
	/>
	<path
		fill-rule="evenodd"
		clip-rule="evenodd"
		d="M13.25 12.4902C13.25 12.076 13.5858 11.7402 14 11.7402H18C18.4142 11.7402 18.75 12.076 18.75 12.4902C18.75 12.9044 18.4142 13.2402 18 13.2402H14C13.5858 13.2402 13.25 12.9044 13.25 12.4902Z"
		fill="#2DB8E3"
	/>
	<path
		fill-rule="evenodd"
		clip-rule="evenodd"
		d="M13.25 16.4902C13.25 16.076 13.5858 15.7402 14 15.7402H18C18.4142 15.7402 18.75 16.076 18.75 16.4902C18.75 16.9044 18.4142 17.2402 18 17.2402H14C13.5858 17.2402 13.25 16.9044 13.25 16.4902Z"
		fill="#2DB8E3"
	/>
</svg>
