<svg width="36" height="35" viewBox="0 0 36 35" fill="none" xmlns="http://www.w3.org/2000/svg">
    <path opacity="0.4"
        d="M2.43457 17.4987C2.43457 26.0951 9.40331 33.0638 17.9997 33.0638C26.5961 33.0638 33.5648 26.0951 33.5648 17.4987C33.5648 8.90233 26.5961 1.93359 17.9997 1.93359C9.40331 1.93359 2.43457 8.90233 2.43457 17.4987Z"
        fill="white" />
    <path fill-rule="evenodd" clip-rule="evenodd"
        d="M17.5397 16.0903C17.8974 16.1384 18.3923 16.2671 18.8122 16.687C19.2321 17.1069 19.3608 17.6017 19.4089 17.9594C19.4487 18.2557 19.4484 18.6003 19.4482 18.8896C19.4482 18.909 19.4482 18.928 19.4482 18.9466V24.7383C19.4482 25.538 18.8 26.1862 18.0003 26.1862C17.2006 26.1862 16.5524 25.538 16.5524 24.7383V18.9466C15.7527 18.9466 15.1045 18.2984 15.1045 17.4987C15.1045 16.699 15.7527 16.0508 16.5524 16.0508C16.5711 16.0508 16.5902 16.0508 16.6095 16.0508C16.8989 16.0507 17.2434 16.0504 17.5397 16.0903Z"
        fill="white" />
    <path fill-rule="evenodd" clip-rule="evenodd"
        d="M16.5518 11.7096C16.5518 10.91 17.1971 10.2617 17.9932 10.2617H18.0062C18.8023 10.2617 19.4476 10.91 19.4476 11.7096C19.4476 12.5093 18.8023 13.1576 18.0062 13.1576H17.9932C17.1971 13.1576 16.5518 12.5093 16.5518 11.7096Z"
        fill="white" />
</svg>