<svg width="36" height="36" viewBox="0 0 36 36" fill="none" xmlns="http://www.w3.org/2000/svg">
<path opacity="0.4" d="M2.43457 17.9987C2.43457 26.5951 9.40331 33.5638 17.9997 33.5638C26.5961 33.5638 33.5648 26.5951 33.5648 17.9987C33.5648 9.40233 26.5961 2.43359 17.9997 2.43359C9.40331 2.43359 2.43457 9.40233 2.43457 17.9987Z" fill="#3840C7"/>
<path fill-rule="evenodd" clip-rule="evenodd" d="M17.5397 16.5903C17.8974 16.6384 18.3923 16.7671 18.8122 17.187C19.2321 17.6069 19.3608 18.1017 19.4089 18.4594C19.4487 18.7557 19.4484 19.1003 19.4482 19.3896C19.4482 19.409 19.4482 19.428 19.4482 19.4466V25.2383C19.4482 26.038 18.8 26.6862 18.0003 26.6862C17.2006 26.6862 16.5524 26.038 16.5524 25.2383V19.4466C15.7527 19.4466 15.1045 18.7984 15.1045 17.9987C15.1045 17.199 15.7527 16.5508 16.5524 16.5508C16.5711 16.5508 16.5902 16.5508 16.6095 16.5508C16.8989 16.5507 17.2434 16.5504 17.5397 16.5903Z" fill="#3840C7"/>
<path fill-rule="evenodd" clip-rule="evenodd" d="M16.5518 12.2096C16.5518 11.41 17.1971 10.7617 17.9932 10.7617H18.0062C18.8023 10.7617 19.4476 11.41 19.4476 12.2096C19.4476 13.0093 18.8023 13.6576 18.0062 13.6576H17.9932C17.1971 13.6576 16.5518 13.0093 16.5518 12.2096Z" fill="#3840C7"/>
</svg>
