<svg width="192" height="32" fill="none" xmlns="http://www.w3.org/2000/svg">
    <path fill="#0b0e1e"
        d="M41.525 9.349h3.694v13.682h-3.694zM62.222 23.032l-9.231-9.401v9.4h-3.695V9.35h4.014l9.24 9.44V9.35h3.675v13.683h-4.003ZM73.999 12.267v2.38h8.893v2.918h-8.893v5.466h-3.694V9.35h13.074v2.918H74Z">
    </path>
    <path
        d="M98.938 13.203c-.258-.126-.6-.269-1.025-.428-.425-.16-.906-.31-1.444-.454a16.616 16.616 0 0 0-1.753-.357 12.823 12.823 0 0 0-1.942-.145c-.53 0-.984.016-1.36.05-.374.033-.69.076-.945.13a2.807 2.807 0 0 0-.607.184c-.15.07-.264.14-.344.214a.536.536 0 0 0-.19.418c0 .199.1.374.3.523.199.15.47.281.816.398.345.116.747.226 1.205.328.458.104.945.21 1.46.319.514.11 1.045.23 1.592.359.548.13 1.079.28 1.593.453a11.31 11.31 0 0 1 1.46.602c.458.23.859.497 1.205.802.345.305.616.657.816 1.055.2.399.299.853.299 1.365 0 .657-.117 1.222-.35 1.693-.231.471-.541.87-.93 1.195a4.695 4.695 0 0 1-1.35.78 9.316 9.316 0 0 1-1.608.454c-.56.106-1.128.176-1.702.21-.575.032-1.12.049-1.638.049-1.355 0-2.608-.111-3.76-.333-1.152-.223-2.169-.5-3.052-.832v-3.266c.91.504 1.947.9 3.112 1.185 1.165.285 2.411.428 3.74.428.783 0 1.422-.041 1.916-.124.495-.083.882-.19 1.16-.32.28-.128.469-.27.568-.423a.803.803 0 0 0 .15-.437c0-.22-.1-.41-.3-.573-.199-.163-.47-.306-.816-.428a10.292 10.292 0 0 0-1.205-.338 61.027 61.027 0 0 0-1.459-.31 91.776 91.776 0 0 1-1.588-.333 18.331 18.331 0 0 1-1.588-.423c-.515-.163-1-.352-1.459-.568a5.332 5.332 0 0 1-1.205-.767 3.36 3.36 0 0 1-.817-1.025c-.199-.389-.298-.838-.298-1.35 0-.604.106-1.125.318-1.563.213-.439.5-.812.862-1.12.361-.309.78-.56 1.255-.752a8.366 8.366 0 0 1 1.498-.448c.524-.107 1.056-.18 1.594-.22.537-.04 1.048-.06 1.533-.06.53 0 1.077.028 1.638.08.56.054 1.113.128 1.658.225a23.184 23.184 0 0 1 2.987.732v3.166ZM111.032 12.327v10.705h-3.695V12.327h-5.805V9.349h15.316v2.978h-5.816Z"
        fill="#EDB500"></path>
    <path fill-rule="evenodd" clip-rule="evenodd"
        d="M136.605 16.2c0 1.175-.216 2.213-.647 3.112a6.081 6.081 0 0 1-1.852 2.256c-.804.604-1.778 1.06-2.923 1.368-1.145.309-2.431.464-3.859.464-1.427 0-2.717-.155-3.868-.464-1.152-.308-2.134-.764-2.943-1.368a6.137 6.137 0 0 1-1.873-2.256c-.437-.9-.657-1.938-.657-3.112 0-1.175.22-2.212.657-3.112a6.137 6.137 0 0 1 1.873-2.256c.809-.604 1.791-1.06 2.943-1.368 1.151-.31 2.441-.464 3.868-.464 1.428 0 2.714.155 3.859.464 1.145.308 2.119.764 2.923 1.368a6.072 6.072 0 0 1 1.852 2.256c.431.9.647 1.937.647 3.112Zm-3.735 0c0-.511-.081-1.02-.244-1.529a3.314 3.314 0 0 0-.866-1.369c-.415-.404-.981-.733-1.698-.985-.717-.253-1.63-.38-2.739-.38-.743 0-1.397.06-1.961.175a6.012 6.012 0 0 0-1.464.483 4.023 4.023 0 0 0-1.036.722 3.649 3.649 0 0 0-.667.886 3.698 3.698 0 0 0-.354.986 5.103 5.103 0 0 0-.104 1.011c0 .339.035.68.104 1.026a3.542 3.542 0 0 0 1.021 1.872c.279.272.624.509 1.036.712.411.202.9.362 1.464.478.564.116 1.218.174 1.961.174 1.109 0 2.022-.126 2.739-.379.717-.252 1.283-.58 1.698-.986.415-.404.703-.86.866-1.368a4.98 4.98 0 0 0 .244-1.529"
        fill="#EDB500"></path>
    <path
        d="m152.694 23.032-9.232-9.401v9.4h-3.694V9.35h4.013l9.241 9.44V9.35h3.675v13.683h-4.003ZM160.775 23.032V9.349h13.852v2.918h-10.058v2.26h9.54v2.918h-9.54v2.669h10.197v2.918h-13.991ZM190.754 13.203a12.23 12.23 0 0 0-1.026-.428c-.425-.16-.906-.31-1.444-.454a16.629 16.629 0 0 0-1.752-.357 12.836 12.836 0 0 0-1.942-.145c-.531 0-.985.016-1.359.05a8.337 8.337 0 0 0-.947.13 2.834 2.834 0 0 0-.607.184c-.149.07-.264.14-.343.214a.517.517 0 0 0-.155.218.676.676 0 0 0-.035.2c0 .199.1.374.299.523.199.15.472.281.816.398.346.116.748.226 1.205.328.459.104.945.21 1.46.319.514.11 1.045.23 1.593.359.547.13 1.078.28 1.593.453.514.172 1.001.373 1.459.602.458.23.86.497 1.205.802.345.305.617.657.817 1.055.199.399.298.853.298 1.365 0 .657-.117 1.222-.348 1.693-.233.471-.543.87-.932 1.195a4.692 4.692 0 0 1-1.349.78 9.304 9.304 0 0 1-1.608.454c-.561.106-1.129.176-1.703.21-.574.032-1.12.049-1.638.049-1.355 0-2.607-.111-3.759-.333-1.152-.223-2.17-.5-3.052-.832v-3.266c.909.504 1.946.9 3.111 1.185 1.165.285 2.412.428 3.74.428.783 0 1.422-.041 1.917-.124.495-.083.881-.19 1.16-.32.278-.128.468-.27.568-.423a.809.809 0 0 0 .149-.437c0-.22-.1-.41-.299-.573-.199-.163-.471-.306-.817-.428a10.308 10.308 0 0 0-1.204-.338 62.388 62.388 0 0 0-1.459-.31 91.63 91.63 0 0 1-1.589-.333 18.411 18.411 0 0 1-1.588-.423 11.655 11.655 0 0 1-1.459-.568 5.333 5.333 0 0 1-1.205-.767 3.354 3.354 0 0 1-.816-1.025c-.2-.389-.299-.838-.299-1.35 0-.604.106-1.125.318-1.563.213-.439.5-.812.862-1.12.362-.309.78-.56 1.255-.752a8.375 8.375 0 0 1 1.498-.448c.525-.107 1.056-.18 1.594-.22.538-.04 1.049-.06 1.533-.06.532 0 1.077.028 1.638.08.561.054 1.114.128 1.658.225a23.129 23.129 0 0 1 2.988.732v3.166ZM16 0c-4.022 0-7.294 3.238-7.294 7.219 0 1.674.593 3.306 1.67 4.595l.633.736 7.39 8.993.647.758c.59.706.9 1.563.9 2.48 0 2.15-1.766 3.898-3.937 3.898s-3.937-1.749-3.937-3.897v-.561a9.745 9.745 0 0 1-3.347.924C8.918 28.958 12.111 32 16.01 32c4.021 0 7.293-3.238 7.293-7.218a7.196 7.196 0 0 0-1.682-4.611l-.629-.736L13.6 10.44l-.646-.75a3.821 3.821 0 0 1-.892-2.47c0-2.15 1.766-3.898 3.937-3.898s3.937 1.749 3.937 3.898v.464c1.009-.496 2.112-.777 3.345-.857C23.075 3.028 19.887 0 16 0"
        fill="#EDB500"></path>
    <path
        d="M8.056 23.872c2.004-.025 4.077-.863 5.43-2.202a26.078 26.078 0 0 0 1.87-2.08l-2.168-2.64c-.65.83-1.322 1.625-2.075 2.371-.62.613-1.833 1.232-3.148 1.232-2.542 0-4.61-2.047-4.61-4.562s2.068-4.562 4.61-4.562c.282 0 .559.025.828.07a8.285 8.285 0 0 1-1.15-3.383C3.4 8.284 0 11.751 0 15.991c0 4.316 3.523 7.83 7.871 7.88h.185ZM23.944 8.116c-2.004.025-4.077.863-5.43 2.202a26.078 26.078 0 0 0-1.87 2.08l2.168 2.64c.65-.83 1.322-1.625 2.075-2.371.62-.613 1.833-1.232 3.148-1.232 2.542 0 4.61 2.047 4.61 4.562s-2.068 4.562-4.61 4.562c-.282 0-.559-.025-.828-.07a8.285 8.285 0 0 1 1.15 3.383C28.6 23.704 32 20.237 32 15.997c0-4.316-3.523-7.83-7.871-7.88h-.185Z"
        fill="#0b0e1e"></path>
</svg>