<svg width="33" height="33" viewBox="0 0 33 33" fill="none" xmlns="http://www.w3.org/2000/svg">
<path d="M11.8572 4.69542L9.58413 5.74613C6.08355 7.36422 4.33325 8.17326 4.33325 9.5013C4.33325 10.8293 6.08355 11.6384 9.58415 13.2565L11.8572 14.3072C14.0602 15.3254 15.1618 15.8346 16.3333 15.8346C17.5047 15.8346 18.6063 15.3254 20.8093 14.3072L23.0823 13.2565C26.583 11.6384 28.3333 10.8293 28.3333 9.5013C28.3333 8.17326 26.583 7.36422 23.0823 5.74613L20.8093 4.69542C18.6063 3.67712 17.5047 3.16797 16.3333 3.16797C15.1618 3.16797 14.0602 3.67712 11.8572 4.69542Z" stroke="black" stroke-width="2" stroke-linecap="round" stroke-linejoin="round"/>
<path d="M28.0506 15.2969C28.239 15.5618 28.3333 15.8381 28.3333 16.1418C28.3333 17.4509 26.583 18.2485 23.0823 19.8435L20.8093 20.8793C18.6063 21.883 17.5047 22.385 16.3333 22.385C15.1618 22.385 14.0602 21.883 11.8572 20.8793L9.58415 19.8435C6.08355 18.2485 4.33325 17.4509 4.33325 16.1418C4.33325 15.8381 4.42748 15.5618 4.61592 15.2969" stroke="black" stroke-width="2" stroke-linecap="round" stroke-linejoin="round"/>
<path d="M27.5022 22.1875C28.0562 22.6288 28.3333 23.0687 28.3333 23.5895C28.3333 24.8987 26.583 25.6962 23.0823 27.2912L20.8093 28.327C18.6063 29.3308 17.5047 29.8327 16.3333 29.8327C15.1618 29.8327 14.0602 29.3308 11.8572 28.327L9.58415 27.2912C6.08355 25.6962 4.33325 24.8987 4.33325 23.5895C4.33325 23.0687 4.61029 22.6288 5.16437 22.1875" stroke="black" stroke-width="2" stroke-linecap="round" stroke-linejoin="round"/>
</svg>
