<svg width="17" height="25" viewBox="0 0 17 25" fill="none" xmlns="http://www.w3.org/2000/svg">
	<path
		d="M11.3502 0.710242C11.3455 3.66332 10.1481 6.49408 8.02038 8.58173C5.89265 10.6694 3.00836 11.8436 0 11.8468V17.3909C2.23309 17.3966 4.44518 16.9676 6.50828 16.1288C8.57138 15.2898 10.4445 14.0577 12.0194 12.5036L12.037 12.4882C13.6151 10.9426 14.8659 9.10574 15.7174 7.08342C16.569 5.06109 17.0042 2.89332 16.9982 0.705078L11.3502 0.710242Z"
		fill="#26272C"
	/>
	<path
		opacity="0.3"
		d="M13.1668 13.7158C11.8207 15.0321 10.2784 16.1396 8.59277 17.0003C10.3739 19.0203 11.3534 21.6029 11.3519 24.2745H16.9999C17.0117 20.4245 15.6563 16.6909 13.1668 13.7158Z"
		fill="#26272C"
	/>
</svg>