<svg xmlns="http://www.w3.org/2000/svg" width="126" height="66" viewBox="0 0 126 66" fill="none">
    <g clip-path="url(#clip0_0_188)">
        <path
            d="M118.664 39.3797C117.189 39.3797 115.754 39.1403 114.357 38.6445C112.979 38.1487 112.009 37.4516 111.446 36.5871L113.444 35.4302C113.735 35.9069 114.395 36.3307 115.461 36.6803C116.529 37.0299 117.635 37.2121 118.739 37.2121C120.35 37.2121 121.611 37.0108 122.522 36.5871C123.337 36.2015 123.745 35.7056 123.726 35.0636C123.707 34.4216 123.318 33.9428 122.522 33.6313C122.095 33.447 121.339 33.2648 120.717 33.2266C120.388 33.1715 119.418 33.0613 118.932 33.0063C116.739 32.841 115.206 32.5846 114.295 32.235C112.627 31.593 111.811 30.4891 111.871 28.8915C111.871 27.2748 112.705 26.0798 114.393 25.3085C115.654 24.7386 117.265 24.4631 119.204 24.4631C122.443 24.4631 124.539 25.3636 125.49 27.1625L123.433 28.1902C122.889 27.1435 121.454 26.6286 119.125 26.6286C117.981 26.6286 116.913 26.7578 115.885 27.0502C114.877 27.3257 114.179 27.8766 114.159 28.6118C114.14 29.917 115.072 30.3026 117.304 30.6501C117.711 30.7052 118.255 30.7603 118.934 30.8154C119.263 30.8345 119.711 30.8895 120.274 30.9616C121.632 31.0908 122.738 31.2921 123.573 31.6036C125.241 32.2286 126.057 33.3474 125.997 34.9471C125.978 35.0022 125.978 35.0933 125.978 35.2035C125.861 38.1974 122.388 39.3733 118.664 39.3733V39.3797Z"
            fill="#000D1F" />
        <path
            d="M30.301 23.3557C25.567 23.3557 21.731 27.1866 21.731 31.9094C21.731 36.6323 25.569 40.4631 30.301 40.4631C35.033 40.4631 38.8719 36.6323 38.8719 31.9094C38.8719 27.1866 35.033 23.3557 30.301 23.3557ZM30.301 37.9778C26.943 37.9778 24.221 35.2614 24.221 31.9094C24.221 28.5574 26.943 25.8411 30.301 25.8411C33.66 25.8411 36.381 28.5574 36.381 31.9094C36.381 35.2614 33.66 37.9778 30.301 37.9778Z"
            fill="#000D1F" />
        <path d="M73.0009 39.0778V26.8818H66.5979V24.6782H81.7309V26.8818H75.3279V39.0778H72.9989H73.0009Z"
            fill="#000D1F" />
        <path
            d="M12.339 39.1324L6.324 32.6658L2.3268 36.2487V39.1324H0V24.7307H2.3289V33.2167L11.874 24.7117H15.268L8.031 31.1593L15.443 39.1324H12.339Z"
            fill="#000D1F" />
        <path d="M2.32861 33.2168L11.874 24.7139H15.268L2.32861 36.2489V33.2168Z" fill="#000D1F" />
        <path d="M6.32397 32.6662L8.03098 31.1619L15.445 39.1329H12.339L6.32397 32.6662Z" fill="#000D1F" />
        <path
            d="M45.158 39.0775H47.487V29.1041L59.7469 39.0775H60.312V24.6758H57.983V34.7423L45.667 24.7224H45.158V39.0775Z"
            fill="#000D1F" />
        <path
            d="M97.983 9.2651C95.355 7.9281 92.209 7.0954 88.366 6.7204C87.067 6.5996 85.71 6.5361 84.331 6.5361C81.562 6.5361 78.615 6.7776 75.316 7.2734C75.045 7.32 74.773 7.3645 74.471 7.4154C74.043 7.4853 73.601 7.5595 73.164 7.6421L72.83 6L72.287 6.4958C71.489 7.2247 70.622 7.9875 69.686 8.6316C69.003 9.0998 68.41 9.4495 67.739 9.6274L67.02 9.8436C65.181 10.3923 63.309 11.0047 61.294 11.7166C55.658 13.6871 50.153 16.2678 44.93 19.391C42.183 21.0712 39.652 22.8023 37.408 24.5334L37.043 24.8152L37.737 25.5441L38.037 25.311C47.722 17.7934 59.867 12.8014 67.34 10.8076C67.884 10.6 68.497 10.494 69.164 10.494C70.304 10.494 71.61 10.7864 73.276 11.4136L73.981 11.6785L73.646 10.0173C76.028 9.5194 80.603 8.7227 85.407 8.7227C93.111 8.7227 98.346 10.6529 100.966 14.4562C102.497 16.7891 102.671 19.6834 101.486 23.0587L101.376 23.3765L101.665 23.5503C101.909 23.6986 102.157 23.866 102.403 24.0461L102.845 24.3724L103.04 23.8617C103.692 22.1582 104.04 20.4525 104.078 18.7914C104.144 14.8864 101.866 11.3246 97.986 9.263L97.983 9.2651Z"
            fill="#413DEC" />
        <path
            d="M89.3621 38.4943L89.1011 38.2083L88.7971 38.4455C83.9631 42.2212 78.1531 45.6199 71.0371 48.8363C66.2941 50.8745 62.3261 52.2179 58.5681 53.0654C58.2311 53.1056 57.8831 53.1248 57.5341 53.1248C54.9001 53.1248 52.3591 51.9467 50.4391 50.9191L49.7091 50.5292L50.1591 53.5443C46.9261 54.377 43.6561 54.7986 40.4421 54.7986C39.9371 54.7986 39.4301 54.788 38.9291 54.7668C33.3151 54.574 28.6321 52.6225 26.3971 49.5481C24.7511 47.2831 24.4011 44.4673 25.3521 41.1873C25.3821 41.0983 25.4121 41.0115 25.4501 40.9034L25.6001 40.4795L25.3051 40.3059C25.2231 40.2572 25.1401 40.2042 25.0591 40.1533L24.6201 39.8736L24.3951 40.4922C24.3521 40.6067 24.3101 40.7212 24.2711 40.8377C22.4221 46.4186 24.5711 51.5103 29.8721 54.1249C34.5851 56.5043 39.8751 56.9641 44.8901 57.1061C45.3311 57.1146 45.7711 57.1187 46.2131 57.1187C47.7371 57.1187 49.2511 57.0721 50.6751 57.0255L51.1191 60.0003L51.6961 59.4685C53.3101 57.9832 54.8911 56.5573 56.4941 55.4322C57.3671 54.8114 58.1011 54.4002 58.8021 54.1418L61.3621 53.3706C65.3021 52.1162 68.4951 50.9594 71.4171 49.7326C78.4251 46.7577 84.5541 43.2998 89.6381 39.4541L90.0201 39.166L89.6811 38.8291C89.5701 38.7189 89.4621 38.6065 89.3581 38.4921L89.3621 38.4943Z"
            fill="#413DEC" />
        <path
            d="M96.59 23.3557C91.856 23.3557 88.019 27.1866 88.019 31.9094C88.019 36.6323 91.858 40.4631 96.59 40.4631C101.322 40.4631 105.16 36.6323 105.16 31.9094C105.16 27.1866 101.322 23.3557 96.59 23.3557ZM96.59 37.9778C93.231 37.9778 90.51 35.2614 90.51 31.9094C90.51 28.5574 93.231 25.8411 96.59 25.8411C99.948 25.8411 102.67 28.5574 102.67 31.9094C102.67 35.2614 99.948 37.9778 96.59 37.9778Z"
            fill="#000D1F" />
        <path
            d="M96.589 33.4856C97.462 33.4856 98.169 32.7798 98.169 31.9092C98.169 31.0385 97.462 30.3328 96.589 30.3328C95.717 30.3328 95.01 31.0385 95.01 31.9092C95.01 32.7798 95.717 33.4856 96.589 33.4856Z"
            fill="#000D1F" />
    </g>
    <defs>
        <clipPath id="clip0_0_188">
            <rect width="126" height="66" fill="white" />
        </clipPath>
    </defs>
</svg>