<svg width="11" height="14" viewBox="0 0 11 14" fill="none" xmlns="http://www.w3.org/2000/svg">
<path d="M5.33331 10.6667C6.06664 10.6667 6.66664 10.0667 6.66664 9.33333C6.66664 8.6 6.06664 8 5.33331 8C4.59998 8 3.99998 8.6 3.99998 9.33333C3.99998 10.0667 4.59998 10.6667 5.33331 10.6667ZM9.3333 4.66666H8.66663V3.33333C8.66663 1.49333 7.17331 0 5.33331 0C3.49332 0 1.99999 1.49333 1.99999 3.33333H3.26665C3.26665 2.19333 4.19332 1.26667 5.33331 1.26667C6.47331 1.26667 7.39997 2.19333 7.39997 3.33333V4.66666H1.33333C0.599998 4.66666 0 5.26666 0 6V12.6667C0 13.4 0.599998 14 1.33333 14H9.3333C10.0666 14 10.6666 13.4 10.6666 12.6667V6C10.6666 5.26666 10.0666 4.66666 9.3333 4.66666ZM9.3333 12.6667H1.33333V6H9.3333V12.6667Z" fill="#3840C7"/>
</svg>
