<svg width="194" height="27" viewBox="0 0 194 27" fill="none" xmlns="http://www.w3.org/2000/svg">
<path fill-rule="evenodd" clip-rule="evenodd" d="M26.028 0.798008C25.7743 0.544217 25.4729 0.343069 25.1412 0.206122C24.8094 0.0691751 24.4539 -0.000871127 24.095 8.17688e-06H24.088C23.7284 -7.167e-05 23.3724 0.0714179 23.0407 0.210311C22.709 0.349204 22.4083 0.552723 22.156 0.809008L0.798025 22.269C0.543652 22.5229 0.342151 22.8248 0.205177 23.1571C0.068203 23.4894 -0.00152524 23.8456 2.5302e-05 24.205C0.0020253 24.936 0.289025 25.623 0.807025 26.139C1.06019 26.3928 1.36105 26.5939 1.69229 26.7309C2.02353 26.8678 2.37859 26.9379 2.73703 26.937C3.47003 26.937 4.16103 26.65 4.67903 26.131L26.036 4.67001C26.5472 4.15483 26.8333 3.45809 26.8318 2.73236C26.8303 2.00663 26.5413 1.31107 26.028 0.798008Z" fill="#2DB8E3"/>
<path fill-rule="evenodd" clip-rule="evenodd" d="M38.4282 0.261019C37.9276 0.0519247 37.3759 -0.00276724 36.8441 0.103967C36.3122 0.210701 35.8243 0.473988 35.4432 0.860019L14.0832 22.322C13.5716 22.8371 13.2852 23.5341 13.2871 24.2601C13.289 24.9861 13.5789 25.6816 14.0932 26.194C14.6085 26.7056 15.3058 26.9917 16.032 26.9897C16.7581 26.9876 17.4537 26.6975 17.9662 26.183L34.6442 9.42502V24.252C34.6447 24.978 34.9333 25.6741 35.4467 26.1875C35.9601 26.7009 36.6562 26.9895 37.3822 26.99C38.1082 26.9895 38.8043 26.7009 39.3177 26.1875C39.831 25.6741 40.1196 24.978 40.1202 24.252V2.79202C40.1218 2.24972 39.9617 1.71926 39.6603 1.26842C39.3589 0.817581 38.9299 0.466841 38.4282 0.261019Z" fill="#3840C7"/>
<path fill-rule="evenodd" clip-rule="evenodd" d="M77.8191 23.5711H71.9351V21.1331H72.6771V15.9011C72.6771 14.6341 72.4551 13.7381 72.0091 13.2131C71.5641 12.6881 70.9351 12.4251 70.1231 12.4251C69.0711 12.4251 68.3051 12.7811 67.8191 13.4951C67.3321 14.2101 67.0791 15.0201 67.0611 15.9321V21.1321H69.0511V23.5711H63.1681V21.1331H63.8801V15.9011C63.8801 14.6341 63.6581 13.7381 63.2121 13.2131C62.7661 12.6881 62.1461 12.4251 61.3541 12.4251C60.3231 12.4251 59.5601 12.7771 59.0651 13.4781C58.5681 14.1831 58.3131 14.9921 58.2921 15.9011V21.1331H60.7901V23.5711H53.1201V21.1331H55.1121V12.6931H53.1501V10.2271H58.2921V12.4251C58.6957 11.7053 59.2668 11.0933 59.9571 10.6411C60.6511 10.1861 61.4911 9.95709 62.4831 9.95709C63.4731 9.95709 64.3661 10.2001 65.1591 10.6871C65.9511 11.1731 66.5041 11.9301 66.8231 12.9611C67.2181 12.0481 67.7931 11.3211 68.5461 10.7741C69.3001 10.2301 70.2211 9.95709 71.3121 9.95709C72.5181 9.95709 73.5791 10.3451 74.4901 11.1181C75.4021 11.8901 75.8581 13.1001 75.8581 14.7431V21.1331H77.8191V23.5711ZM87.5691 18.2811V17.8031L86.5281 17.6851C86.1628 17.6458 85.7956 17.6265 85.4281 17.6271C84.6361 17.6271 83.9281 17.7651 83.3041 18.0411C82.6801 18.3201 82.3671 18.8751 82.3671 19.7081C82.3671 20.9161 83.0121 21.5201 84.2991 21.5201C85.0511 21.5201 85.7671 21.2501 86.4381 20.7031C87.1131 20.1571 87.4911 19.3501 87.5691 18.2811ZM80.3171 11.2061C81.3071 10.7301 82.1901 10.4031 82.9631 10.2261C83.7351 10.0461 84.6261 9.95709 85.6371 9.95709C87.1241 9.95709 88.3471 10.3341 89.3081 11.0881C90.2681 11.8401 90.7511 12.9691 90.7511 14.4761V20.4791C90.7511 21.2721 91.0771 21.6691 91.7311 21.6691C91.9091 21.6691 92.1381 21.6281 92.4141 21.5491L92.4441 23.3051C91.7932 23.6788 91.0547 23.8731 90.3041 23.8681C88.6201 23.8681 87.7071 22.9861 87.5701 21.2221V21.1641C87.1721 21.8571 86.6131 22.4821 85.8911 23.0351C85.1671 23.5901 84.2711 23.8681 83.2011 23.8681C82.2691 23.8681 81.3531 23.5871 80.4511 23.0191C79.5491 22.4561 79.0981 21.4711 79.0981 20.0631C79.0981 18.4181 79.7541 17.3351 81.0611 16.8081C82.3681 16.2831 83.7861 16.0221 85.3111 16.0221C85.6871 16.0221 86.0721 16.0321 86.4711 16.0501C86.8671 16.0701 87.2331 16.1011 87.5701 16.1401V15.3971C87.5701 14.6041 87.4301 13.8921 87.1541 13.2571C86.8761 12.6221 86.1841 12.3051 85.0741 12.3051C84.6581 12.3051 84.2651 12.3351 83.8991 12.3951C83.5299 12.4549 83.1731 12.5751 82.8431 12.7511L82.3101 14.8011L79.7541 14.5361L80.3171 11.2061ZM101.924 10.0171C102.815 10.0171 103.648 10.2661 104.42 10.7591L104.985 14.9191L102.519 15.2181L102.014 12.9291C101.616 12.7321 101.281 12.6321 101.003 12.6321C100.448 12.6321 99.9671 12.8611 99.5601 13.3151C99.1551 13.7711 98.9521 14.4051 98.9521 15.2171V21.1331H101.596V23.5691H93.7801V21.1331H95.7721V12.6931H93.6901V10.2251H98.7141V12.7211C98.9337 11.9984 99.326 11.3401 99.8571 10.8031C100.382 10.2781 101.073 10.0171 101.924 10.0171ZM113.279 23.5701H106.144V21.1321H108.136V5.55709H106.026V3.12109H111.286V21.1311H113.279V23.5701ZM116.638 7.46109H119.878V3.95309H116.638V7.46109ZM121.958 23.5681H114.824V21.1301H116.816V12.6901H114.706V10.2241H119.966V21.1301H121.958V23.5681ZM139.613 23.5711H132.481V21.1331H134.441V15.9011C134.441 14.6341 134.216 13.7381 133.759 13.2131C133.303 12.6881 132.669 12.4251 131.857 12.4251C130.846 12.4251 130.048 12.7511 129.463 13.4051C128.878 14.0601 128.577 14.8631 128.557 15.8151V21.1331H130.548V23.5711H123.385V21.1331H125.378V12.6931H123.296V10.2271H128.557V12.3951C129.489 10.7691 130.966 9.95709 132.986 9.95709C134.254 9.95709 135.343 10.3451 136.256 11.1181C137.166 11.8901 137.623 13.1001 137.623 14.7431V21.1331H139.613V23.5711Z" fill="#161A50"/>
<rect x="147.613" y="0.995117" width="46" height="25" rx="5" fill="#161A50"/>
<path d="M164.193 7.87512V18.9951H162.369V14.1311H157.137V18.9951H155.313V7.87512H157.137V12.6431H162.369V7.87512H164.193ZM174.579 10.1791V18.9951H172.755V17.9551C172.467 18.3178 172.088 18.6058 171.619 18.8191C171.16 19.0218 170.669 19.1231 170.147 19.1231C169.453 19.1231 168.829 18.9791 168.275 18.6911C167.731 18.4031 167.299 17.9765 166.979 17.4111C166.669 16.8458 166.515 16.1631 166.515 15.3631V10.1791H168.323V15.0911C168.323 15.8805 168.52 16.4885 168.915 16.9151C169.309 17.3311 169.848 17.5391 170.531 17.5391C171.213 17.5391 171.752 17.3311 172.147 16.9151C172.552 16.4885 172.755 15.8805 172.755 15.0911V10.1791H174.579ZM178.809 11.4911C179.118 11.0645 179.54 10.7178 180.073 10.4511C180.617 10.1738 181.22 10.0351 181.881 10.0351C182.66 10.0351 183.364 10.2218 183.993 10.5951C184.622 10.9685 185.118 11.5018 185.481 12.1951C185.844 12.8778 186.025 13.6618 186.025 14.5471C186.025 15.4325 185.844 16.2271 185.481 16.9311C185.118 17.6245 184.617 18.1685 183.977 18.5631C183.348 18.9471 182.649 19.1391 181.881 19.1391C181.198 19.1391 180.59 19.0058 180.057 18.7391C179.534 18.4725 179.118 18.1311 178.809 17.7151V18.9951H176.985V7.15512H178.809V11.4911ZM184.169 14.5471C184.169 13.9391 184.041 13.4165 183.785 12.9791C183.54 12.5311 183.209 12.1951 182.793 11.9711C182.388 11.7365 181.95 11.6191 181.481 11.6191C181.022 11.6191 180.585 11.7365 180.169 11.9711C179.764 12.2058 179.433 12.5471 179.177 12.9951C178.932 13.4431 178.809 13.9711 178.809 14.5791C178.809 15.1871 178.932 15.7205 179.177 16.1791C179.433 16.6271 179.764 16.9685 180.169 17.2031C180.585 17.4378 181.022 17.5551 181.481 17.5551C181.95 17.5551 182.388 17.4378 182.793 17.2031C183.209 16.9578 183.54 16.6058 183.785 16.1471C184.041 15.6885 184.169 15.1551 184.169 14.5471Z" fill="white"/>
</svg>
