<svg width="42" height="28" viewBox="0 0 42 28" fill="none" xmlns="http://www.w3.org/2000/svg">
<g clip-path="url(#clip0_716_3914)">
<g clip-path="url(#clip1_716_3914)">
<g clip-path="url(#clip2_716_3914)">
<path fill-rule="evenodd" clip-rule="evenodd" d="M26.528 0.937657C26.2743 0.683865 25.9729 0.482717 25.6412 0.345771C25.3094 0.208824 24.9539 0.138777 24.595 0.139657H24.588C24.2284 0.139577 23.8724 0.211066 23.5407 0.349959C23.209 0.488852 22.9083 0.692371 22.656 0.948657L1.29803 22.4087C1.04365 22.6626 0.842151 22.9644 0.705177 23.2968C0.568203 23.6291 0.498475 23.9852 0.500025 24.3447C0.502025 25.0757 0.789025 25.7627 1.30703 26.2787C1.56019 26.5324 1.86105 26.7335 2.19229 26.8705C2.52353 27.0075 2.87859 27.0775 3.23703 27.0767C3.97003 27.0767 4.66103 26.7897 5.17903 26.2707L26.536 4.80966C27.0472 4.29448 27.3333 3.59773 27.3318 2.872C27.3303 2.14627 27.0413 1.45071 26.528 0.937657Z" fill="#2DB8E3"/>
<path fill-rule="evenodd" clip-rule="evenodd" d="M38.9282 0.400668C38.4276 0.191573 37.8759 0.136881 37.3441 0.243615C36.8122 0.350349 36.3243 0.613637 35.9432 0.999668L14.5832 22.4617C14.0716 22.9767 13.7852 23.6738 13.7871 24.3997C13.789 25.1257 14.0789 25.8213 14.5932 26.3337C15.1085 26.8452 15.8058 27.1314 16.532 27.1293C17.2581 27.1273 17.9537 26.8371 18.4662 26.3227L35.1442 9.56467V24.3917C35.1447 25.1177 35.4333 25.8138 35.9467 26.3271C36.4601 26.8405 37.1562 27.1291 37.8822 27.1297C38.6082 27.1291 39.3043 26.8405 39.8177 26.3271C40.331 25.8138 40.6196 25.1177 40.6202 24.3917V2.93167C40.6218 2.38937 40.4617 1.85891 40.1603 1.40807C39.8589 0.95723 39.4299 0.60649 38.9282 0.400668Z" fill="#3840C7"/>
</g>
</g>
</g>
<defs>
<clipPath id="clip0_716_3914">
<rect width="40" height="27" fill="white" transform="translate(0.5 0.139648)"/>
</clipPath>
<clipPath id="clip1_716_3914">
<rect width="140" height="27" fill="white" transform="translate(0.5 0.139648)"/>
</clipPath>
<clipPath id="clip2_716_3914">
<rect width="140" height="27" fill="white" transform="translate(0.5 0.139648)"/>
</clipPath>
</defs>
</svg>
