<svg width="194" height="27" viewBox="0 0 194 27" fill="none" xmlns="http://www.w3.org/2000/svg">
<path fill-rule="evenodd" clip-rule="evenodd" d="M26.028 0.798008C25.7743 0.544217 25.4729 0.343069 25.1412 0.206122C24.8094 0.0691751 24.4539 -0.000871127 24.095 8.17688e-06H24.088C23.7284 -7.167e-05 23.3724 0.0714179 23.0407 0.210311C22.709 0.349204 22.4083 0.552723 22.156 0.809008L0.798025 22.269C0.543652 22.5229 0.342151 22.8248 0.205177 23.1571C0.068203 23.4894 -0.00152524 23.8456 2.5302e-05 24.205C0.0020253 24.936 0.289025 25.623 0.807025 26.139C1.06018 26.3928 1.36105 26.5939 1.69229 26.7309C2.02353 26.8678 2.37859 26.9379 2.73703 26.937C3.47003 26.937 4.16103 26.65 4.67903 26.131L26.036 4.67001C26.5472 4.15483 26.8333 3.45809 26.8318 2.73236C26.8303 2.00663 26.5413 1.31107 26.028 0.798008Z" fill="#2DB8E3"/>
<path fill-rule="evenodd" clip-rule="evenodd" d="M38.4279 0.261019C37.9274 0.0519247 37.3757 -0.00276724 36.8438 0.103967C36.3119 0.210701 35.8241 0.473988 35.4429 0.860019L14.0829 22.322C13.5713 22.8371 13.285 23.5341 13.2869 24.2601C13.2887 24.9861 13.5787 25.6816 14.0929 26.194C14.6083 26.7056 15.3056 26.9917 16.0317 26.9897C16.7578 26.9876 17.4535 26.6975 17.9659 26.183L34.6439 9.42502V24.252C34.6445 24.978 34.9331 25.6741 35.4465 26.1875C35.9598 26.7009 36.6559 26.9895 37.3819 26.99C38.1079 26.9895 38.804 26.7009 39.3174 26.1875C39.8308 25.6741 40.1194 24.978 40.1199 24.252V2.79202C40.1215 2.24972 39.9614 1.71926 39.66 1.26842C39.3586 0.817581 38.9297 0.466841 38.4279 0.261019Z" fill="#3840C7"/>
<path fill-rule="evenodd" clip-rule="evenodd" d="M77.8191 23.5716H71.9351V21.1336H72.6771V15.9016C72.6771 14.6346 72.4551 13.7386 72.0091 13.2136C71.5641 12.6886 70.9351 12.4256 70.1231 12.4256C69.0711 12.4256 68.3051 12.7816 67.8191 13.4956C67.3321 14.2106 67.0791 15.0206 67.0611 15.9326V21.1326H69.0511V23.5716H63.1681V21.1336H63.8801V15.9016C63.8801 14.6346 63.6581 13.7386 63.2121 13.2136C62.7661 12.6886 62.1461 12.4256 61.3541 12.4256C60.3231 12.4256 59.5601 12.7776 59.0651 13.4786C58.5681 14.1836 58.3131 14.9926 58.2921 15.9016V21.1336H60.7901V23.5716H53.1201V21.1336H55.1121V12.6936H53.1501V10.2276H58.2921V12.4256C58.6957 11.7058 59.2668 11.0938 59.9571 10.6416C60.6511 10.1866 61.4911 9.95758 62.4831 9.95758C63.4731 9.95758 64.3661 10.2006 65.1591 10.6876C65.9511 11.1736 66.5041 11.9306 66.8231 12.9616C67.2181 12.0486 67.7931 11.3216 68.5461 10.7746C69.3001 10.2306 70.2211 9.95758 71.3121 9.95758C72.5181 9.95758 73.5791 10.3456 74.4901 11.1186C75.4021 11.8906 75.8581 13.1006 75.8581 14.7436V21.1336H77.8191V23.5716ZM87.5691 18.2816V17.8036L86.5281 17.6856C86.1628 17.6463 85.7956 17.627 85.4281 17.6276C84.6361 17.6276 83.9281 17.7656 83.3041 18.0416C82.6801 18.3206 82.3671 18.8756 82.3671 19.7086C82.3671 20.9166 83.0121 21.5206 84.2991 21.5206C85.0511 21.5206 85.7671 21.2506 86.4381 20.7036C87.1131 20.1576 87.4911 19.3506 87.5691 18.2816ZM80.3171 11.2066C81.3071 10.7306 82.1901 10.4036 82.9631 10.2266C83.7351 10.0466 84.6261 9.95758 85.6371 9.95758C87.1241 9.95758 88.3471 10.3346 89.3081 11.0886C90.2681 11.8406 90.7511 12.9696 90.7511 14.4766V20.4796C90.7511 21.2726 91.0771 21.6696 91.7311 21.6696C91.9091 21.6696 92.1381 21.6286 92.4141 21.5496L92.4441 23.3056C91.7932 23.6793 91.0547 23.8736 90.3041 23.8686C88.6201 23.8686 87.7071 22.9866 87.5701 21.2226V21.1646C87.1721 21.8576 86.6131 22.4826 85.8911 23.0356C85.1671 23.5906 84.2711 23.8686 83.2011 23.8686C82.2691 23.8686 81.3531 23.5876 80.4511 23.0196C79.5491 22.4566 79.0981 21.4716 79.0981 20.0636C79.0981 18.4186 79.7541 17.3356 81.0611 16.8086C82.3681 16.2836 83.7861 16.0226 85.3111 16.0226C85.6871 16.0226 86.0721 16.0326 86.4711 16.0506C86.8671 16.0706 87.2331 16.1016 87.5701 16.1406V15.3976C87.5701 14.6046 87.4301 13.8926 87.1541 13.2576C86.8761 12.6226 86.1841 12.3056 85.0741 12.3056C84.6581 12.3056 84.2651 12.3356 83.8991 12.3956C83.5299 12.4553 83.1731 12.5756 82.8431 12.7516L82.3101 14.8016L79.7541 14.5366L80.3171 11.2066ZM101.924 10.0176C102.815 10.0176 103.648 10.2666 104.42 10.7596L104.985 14.9196L102.519 15.2186L102.014 12.9296C101.616 12.7326 101.281 12.6326 101.003 12.6326C100.448 12.6326 99.9671 12.8616 99.5601 13.3156C99.1551 13.7716 98.9521 14.4056 98.9521 15.2176V21.1336H101.596V23.5696H93.7801V21.1336H95.7721V12.6936H93.6901V10.2256H98.7141V12.7216C98.9337 11.9989 99.326 11.3406 99.8571 10.8036C100.382 10.2786 101.073 10.0176 101.924 10.0176ZM113.279 23.5706H106.144V21.1326H108.136V5.55758H106.026V3.12158H111.286V21.1316H113.279V23.5706ZM116.638 7.46158H119.878V3.95358H116.638V7.46158ZM121.958 23.5686H114.824V21.1306H116.816V12.6906H114.706V10.2246H119.966V21.1306H121.958V23.5686ZM139.613 23.5716H132.481V21.1336H134.441V15.9016C134.441 14.6346 134.216 13.7386 133.759 13.2136C133.303 12.6886 132.669 12.4256 131.857 12.4256C130.846 12.4256 130.048 12.7516 129.463 13.4056C128.878 14.0606 128.577 14.8636 128.557 15.8156V21.1336H130.548V23.5716H123.385V21.1336H125.378V12.6936H123.296V10.2276H128.557V12.3956C129.489 10.7696 130.966 9.95758 132.986 9.95758C134.254 9.95758 135.343 10.3456 136.256 11.1186C137.166 11.8906 137.623 13.1006 137.623 14.7436V21.1336H139.613V23.5716Z" fill="white"/>
<rect x="148.113" y="1.49512" width="45" height="24" rx="4.5" fill="#161A50"/>
<rect x="148.113" y="1.49512" width="45" height="24" rx="4.5" stroke="#59C7E9"/>
<path d="M164.193 7.87512V18.9951H162.369V14.1311H157.137V18.9951H155.313V7.87512H157.137V12.6431H162.369V7.87512H164.193ZM174.578 10.1791V18.9951H172.754V17.9551C172.466 18.3178 172.088 18.6058 171.618 18.8191C171.16 19.0218 170.669 19.1231 170.146 19.1231C169.453 19.1231 168.829 18.9791 168.274 18.6911C167.73 18.4031 167.298 17.9765 166.978 17.4111C166.669 16.8458 166.514 16.1631 166.514 15.3631V10.1791H168.322V15.0911C168.322 15.8805 168.52 16.4885 168.914 16.9151C169.309 17.3311 169.848 17.5391 170.53 17.5391C171.213 17.5391 171.752 17.3311 172.146 16.9151C172.552 16.4885 172.754 15.8805 172.754 15.0911V10.1791H174.578ZM178.809 11.4911C179.118 11.0645 179.54 10.7178 180.073 10.4511C180.617 10.1738 181.22 10.0351 181.881 10.0351C182.66 10.0351 183.364 10.2218 183.993 10.5951C184.622 10.9685 185.118 11.5018 185.481 12.1951C185.844 12.8778 186.025 13.6618 186.025 14.5471C186.025 15.4325 185.844 16.2271 185.481 16.9311C185.118 17.6245 184.617 18.1685 183.977 18.5631C183.348 18.9471 182.649 19.1391 181.881 19.1391C181.198 19.1391 180.59 19.0058 180.057 18.7391C179.534 18.4725 179.118 18.1311 178.809 17.7151V18.9951H176.985V7.15512H178.809V11.4911ZM184.169 14.5471C184.169 13.9391 184.041 13.4165 183.785 12.9791C183.54 12.5311 183.209 12.1951 182.793 11.9711C182.388 11.7365 181.95 11.6191 181.481 11.6191C181.022 11.6191 180.585 11.7365 180.169 11.9711C179.764 12.2058 179.433 12.5471 179.177 12.9951C178.932 13.4431 178.809 13.9711 178.809 14.5791C178.809 15.1871 178.932 15.7205 179.177 16.1791C179.433 16.6271 179.764 16.9685 180.169 17.2031C180.585 17.4378 181.022 17.5551 181.481 17.5551C181.95 17.5551 182.388 17.4378 182.793 17.2031C183.209 16.9578 183.54 16.6058 183.785 16.1471C184.041 15.6885 184.169 15.1551 184.169 14.5471Z" fill="#59C7E9"/>
</svg>
