<svg width="126" height="53" viewBox="0 0 138 43" fill="none" xmlns="http://www.w3.org/2000/svg"><svg width="138" height="43" viewBox="0 0 138 43" fill="none" xmlns="http://www.w3.org/2000/svg"><path fill-rule="evenodd" clip-rule="evenodd" d="M21.4598 1.6998C10.5466 1.6998 1.6998 10.5466 1.6998 21.4598C1.6998 32.3729 10.5466 41.2197 21.4598 41.2197C32.3729 41.2197 41.2197 32.3729 41.2197 21.4598C41.2197 10.5466 32.3729 1.6998 21.4598 1.6998ZM0.299805 21.4598C0.299805 9.77345 9.77345 0.299805 21.4598 0.299805C33.1461 0.299805 42.6197 9.77345 42.6197 21.4598C42.6197 33.1461 33.1461 42.6197 21.4598 42.6197C9.77345 42.6197 0.299805 33.1461 0.299805 21.4598ZM28.2028 37.6666C35.5934 35.4654 39.8003 27.6896 37.5991 20.2989C35.3979 12.9082 27.6221 8.7013 20.2314 10.9025C12.8407 13.1038 8.63378 20.8796 10.835 28.2703C13.0363 35.661 20.8121 39.8679 28.2028 37.6666ZM38.9408 19.8993C41.3628 28.031 36.7341 36.5864 28.6024 39.0084C20.4707 41.4303 11.9152 36.8016 9.49326 28.6699C7.07132 20.5382 11.7 11.9827 19.8317 9.56078C27.9635 7.13884 36.5189 11.7675 38.9408 19.8993ZM18.818 20.3689C18.818 16.1226 22.2603 12.6803 26.5066 12.6803C30.7528 12.6803 34.1951 16.1226 34.1951 20.3689C34.1951 24.6152 30.7528 28.0574 26.5066 28.0574C22.2603 28.0574 18.818 24.6152 18.818 20.3689ZM26.5066 11.2803C21.4871 11.2803 17.418 15.3494 17.418 20.3689C17.418 25.3883 21.4871 29.4575 26.5066 29.4575C31.526 29.4575 35.5951 25.3883 35.5951 20.3689C35.5951 15.3494 31.526 11.2803 26.5066 11.2803ZM121.123 30.7061L116.867 16.0303H119.509L122.738 28.358L126.113 16.0303H128.755L132.13 28.358L135.359 16.0303H138L133.744 30.7061H130.662L127.434 19.0535L124.205 30.7061H121.123ZM102.789 23.369C102.789 27.625 105.137 31.1472 109.98 31.1472C114.823 31.1472 117.171 27.625 117.171 23.369C117.171 19.113 114.823 15.5908 109.98 15.5908C105.137 15.5908 102.789 19.113 102.789 23.369ZM109.98 29.3861C107.485 29.3861 105.431 27.625 105.431 23.369C105.431 19.113 107.485 17.3519 109.98 17.3519C112.475 17.3519 114.53 19.113 114.53 23.369C114.53 27.625 112.475 29.3861 109.98 29.3861ZM101.606 30.7065H99.1113V11.6279H101.606V30.7065ZM94.5537 30.7065H97.0486V11.6279H94.5537V30.7065ZM86.6433 31.1472C81.8003 31.1472 79.4521 27.625 79.4521 23.369C79.4521 19.113 81.8003 15.5908 86.4965 15.5908C91.3396 15.5908 93.2474 19.2598 93.2474 22.782V23.956H82.0938C82.2699 27.8011 84.2658 29.3861 86.6433 29.3861C88.5512 29.3861 90.1655 28.3588 90.6058 26.3042H93.1007C92.5136 29.0926 90.3123 31.1472 86.6433 31.1472ZM86.4965 17.3519C84.2365 17.3519 82.4754 18.7902 82.1525 22.1949H90.6058C90.6058 18.8195 88.7273 17.3519 86.4965 17.3519ZM58.3184 11.6279V30.7065H60.8133V14.2696L67.1239 30.7065H69.472L75.7826 14.2696V30.7065H78.2775V11.6279H74.4618L68.2979 27.7713L62.1341 11.6279H58.3184Z" fill="white"></path></svg></svg>