<svg width="60" height="60" viewBox="0 0 60 60" fill="none" xmlns="http://www.w3.org/2000/svg">
<g filter="url(#filter0_i)">
<circle cx="30" cy="30" r="30" fill="white"/>
</g>
<path d="M43.4318 34.7996L41.6198 40.9261L38.0627 39.9533L43.4318 34.7996Z" fill="#E4761B"/>
<path fill-rule="evenodd" clip-rule="evenodd" d="M43.5072 34.6758L41.6451 40.9715L37.9898 39.9718L43.5072 34.6758ZM38.1357 39.9347L41.5946 40.8807L43.3565 34.9233L38.1357 39.9347Z" fill="#E4761B"/>
<path d="M38.0627 39.9533L41.4935 35.2526L43.4318 34.7996L38.0627 39.9533Z" fill="#E4761B"/>
<path fill-rule="evenodd" clip-rule="evenodd" d="M43.5549 34.7326L38.0882 39.9801L38.0325 39.9314L41.4715 35.2195L43.5549 34.7326ZM41.5152 35.2856L38.3414 39.634L43.3082 34.8665L41.5152 35.2856Z" fill="#E4761B"/>
<path d="M40.7659 30.1805L43.4318 34.7995L41.4936 35.2525L40.7659 30.1805ZM40.7659 30.1805L42.4813 28.9923L43.4318 34.7995L40.7659 30.1805Z" fill="#F6851B"/>
<path fill-rule="evenodd" clip-rule="evenodd" d="M42.5083 28.9283L43.4672 34.7869L43.4888 34.8243L41.4624 35.2979L40.7299 30.1929L40.7164 30.1694L42.5083 28.9283ZM40.8298 30.3658L43.3745 34.7748L41.5244 35.2072L40.8298 30.3658ZM43.3622 34.6049L40.8149 30.1916L42.454 29.0563L43.3622 34.6049Z" fill="#F6851B"/>
<path d="M38.5825 26.6903L43.5135 24.6703L43.2684 25.7768L38.5825 26.6903ZM43.1125 27.1061L38.5825 26.6903L43.2684 25.7768L43.1125 27.1061Z" fill="#763D16"/>
<path fill-rule="evenodd" clip-rule="evenodd" d="M43.565 24.6091L43.305 25.783L43.1451 27.1464L38.5791 26.7272L38.5769 26.6843L38.5684 26.6559L43.565 24.6091ZM38.9456 26.5816L43.2374 25.745L43.4618 24.7316L38.9456 26.5816ZM38.8445 26.677L43.2256 25.823L43.0798 27.0658L38.8445 26.677Z" fill="#763D16"/>
<path d="M43.1125 27.1061L42.4812 28.9923L38.5825 26.6903L43.1125 27.1061ZM44.1001 25.1382L43.2684 25.7768L43.5135 24.6703L44.1001 25.1382ZM43.1125 27.1061L43.2684 25.7768L43.9293 26.3264L43.1125 27.1061Z" fill="#763D16"/>
<path fill-rule="evenodd" clip-rule="evenodd" d="M43.4899 24.6042L44.1602 25.1387L43.3277 25.778L43.9849 26.3244L43.1446 27.1266L42.5017 29.0476L38.5635 26.7222L38.5858 26.6533L43.0796 27.0658L43.2211 25.8598L43.2099 25.8684L43.2316 25.7706L43.2393 25.7045L43.2452 25.7093L43.4899 24.6042ZM43.2971 25.8491L43.1612 27.0081L43.8734 26.3283L43.2971 25.8491ZM43.3266 25.6852L44.0397 25.1376L43.5367 24.7365L43.3266 25.6852ZM43.0622 27.1388L38.7436 26.7423L42.4604 28.937L43.0622 27.1388Z" fill="#763D16"/>
<path d="M34.2382 38.4606L35.4709 38.8542L38.0626 39.9533L34.2382 38.4606Z" fill="#E2761B"/>
<path fill-rule="evenodd" clip-rule="evenodd" d="M34.2248 38.4952L34.2496 38.4252L35.484 38.8193L38.0772 39.9191L38.0492 39.9878L34.2248 38.4952ZM35.3484 38.854L35.6887 38.9868L35.4581 38.889L35.3484 38.854Z" fill="#E2761B"/>
<path d="M42.4813 28.9923L43.1125 27.1061L43.6546 27.522L42.4813 28.9923ZM42.4813 28.9923L37.3647 27.3066L38.5826 26.6902L42.4813 28.9923Z" fill="#763D16"/>
<path fill-rule="evenodd" clip-rule="evenodd" d="M38.5839 26.6479L42.4605 28.937L43.0937 27.045L43.7071 27.5156L42.5102 29.0155L42.482 29.0002L42.4696 29.0276L37.268 27.3139L38.5839 26.6479ZM42.5829 28.8053L43.6019 27.5284L43.1311 27.1673L42.5829 28.8053ZM42.1662 28.8495L37.4612 27.2994L38.5811 26.7326L42.1662 28.8495Z" fill="#763D16"/>
<path d="M39.8004 20.9053L38.5826 26.6902L37.3647 27.3066L39.8004 20.9053Z" fill="#763D16"/>
<path fill-rule="evenodd" clip-rule="evenodd" d="M37.4333 27.2302L38.5497 26.6652L39.6661 21.3622L37.4333 27.2302ZM39.7655 20.8921L39.8366 20.9129L38.615 26.7153L37.2957 27.383L39.7655 20.8921Z" fill="#763D16"/>
<path d="M43.5135 24.6703L38.5825 26.6902L39.8004 20.9053L43.5135 24.6703Z" fill="#763D16"/>
<path fill-rule="evenodd" clip-rule="evenodd" d="M39.7784 20.83L43.5788 24.6837L38.5318 26.7512L39.7784 20.83ZM39.8225 20.9806L38.6333 26.6293L43.4482 24.657L39.8225 20.9806Z" fill="#763D16"/>
<path d="M39.8004 20.9053L44.9467 20.3112L43.5134 24.6703L39.8004 20.9053Z" fill="#763D16"/>
<path fill-rule="evenodd" clip-rule="evenodd" d="M44.9999 20.2677L43.5296 24.7398L39.7203 20.8772L44.9999 20.2677ZM39.8802 20.9335L43.497 24.601L44.8931 20.3548L39.8802 20.9335Z" fill="#763D16"/>
<path d="M42.4813 28.9923L40.7658 30.1805L37.3647 27.3066L42.4813 28.9923Z" fill="#F6851B"/>
<path fill-rule="evenodd" clip-rule="evenodd" d="M37.3405 27.3349L37.3761 27.2713L42.5635 28.9804L40.7634 30.2272L37.3405 27.3349ZM37.5346 27.4017L40.7679 30.1338L42.3986 29.0042L37.5346 27.4017Z" fill="#F6851B"/>
<path d="M44.7239 16.1451L44.9467 20.3112L39.8004 20.9053L44.7239 16.1451Z" fill="#763D16"/>
<path fill-rule="evenodd" clip-rule="evenodd" d="M44.7568 16.0618L44.9858 20.3441L39.696 20.9547L44.7568 16.0618ZM39.9051 20.8558L44.9079 20.2783L44.6913 16.2284L39.9051 20.8558Z" fill="#763D16"/>
<path d="M44.724 16.1451L34.4388 23.6232L34.3052 18.5512L44.724 16.1451Z" fill="#E2761B"/>
<path fill-rule="evenodd" clip-rule="evenodd" d="M34.3429 18.5805L34.4739 23.5517L44.5545 16.2223L34.3429 18.5805ZM44.7155 16.1089L44.7457 16.1752L34.4034 23.6948L34.2671 18.5218L44.7155 16.1089Z" fill="#E2761B"/>
<path d="M26.6561 17.9423L34.305 18.5512L34.4387 23.6232L26.6561 17.9423Z" fill="#F6851B"/>
<path fill-rule="evenodd" clip-rule="evenodd" d="M26.5281 17.8948L34.3412 18.5168L34.4778 23.6978L26.5281 17.8948ZM26.7841 17.9897L34.3996 23.5487L34.2688 18.5856L26.7841 17.9897Z" fill="#F6851B"/>
<path d="M37.3646 27.3066L34.4387 23.6232L39.8003 20.9053L37.3646 27.3066Z" fill="#763D16"/>
<path fill-rule="evenodd" clip-rule="evenodd" d="M39.8691 20.8287L37.3759 27.3808L34.3812 23.6107L39.8691 20.8287ZM34.4959 23.6358L37.3529 27.2324L39.7314 20.9818L34.4959 23.6358Z" fill="#763D16"/>
<path d="M37.3647 27.3066L40.7658 30.1805L35.9908 30.7077L37.3647 27.3066Z" fill="#E4761B"/>
<path fill-rule="evenodd" clip-rule="evenodd" d="M37.3493 27.2451L40.8557 30.2079L35.933 30.7515L37.3493 27.2451ZM37.3797 27.3681L36.0484 30.664L40.6757 30.1531L37.3797 27.3681Z" fill="#E4761B"/>
<path d="M35.9907 30.7078L34.4387 23.6233L37.3646 27.3066L35.9907 30.7078Z" fill="#E4761B"/>
<path fill-rule="evenodd" clip-rule="evenodd" d="M34.4024 23.6312L34.4677 23.6002L37.4071 27.3005L35.9802 30.8331L34.4024 23.6312ZM34.5092 23.7718L36.0013 30.5825L37.322 27.3128L34.5092 23.7718Z" fill="#E4761B"/>
<path d="M39.8003 20.9053L34.4387 23.6232L44.7238 16.1451L39.8003 20.9053Z" fill="#763D16"/>
<path fill-rule="evenodd" clip-rule="evenodd" d="M34.8363 23.3801L39.7786 20.8747L44.317 16.4869L34.8363 23.3801ZM34.4169 23.5932L44.702 16.1151L44.7497 16.1718L39.8221 20.9359L34.4555 23.6564L34.4169 23.5932Z" fill="#763D16"/>
<path d="M26.7231 39.8345L29.1514 42.3668L25.8468 39.3592L26.7231 39.8345Z" fill="#C0AD9E"/>
<path fill-rule="evenodd" clip-rule="evenodd" d="M25.8217 39.3866L25.8644 39.3265L26.7458 39.8046L29.1781 42.3411L29.1263 42.3942L25.8217 39.3866ZM26.0981 39.5378L28.3687 41.6043L26.7002 39.8643L26.0981 39.5378Z" fill="#C0AD9E"/>
<path d="M38.0627 39.9533L39.2137 35.5793L41.4935 35.2526L38.0627 39.9533Z" fill="#CD6116"/>
<path fill-rule="evenodd" clip-rule="evenodd" d="M41.5755 35.2033L38.0927 39.9752L38.0268 39.9438L39.1841 35.546L41.5755 35.2033ZM39.2434 35.6126L38.1487 39.7725L41.4117 35.3018L39.2434 35.6126Z" fill="#CD6116"/>
<path d="M16.8757 27.6482L21.0789 23.2297L17.4178 27.121L16.8757 27.6482Z" fill="#E2761B"/>
<path d="M41.4935 35.2525L39.2137 35.5793L40.7657 30.1805L41.4935 35.2525ZM34.4387 23.6232L30.3469 23.4896L26.6561 17.9423L34.4387 23.6232Z" fill="#F6851B"/>
<path fill-rule="evenodd" clip-rule="evenodd" d="M26.625 17.9629L26.6778 17.9123L34.5577 23.6643L30.3264 23.5261L26.625 17.9629ZM26.8021 18.095L30.367 23.4531L34.3193 23.5822L26.8021 18.095ZM39.265 35.5344L41.4513 35.2211L40.7534 30.3572L39.265 35.5344ZM40.7298 30.1703L40.8023 30.1752L41.5353 35.284L39.1619 35.6242L40.7298 30.1703Z" fill="#F6851B"/>
<path d="M40.7656 30.1805L39.2136 35.5793L39.0873 32.943L40.7656 30.1805Z" fill="#E4751F"/>
<path fill-rule="evenodd" clip-rule="evenodd" d="M39.1251 32.9526L39.24 35.3532L40.6534 30.4369L39.1251 32.9526ZM40.734 30.1612L40.8014 30.1907L39.2494 35.5895L39.1766 35.581L39.0498 32.9334L40.734 30.1612Z" fill="#E4751F"/>
<path d="M35.9908 30.7077L40.7658 30.1805L39.0875 32.943L35.9908 30.7077Z" fill="#CD6116"/>
<path fill-rule="evenodd" clip-rule="evenodd" d="M40.8367 30.1353L39.0983 32.9966L35.8909 30.6814L40.8367 30.1353ZM36.0907 30.7341L39.0766 32.8894L40.6949 30.2257L36.0907 30.7341Z" fill="#CD6116"/>
<path d="M30.347 23.4896L34.4388 23.6233L35.9908 30.7078L30.347 23.4896Z" fill="#F6851B"/>
<path fill-rule="evenodd" clip-rule="evenodd" d="M30.2686 23.4498L34.4687 23.587L36.0269 30.6998L35.9614 30.7306L30.2686 23.4498ZM30.425 23.5292L35.9195 30.5564L34.4085 23.6594L30.425 23.5292Z" fill="#F6851B"/>
<path d="M30.3469 23.4896L19.3043 13.2712L26.6562 17.9423L30.3469 23.4896ZM26.6487 41.3865L17.0542 44.357L15.1382 37.0422L26.6487 41.3865Z" fill="#E4761B"/>
<path fill-rule="evenodd" clip-rule="evenodd" d="M19.279 13.2985L19.3241 13.2399L26.6826 17.9151L30.3778 23.469L30.3216 23.5168L19.279 13.2985ZM19.6304 13.5224L30.1432 23.2505L26.6295 17.9694L19.6304 13.5224ZM15.084 36.9821L26.763 41.3899L17.028 44.4039L15.084 36.9821ZM15.1923 37.1023L17.0802 44.31L26.5343 41.383L15.1923 37.1023Z" fill="#E4761B"/>
<path d="M18.3019 29.475L21.9259 26.6308L24.9632 27.3363L18.3019 29.475Z" fill="#763D16"/>
<path fill-rule="evenodd" clip-rule="evenodd" d="M21.9166 26.5906L25.1022 27.3306L18.313 29.5104L18.2787 29.4458L21.9166 26.5906ZM21.9345 26.671L18.4875 29.3764L24.8235 27.3421L21.9345 26.671Z" fill="#763D16"/>
<path d="M24.9629 27.3363L21.9256 26.6308L23.5519 19.9176L24.9629 27.3363Z" fill="#763D16"/>
<path fill-rule="evenodd" clip-rule="evenodd" d="M21.9706 26.6031L24.9158 27.2872L23.5476 20.0934L21.9706 26.6031ZM23.5159 19.9089L23.5884 19.9107L25.0101 27.3854L21.8807 26.6585L23.5159 19.9089Z" fill="#763D16"/>
<path d="M17.4179 27.1209L21.9256 26.6308L18.3016 29.475L17.4179 27.1209Z" fill="#763D16"/>
<path fill-rule="evenodd" clip-rule="evenodd" d="M22.0507 26.5799L18.2848 29.5355L17.3665 27.0892L22.0507 26.5799ZM17.4696 27.1527L18.3187 29.4145L21.8006 26.6818L17.4696 27.1527Z" fill="#763D16"/>
<path d="M39.0875 32.943L37.2162 31.9999L35.9908 30.7078L39.0875 32.943Z" fill="#CD6116"/>
<path fill-rule="evenodd" clip-rule="evenodd" d="M35.9637 30.7333L36.0124 30.6777L39.1091 32.9129L39.0707 32.9762L37.1935 32.0302L35.9637 30.7333ZM36.2905 30.97L37.2385 31.9697L38.6863 32.6993L36.2905 30.97Z" fill="#CD6116"/>
<path d="M17.4181 27.121L17.0988 25.4352L21.9257 26.6308L17.4181 27.121Z" fill="#763D16"/>
<path fill-rule="evenodd" clip-rule="evenodd" d="M17.0513 25.3853L21.9345 26.5948L21.9296 26.6677L17.3878 27.1616L17.0513 25.3853ZM17.1458 25.4852L17.448 27.0803L21.7134 26.6165L17.1458 25.4852Z" fill="#763D16"/>
<path d="M36.83 34.1238L37.2162 31.9999L39.0876 32.9431L36.83 34.1238Z" fill="#233447"/>
<path fill-rule="evenodd" clip-rule="evenodd" d="M37.1883 31.9444L39.1686 32.9424L36.7797 34.1919L37.1883 31.9444ZM37.2436 32.0554L36.8799 34.0557L39.006 32.9436L37.2436 32.0554Z" fill="#233447"/>
<path d="M39.2138 35.5793L36.83 34.1237L39.0876 32.943L39.2138 35.5793Z" fill="#F6851B"/>
<path fill-rule="evenodd" clip-rule="evenodd" d="M39.1216 32.8832L39.254 35.6475L36.7544 34.1213L39.1216 32.8832ZM36.9051 34.1263L39.1731 35.5111L39.053 33.0029L36.9051 34.1263Z" fill="#F6851B"/>
<path d="M21.9258 26.6308L17.0988 25.4352L16.7053 24.0168L21.9258 26.6308ZM23.5521 19.9176L21.9258 26.6308L16.7053 24.0168L23.5521 19.9176ZM23.5521 19.9176L30.347 23.4896L24.9631 27.3363L23.5521 19.9176Z" fill="#763D16"/>
<path fill-rule="evenodd" clip-rule="evenodd" d="M23.4952 19.995L16.7824 24.014L21.9008 26.5768L23.4952 19.995ZM21.6106 26.5145L16.7634 24.0875L17.1289 25.4044L21.6106 26.5145ZM16.662 23.9995L16.6282 24.0198L16.6739 24.0427L17.0689 25.4661L21.9129 26.6659L21.951 26.6849L23.5478 20.0934L24.9375 27.4003L30.4177 23.4848L23.5951 19.8982L23.6091 19.8403L23.551 19.8751L23.5013 19.849L23.5109 19.8991L16.7037 23.9745L16.6472 23.9462L16.662 23.9995ZM23.603 19.9863L24.9888 27.2724L30.2765 23.4944L23.603 19.9863Z" fill="#763D16"/>
<path d="M24.9631 27.3363L30.3471 23.4896L32.7457 30.8192L24.9631 27.3363ZM32.7457 30.8192L25.3047 30.6632L24.9631 27.3363L32.7457 30.8192Z" fill="#E4761B"/>
<path fill-rule="evenodd" clip-rule="evenodd" d="M30.3666 23.4299L32.807 30.8873L32.7373 30.8561L25.2711 30.6996L24.9283 27.3614L24.8888 27.3437L24.9239 27.3186L24.9196 27.2761L24.9588 27.2937L30.3666 23.4299ZM25.0066 27.3964L32.5632 30.7782L25.3383 30.6267L25.0066 27.3964ZM32.6843 30.751L25.0374 27.3288L30.3274 23.5492L32.6843 30.751Z" fill="#E4761B"/>
<path d="M18.3019 29.4751L24.9632 27.3363L25.3048 30.6632L18.3019 29.4751ZM35.991 30.7078L32.7457 30.8192L30.3471 23.4896L35.991 30.7078Z" fill="#F6851B"/>
<path fill-rule="evenodd" clip-rule="evenodd" d="M30.3114 23.5011L30.376 23.4667L36.0648 30.7423L32.7188 30.8572L30.3114 23.5011ZM30.4478 23.6792L32.772 30.7811L35.9164 30.6731L30.4478 23.6792ZM24.9951 27.2869L25.3463 30.7079L18.2954 29.5116L18.2902 29.4396L24.9951 27.2869ZM18.4578 29.4638L25.2625 30.6184L24.9305 27.3856L18.4578 29.4638Z" fill="#F6851B"/>
<path d="M37.2162 31.9999L36.83 34.1238L35.9908 30.7078L37.2162 31.9999Z" fill="#CD6116"/>
<path fill-rule="evenodd" clip-rule="evenodd" d="M35.9213 30.5805L37.256 31.988L36.8664 34.1304L36.7938 34.1326L35.9213 30.5805ZM36.0602 30.835L36.8245 33.946L37.1762 32.0118L36.0602 30.835Z" fill="#CD6116"/>
<path d="M19.3043 13.2712L30.3469 23.4896L23.552 19.9176L19.3043 13.2712Z" fill="#763D16"/>
<path fill-rule="evenodd" clip-rule="evenodd" d="M19.2731 13.2912L19.3296 13.244L30.3723 23.4623L30.3298 23.5224L23.5262 19.9459L19.2731 13.2912ZM19.4914 13.4948L23.5781 19.8893L30.1155 23.3259L19.4914 13.4948Z" fill="#763D16"/>
<path d="M15.1382 37.0422L24.4506 36.6561L26.6487 41.3865L15.1382 37.0422Z" fill="#E4761B"/>
<path fill-rule="evenodd" clip-rule="evenodd" d="M24.4737 36.6179L26.7207 41.4533L15.1251 37.0769L15.1366 37.0051L24.4737 36.6179ZM15.3216 37.0718L26.5766 41.3196L24.4273 36.6942L15.3216 37.0718Z" fill="#E4761B"/>
<path d="M26.6488 41.3865L24.4506 36.6561L29.0251 36.4333L26.6488 41.3865Z" fill="#CD6116"/>
<path fill-rule="evenodd" clip-rule="evenodd" d="M29.0855 36.3932L26.6482 41.4735L24.3937 36.6217L29.0855 36.3932ZM24.5075 36.6905L26.6493 41.2996L28.9647 36.4734L24.5075 36.6905Z" fill="#CD6116"/>
<path d="M36.8299 34.1238L39.2137 35.5793L40.5281 38.676L36.8299 34.1238ZM25.3046 30.6632L15.1382 37.0422L18.3018 29.475L25.3046 30.6632ZM24.4506 36.6561L15.1382 37.0422L25.3046 30.6632L24.4506 36.6561ZM35.9908 30.7078L36.5997 32.9208L33.659 33.0916L35.9908 30.7078ZM33.659 33.0916L32.7456 30.8192L35.9908 30.7078L33.659 33.0916Z" fill="#F6851B"/>
<path fill-rule="evenodd" clip-rule="evenodd" d="M18.2789 29.4335L25.2968 30.6242L25.3526 30.5892L25.3464 30.6326L25.4068 30.6429L25.3389 30.6855L24.483 36.6919L15.1496 37.0789L15.0588 37.1359L15.0815 37.0817L15 37.0851L15.1085 37.017L18.2789 29.4335ZM18.3246 29.5166L15.2176 36.9486L25.2023 30.6835L18.3246 29.5166ZM25.2565 30.7372L15.2764 36.9993L24.4182 36.6202L25.2565 30.7372ZM36.0322 30.7185L36.0821 30.6675L36.0188 30.6696L36.0094 30.6356L35.9746 30.6712L32.6913 30.7838L33.6155 33.0829L33.5653 33.1342L33.6345 33.1301L33.6457 33.1582L33.6754 33.1278L36.6477 32.9551L36.0322 30.7185ZM32.7997 30.8544L33.6722 33.0249L35.8994 30.748L32.7997 30.8544ZM35.9721 30.7799L33.7526 33.0489L36.5517 32.8863L35.9721 30.7799ZM36.8011 34.1472L36.8493 34.0921L39.2432 35.5538L40.5623 38.6615L40.4993 38.6994L36.8011 34.1472ZM36.995 34.2681L40.3913 38.4487L39.1842 35.6048L36.995 34.2681Z" fill="#F6851B"/>
<path d="M29.1514 42.3668L26.6488 41.3865L35.3522 42.8495L29.1514 42.3668Z" fill="#C0AD9E"/>
<path fill-rule="evenodd" clip-rule="evenodd" d="M26.6353 41.4211L26.655 41.3499L35.3584 42.8129L35.3493 42.8865L29.143 42.4034L26.6353 41.4211ZM26.9955 41.4825L29.1598 42.3302L34.5223 42.7476L26.9955 41.4825Z" fill="#C0AD9E"/>
<path d="M18.3015 29.4751L16.8757 27.6482L17.4178 27.121L18.3015 29.4751Z" fill="#763D16"/>
<path fill-rule="evenodd" clip-rule="evenodd" d="M17.433 27.0547L18.3366 29.462L18.2726 29.4979L16.8263 27.6448L17.433 27.0547ZM16.9258 27.6516L18.1818 29.2608L17.4033 27.1871L16.9258 27.6516Z" fill="#763D16"/>
<path d="M36.3399 41.7653L35.3522 42.8495L26.6488 41.3865L36.3399 41.7653Z" fill="#D7C1B3"/>
<path fill-rule="evenodd" clip-rule="evenodd" d="M26.6426 41.4231L26.6502 41.3494L36.421 41.7313L35.366 42.8894L26.6426 41.4231ZM27.2286 41.4463L35.3383 42.8095L36.2586 41.7992L27.2286 41.4463Z" fill="#D7C1B3"/>
<path d="M36.8077 39.1067L26.6488 41.3865L29.0252 36.4333L36.8077 39.1067Z" fill="#E4761B"/>
<path fill-rule="evenodd" clip-rule="evenodd" d="M29.0059 36.3875L36.9438 39.1142L26.5822 41.4395L29.0059 36.3875ZM29.0443 36.4792L26.7154 41.3335L36.6716 39.0992L29.0443 36.4792Z" fill="#E4761B"/>
<path d="M26.6488 41.3865L36.8077 39.1067L36.3399 41.7652L26.6488 41.3865Z" fill="#D7C1B3"/>
<path fill-rule="evenodd" clip-rule="evenodd" d="M36.8538 39.0583L36.3707 41.8036L26.6472 41.4236L26.6406 41.3503L36.8538 39.0583ZM26.9341 41.3605L36.3088 41.7269L36.7614 39.1551L26.9341 41.3605Z" fill="#D7C1B3"/>
<path d="M16.7051 24.0168L16.3709 18.3062L23.552 19.9176L16.7051 24.0168ZM17.418 27.121L16.4303 26.1184L17.0987 25.4352L17.418 27.121Z" fill="#763D16"/>
<path fill-rule="evenodd" clip-rule="evenodd" d="M16.331 18.2592L23.6508 19.9018L16.6716 24.0802L16.331 18.2592ZM16.4109 18.3532L16.7386 23.9535L23.4532 19.9335L16.4109 18.3532ZM17.1219 25.3584L17.4772 27.234L16.3783 26.1185L17.1219 25.3584ZM16.4824 26.1184L17.3588 27.008L17.0755 25.5121L16.4824 26.1184Z" fill="#763D16"/>
<path d="M31.0822 32.2895L32.7456 30.8192L32.508 34.4134L31.0822 32.2895Z" fill="#CD6116"/>
<path fill-rule="evenodd" clip-rule="evenodd" d="M32.7885 30.7316L32.5377 34.5245L31.0331 32.2832L32.7885 30.7316ZM31.131 32.2958L32.478 34.3023L32.7025 30.9067L31.131 32.2958Z" fill="#CD6116"/>
<path d="M32.7455 30.8192L31.082 32.2895L28.6611 33.5445L32.7455 30.8192Z" fill="#CD6116"/>
<path fill-rule="evenodd" clip-rule="evenodd" d="M29.242 33.2016L31.061 32.2587L32.3108 31.1539L29.242 33.2016ZM28.6406 33.5137L32.725 30.7883L32.7702 30.847L31.1033 32.3204L28.6783 33.5775L28.6406 33.5137Z" fill="#CD6116"/>
<path d="M40.5282 38.676L40.0752 38.3418L36.83 34.1238L40.5282 38.676Z" fill="#F6851B"/>
<path fill-rule="evenodd" clip-rule="evenodd" d="M36.8005 34.1464L36.8588 34.1003L40.557 38.6526L40.5061 38.7058L40.0489 38.3686L36.8005 34.1464ZM38.5697 36.3242L40.1014 38.315L40.3152 38.4727L38.5697 36.3242Z" fill="#F6851B"/>
<path d="M28.6612 33.5445L25.3046 30.6632L32.7456 30.8192L28.6612 33.5445Z" fill="#CD6116"/>
<path fill-rule="evenodd" clip-rule="evenodd" d="M25.2019 30.6239L32.8645 30.7845L28.6585 33.591L25.2019 30.6239ZM25.4075 30.7025L28.6641 33.498L32.6268 30.8538L25.4075 30.7025Z" fill="#CD6116"/>
<path d="M32.508 34.4134L32.7456 30.8192L33.659 33.0915L32.508 34.4134Z" fill="#E4751F"/>
<path fill-rule="evenodd" clip-rule="evenodd" d="M32.7086 30.8167L32.7801 30.8053L33.702 33.0988L32.4637 34.5208L32.7086 30.8167ZM32.7719 30.9841L32.5523 34.306L33.6161 33.0843L32.7719 30.9841Z" fill="#E4751F"/>
<path d="M16.1036 24.5812L16.7051 24.0168L17.0987 25.4352L16.1036 24.5812Z" fill="#763D16"/>
<path fill-rule="evenodd" clip-rule="evenodd" d="M16.7244 23.9478L17.167 25.5429L16.0479 24.5825L16.7244 23.9478ZM16.1591 24.58L17.0302 25.3276L16.6856 24.0859L16.1591 24.58Z" fill="#763D16"/>
<path d="M32.5079 34.4134L28.6611 33.5445L31.082 32.2895L32.5079 34.4134Z" fill="#233447"/>
<path fill-rule="evenodd" clip-rule="evenodd" d="M31.0944 32.2413L32.5907 34.4701L28.5538 33.5583L31.0944 32.2413ZM28.7685 33.5307L32.4251 34.3566L31.0697 32.3377L28.7685 33.5307Z" fill="#233447"/>
<path d="M23.552 19.9176L16.3709 18.3061L19.3042 13.2712L23.552 19.9176Z" fill="#763D16"/>
<path fill-rule="evenodd" clip-rule="evenodd" d="M19.3029 13.2L23.6319 19.9736L16.3134 18.3313L19.3029 13.2ZM19.3058 13.3425L16.4286 18.281L23.4722 19.8617L19.3058 13.3425Z" fill="#763D16"/>
<path d="M35.3521 42.8495L35.7605 43.9634L29.1513 42.3668L35.3521 42.8495Z" fill="#C0AD9E"/>
<path fill-rule="evenodd" clip-rule="evenodd" d="M29.1427 42.4029L29.1543 42.3298L35.3789 42.8143L35.8194 44.0158L29.1427 42.4029ZM29.6122 42.4399L35.7019 43.911L35.3256 42.8847L29.6122 42.4399Z" fill="#C0AD9E"/>
<path d="M29.025 36.4333L28.6611 33.5446L32.5079 34.4134L29.025 36.4333Z" fill="#F6851B"/>
<path fill-rule="evenodd" clip-rule="evenodd" d="M28.6177 33.4967L32.6084 34.3981L28.9952 36.4936L28.6177 33.4967ZM28.7046 33.5925L29.0549 36.3731L32.4074 34.4288L28.7046 33.5925Z" fill="#F6851B"/>
<path d="M25.3046 30.6632L28.6612 33.5445L29.0251 36.4333L25.3046 30.6632Z" fill="#E4751F"/>
<path fill-rule="evenodd" clip-rule="evenodd" d="M25.2733 30.6833L25.3287 30.635L28.6962 33.5257L29.0618 36.4286L28.9938 36.4534L25.2733 30.6833ZM25.4741 30.8577L28.9678 36.276L28.6261 33.5634L25.4741 30.8577Z" fill="#E4751F"/>
<path d="M33.659 33.0915L36.5997 32.9207L40.0752 38.3418L33.659 33.0915ZM25.3046 30.6632L29.0251 36.4333L24.4506 36.6561L25.3046 30.6632Z" fill="#F6851B"/>
<path fill-rule="evenodd" clip-rule="evenodd" d="M25.282 30.5594L29.0913 36.4673L24.4076 36.6954L25.282 30.5594ZM25.3274 30.767L24.4938 36.6168L28.9591 36.3993L25.3274 30.767ZM36.6194 32.8824L40.1065 38.3218L40.0517 38.3705L33.5619 33.06L36.6194 32.8824ZM33.7563 33.1231L39.9178 38.165L36.5803 32.9591L33.7563 33.1231Z" fill="#F6851B"/>
<path d="M33.659 33.0916L37.3127 38.6537L32.508 34.4134L33.659 33.0916Z" fill="#E4751F"/>
<path fill-rule="evenodd" clip-rule="evenodd" d="M33.6632 33.0303L37.3438 38.6334L37.2882 38.6816L32.4558 34.4169L33.6632 33.0303ZM32.5603 34.41L37.1296 38.4426L33.6549 33.1529L32.5603 34.41Z" fill="#E4751F"/>
<path d="M32.508 34.4134L37.3127 38.6537L36.8077 39.1067L32.508 34.4134Z" fill="#F6851B"/>
<path fill-rule="evenodd" clip-rule="evenodd" d="M32.4803 34.4385L32.5323 34.3856L37.3683 38.6535L36.8049 39.1589L32.4803 34.4385ZM33.0077 34.9041L36.81 39.0545L37.2566 38.6539L33.0077 34.9041Z" fill="#F6851B"/>
<path d="M36.8077 39.1067L29.0251 36.4333L32.508 34.4134L36.8077 39.1067ZM40.0752 38.3418L37.3127 38.6537L33.659 33.0916L40.0752 38.3418Z" fill="#F6851B"/>
<path fill-rule="evenodd" clip-rule="evenodd" d="M33.628 33.1119L33.6826 33.0628L40.1669 38.3688L37.2942 38.6932L33.628 33.1119ZM33.8232 33.2739L37.3312 38.6142L39.9836 38.3148L33.8232 33.2739ZM32.5152 34.3663L36.8351 39.0816L36.7957 39.1418L28.9362 36.442L32.5152 34.3663ZM29.1141 36.4246L36.6818 39.0242L32.5008 34.4605L29.1141 36.4246Z" fill="#F6851B"/>
<path d="M40.8029 40.9558L39.6148 43.3396L35.7606 43.9634L40.8029 40.9558ZM35.7606 43.9634L35.3522 42.8495L36.3398 41.7653L35.7606 43.9634Z" fill="#C0AD9E"/>
<path fill-rule="evenodd" clip-rule="evenodd" d="M40.8926 40.8591L39.6394 43.3732L35.7903 43.9962L35.7664 44.0871L35.3095 42.8411L36.3123 41.7403L36.3757 41.7747L35.8196 43.8849L40.8926 40.8591ZM35.7548 43.8397L36.2653 41.9021L35.3947 42.8578L35.7548 43.8397ZM35.9466 43.8957L39.59 43.306L40.7132 41.0526L35.9466 43.8957Z" fill="#C0AD9E"/>
<path d="M36.3397 41.7653L37.0675 41.4756L35.7605 43.9634L36.3397 41.7653ZM35.7605 43.9634L37.0675 41.4756L40.8028 40.9558L35.7605 43.9634Z" fill="#C0AD9E"/>
<path fill-rule="evenodd" clip-rule="evenodd" d="M37.058 41.4395L37.0435 41.4415L37.0411 41.4462L36.3087 41.7377L35.7257 43.9498L35.6664 44.0628L40.8219 40.9877L40.7978 40.919L37.134 41.4289L37.1471 41.404L37.058 41.4395ZM36.988 41.5472L35.8798 43.6565L36.3709 41.7928L36.988 41.5472ZM35.8547 43.864L37.0915 41.5098L40.6264 41.0178L35.8547 43.864Z" fill="#C0AD9E"/>
<path d="M40.0751 38.3418L40.9885 38.8988L38.2112 39.2329L40.0751 38.3418Z" fill="#161616"/>
<path fill-rule="evenodd" clip-rule="evenodd" d="M40.0774 38.2996L41.0994 38.9228L38.2157 39.2698L38.1953 39.1994L40.0774 38.2996ZM38.4308 39.1691L40.8778 38.8747L40.0731 38.384L38.4308 39.1691Z" fill="#161616"/>
<path d="M38.2112 39.2329L37.3127 38.6537L40.0752 38.3418L38.2112 39.2329ZM37.8919 39.6711L41.2708 39.2626L40.803 40.9558L37.8919 39.6711Z" fill="#161616"/>
<path fill-rule="evenodd" clip-rule="evenodd" d="M37.4201 38.6789L38.2137 39.1905L39.86 38.4035L37.4201 38.6789ZM40.0708 38.3049L40.091 38.3753L38.2083 39.2754L37.2048 38.6285L40.0708 38.3049ZM41.3211 39.2192L40.8271 41.0071L37.753 39.6505L41.3211 39.2192ZM38.0304 39.6917L40.7784 40.9045L41.2201 39.3062L38.0304 39.6917Z" fill="#161616"/>
<path d="M40.8029 40.9558L37.0676 41.4756L37.8919 39.6711L40.8029 40.9558ZM37.0676 41.4756L36.3398 41.7652L36.8077 39.1067L37.0676 41.4756ZM36.8077 39.1067L37.3127 38.6537L38.2112 39.2329L36.8077 39.1067ZM40.9886 38.8987L41.2708 39.2626L37.8919 39.6711L40.9886 38.8987Z" fill="#161616"/>
<path fill-rule="evenodd" clip-rule="evenodd" d="M37.3089 38.6072L38.2313 39.2018L38.2078 39.27L36.8495 39.1478L37.0898 41.3377L37.8733 39.6223L37.8952 39.632L41.003 38.8569L41.3402 39.2917L38.0306 39.6918L40.9374 40.9746L37.0771 41.5118L36.2917 41.8244L36.7641 39.1401L36.7193 39.1361L37.3089 38.6072ZM36.7991 39.3694L36.3879 41.7062L37.0276 41.4516L36.7991 39.3694ZM37.1294 41.4296L37.9104 39.7199L40.6684 40.9371L37.1294 41.4296ZM38.4806 39.5625L41.2013 39.2337L40.974 38.9407L38.4806 39.5625ZM36.8959 39.0774L38.0643 39.1825L37.3163 38.7003L36.8959 39.0774Z" fill="#161616"/>
<path d="M37.8919 39.6711L38.2112 39.2329L40.9886 38.8987L37.8919 39.6711ZM36.8077 39.1067L37.8919 39.6711L37.0676 41.4756L36.8077 39.1067Z" fill="#161616"/>
<path fill-rule="evenodd" clip-rule="evenodd" d="M38.2317 39.2679L37.9821 39.6103L40.4024 39.0067L38.2317 39.2679ZM37.8807 39.6234L38.1907 39.198L40.9841 38.8619L40.9976 38.9348L37.9182 39.7028L37.0454 41.6137L36.7632 39.0417L37.8807 39.6234ZM37.8365 39.6841L36.8522 39.1718L37.0898 41.3377L37.8261 39.7258L37.8016 39.7319L37.8365 39.6841Z" fill="#161616"/>
<path d="M38.2112 39.2329L37.8919 39.6711L36.8077 39.1067L38.2112 39.2329Z" fill="#161616"/>
<path fill-rule="evenodd" clip-rule="evenodd" d="M36.7905 39.1396L36.8109 39.0697L38.2798 39.2018L37.903 39.7188L36.7905 39.1396ZM36.9914 39.1605L37.8806 39.6234L38.1425 39.264L36.9914 39.1605Z" fill="#161616"/>
<defs>
<filter id="filter0_i" x="0" y="0" width="60" height="60" filterUnits="userSpaceOnUse" color-interpolation-filters="sRGB">
<feFlood flood-opacity="0" result="BackgroundImageFix"/>
<feBlend mode="normal" in="SourceGraphic" in2="BackgroundImageFix" result="shape"/>
<feColorMatrix in="SourceAlpha" type="matrix" values="0 0 0 0 0 0 0 0 0 0 0 0 0 0 0 0 0 0 127 0" result="hardAlpha"/>
<feOffset/>
<feGaussianBlur stdDeviation="7"/>
<feComposite in2="hardAlpha" operator="arithmetic" k2="-1" k3="1"/>
<feColorMatrix type="matrix" values="0 0 0 0 0.1225 0 0 0 0 0.2408 0 0 0 0 0.35 0 0 0 0.15 0"/>
<feBlend mode="normal" in2="shape" result="effect1_innerShadow"/>
</filter>
</defs>
</svg>
