<svg xmlns="http://www.w3.org/2000/svg" width="194" height="40" viewBox="0 0 194 40" fill="none">
    <path
        d="M21.3101 15.7364C21.3101 18.8147 18.8147 21.3101 15.7364 21.3101C12.6581 21.3101 10.1626 18.8147 10.1626 15.7364C10.1626 12.6581 12.6581 10.1626 15.7364 10.1626C18.8147 10.1626 21.3101 12.6581 21.3101 15.7364Z"
        fill="#151b21b3" />
    <path fill-rule="evenodd" clip-rule="evenodd"
        d="M34.7541 0C37.6513 0 40 2.34867 40 5.2459V24.2623C40 32.954 32.954 40 24.2623 40H5.2459C2.34867 40 0 37.6513 0 34.7541V15.7377C0 7.04601 7.04601 0 15.7377 0H34.7541ZM23.2801 7.97853C19.0548 3.75319 12.2042 3.75319 7.97882 7.97853C3.75347 12.2039 3.75347 19.0545 7.97882 23.2799L16.7598 32.0608C20.9851 36.2862 27.8358 36.2862 32.0611 32.0608C36.2865 27.8355 36.2865 20.9849 32.0611 16.7595L23.2801 7.97853Z"
        fill="url(#paint0_linear_1889_20883)" />
    <path fill-rule="evenodd" clip-rule="evenodd"
        d="M49.5234 9.90375C49.5234 9.48296 49.8646 9.14185 50.2853 9.14185H50.4077H52.5711H52.874C53.1562 9.14185 53.4153 9.29784 53.5473 9.54726L60.6514 22.966L67.2188 9.56839C67.3468 9.30732 67.6122 9.14185 67.903 9.14185H68.1901H70.3964H70.4758C70.8966 9.14185 71.2377 9.48296 71.2377 9.90375V27.8085C71.2377 28.2293 70.8966 28.5704 70.4758 28.5704H67.8092C67.3884 28.5704 67.0472 28.2293 67.0472 27.8085V18.467L62.6109 27.5172C62.2949 28.1618 61.6395 28.5704 60.9216 28.5704C60.8572 28.5704 60.7938 28.5673 60.7316 28.5612C60.6698 28.5673 60.6068 28.5704 60.5428 28.5704C59.8569 28.5704 59.2272 28.1913 58.9063 27.5851L53.7139 17.7773V27.8085C53.7139 28.2293 53.3728 28.5704 52.952 28.5704H50.2853C49.8646 28.5704 49.5234 28.2293 49.5234 27.8085V9.90375ZM93.7139 9.90375C93.7139 9.48296 94.055 9.14185 94.4758 9.14185H97.1425C97.5633 9.14185 97.9044 9.48296 97.9044 9.90375V20.1895V23.999V24.3799C97.9044 26.6943 96.0283 28.5704 93.7139 28.5704V28.5548C93.5883 28.5651 93.4613 28.5704 93.333 28.5704H86.0949C83.5701 28.5704 81.5234 26.5237 81.5234 23.999V20.1895C81.5234 17.6647 83.5701 15.618 86.0949 15.618H93.333C93.4613 15.618 93.5883 15.6233 93.7139 15.6337V9.90375ZM93.7139 19.4276V22.8561C93.7139 23.9081 92.8611 24.7609 91.8092 24.7609H87.6187C86.5667 24.7609 85.7139 23.9081 85.7139 22.8561V21.3323C85.7139 20.2804 86.5667 19.4276 87.6187 19.4276H93.7139ZM75.0472 9.14185C74.6265 9.14185 74.2853 9.48296 74.2853 9.90375V12.5704C74.2853 12.9912 74.6265 13.3323 75.0472 13.3323H77.7139C78.1347 13.3323 78.4758 12.9912 78.4758 12.5704V9.90375C78.4758 9.48296 78.1347 9.14185 77.7139 9.14185H75.0472ZM75.0472 15.618C74.6265 15.618 74.2853 15.9592 74.2853 16.3799V27.8085C74.2853 28.2293 74.6265 28.5704 75.0472 28.5704H77.7139C78.1347 28.5704 78.4758 28.2293 78.4758 27.8085V16.3799C78.4758 15.9592 78.1347 15.618 77.7139 15.618H75.0472ZM101.714 16.3799C101.714 15.9592 102.055 15.618 102.476 15.618H111.238C113.762 15.618 115.809 17.6647 115.809 20.1895V27.8085V28.1895C115.809 28.3999 115.639 28.5704 115.428 28.5704H115.047H111.619H104.762C102.447 28.5704 100.571 26.6943 100.571 24.3799C100.571 22.0656 102.447 20.1895 104.762 20.1895H111.46C111.166 19.5167 110.495 19.0466 109.714 19.0466H102.476C102.055 19.0466 101.714 18.7055 101.714 18.2847V16.3799ZM111.619 23.618H105.523C105.103 23.618 104.762 23.9592 104.762 24.3799C104.762 24.8007 105.103 25.1418 105.523 25.1418H111.619V23.618Z"
        fill="url(#paint1_linear_1889_20883)" />
    <path fill-rule="evenodd" clip-rule="evenodd"
        d="M120.38 15.9973C120.38 13.2622 122.597 11.0449 125.332 11.0449H125.713H126.475H135.618C135.828 11.0449 135.999 11.2155 135.999 11.4259V12.9497C135.999 13.1601 135.828 13.3306 135.618 13.3306H130.649H125.713H125.332C123.86 13.3306 122.666 14.5245 122.666 15.9973C122.666 17.4701 123.86 18.664 125.332 18.664H130.649L130.638 18.6806C130.773 18.6696 130.909 18.664 131.047 18.664H132.189C134.925 18.664 137.142 20.8812 137.142 23.6163C137.142 26.3515 134.925 28.5687 132.189 28.5687H131.428H131.047H120.761C120.55 28.5687 120.38 28.3982 120.38 28.1878V26.664C120.38 26.4536 120.55 26.283 120.761 26.283H126.873H131.428H132.189C133.662 26.283 134.856 25.0891 134.856 23.6163C134.856 22.1436 133.662 20.9497 132.189 20.9497H126.873L126.883 20.9331C126.749 20.9441 126.613 20.9497 126.475 20.9497H125.332C122.597 20.9497 120.38 18.7324 120.38 15.9973Z"
        fill="#151b21b3" />
    <path fill-rule="evenodd" clip-rule="evenodd"
        d="M139.048 15.6155C138.781 15.6155 138.597 15.8831 138.692 16.1325L143.353 28.323C143.409 28.4704 143.551 28.5679 143.709 28.5679H143.791H145.179H145.261C145.419 28.5679 145.561 28.4704 145.617 28.323L149.375 18.4938L153.427 28.332C153.485 28.4747 153.624 28.5679 153.779 28.5679H153.853H155.241H155.331C155.492 28.5679 155.636 28.466 155.69 28.3137L159.993 16.1232C160.08 15.8754 159.896 15.6155 159.633 15.6155H158.156C157.994 15.6155 157.85 15.7173 157.796 15.8696L154.466 25.3054L150.573 15.8514C150.514 15.7086 150.375 15.6155 150.221 15.6155H149.923H148.759H148.453C148.295 15.6155 148.153 15.7129 148.097 15.8604L144.485 25.3059L140.874 15.8604C140.817 15.7129 140.676 15.6155 140.518 15.6155H139.048Z"
        fill="#151b21b3" />
    <path fill-rule="evenodd" clip-rule="evenodd"
        d="M179.047 19.806C179.047 17.2813 181.094 15.2346 183.618 15.2346H189.333C191.857 15.2346 193.904 17.2813 193.904 19.806V23.9965C193.904 26.5213 191.857 28.568 189.333 28.568H181.333L181.333 34.2822C181.333 34.4926 181.162 34.6632 180.952 34.6632H179.428C179.217 34.6632 179.047 34.4926 179.047 34.2822V28.568V24.3775V19.806ZM181.333 24.3775V26.2822H188.571C190.254 26.2822 191.618 24.9178 191.618 23.2346V20.568C191.618 18.8848 190.254 17.5203 188.571 17.5203H184.38C182.697 17.5203 181.333 18.8848 181.333 20.568V24.3775Z"
        fill="#151b21b3" />
    <path fill-rule="evenodd" clip-rule="evenodd"
        d="M163.046 15.2346C162.835 15.2346 162.665 15.4052 162.665 15.6156V17.1394C162.665 17.3498 162.835 17.5203 163.046 17.5203H169.903C171.586 17.5203 172.951 18.8848 172.951 20.568H168.57H166.093H165.522C163.313 20.568 161.522 22.3588 161.522 24.568C161.522 26.7771 163.313 28.568 165.522 28.568H166.093H168.57H172.951H174.855C175.066 28.568 175.236 28.3974 175.236 28.187V26.2822V22.8537V20.568V19.806C175.236 17.2813 173.19 15.2346 170.665 15.2346H163.046ZM172.185 26.2822H166.093H165.522C164.575 26.2822 163.808 25.5147 163.808 24.568C163.808 23.6212 164.575 22.8537 165.522 22.8537H166.093H172.185H172.951V26.2822H172.185Z"
        fill="#151b21b3" />
    <defs>
        <linearGradient id="paint0_linear_1889_20883" x1="40" y1="3.63815e-06" x2="-5.33641" y2="7.42757"
            gradientUnits="userSpaceOnUse">
            <stop stop-color="#2993FF" />
            <stop offset="1" stop-color="#0FFFF1" />
        </linearGradient>
        <linearGradient id="paint1_linear_1889_20883" x1="115.809" y1="9.14185" x2="57.0287" y2="41.9976"
            gradientUnits="userSpaceOnUse">
            <stop stop-color="#2993FF" />
            <stop offset="1" stop-color="#0FFFF1" />
        </linearGradient>
    </defs>
</svg>