<svg width="140" height="28.456" viewBox="0 0 140 28.456" fill="none" xmlns="http://www.w3.org/2000/svg">
    <path
        d="M12.216 27.199c-2.803 -2.74 -4.36 -6.388 -4.386 -10.272V12.656c-3.03 3.378 -4.095 7.88 -3.2 12.048C7.035 26.885 10.193 28.274 13.678 28.456a15.079 15.079 0 0 1 -1.462 -1.257M13.915 0C10.449 0.13 7.295 1.466 4.874 3.596a15.327 15.327 0 0 1 1.878 -0.12h0.038c3.931 0 7.622 1.525 10.415 4.256L20.281 10.769c-0.279 -4.503 -2.75 -8.435 -6.366 -10.769Z"
        fill="#49BBA7"></path>
    <path
        d="M24.3 3.753C21.913 1.58 18.784 0.192 15.328 0a14.997 14.997 0 0 1 1.421 1.23c2.799 2.748 4.352 6.404 4.373 10.298L21.109 15.8c3.019 -3.378 4.081 -7.879 3.192 -12.047m-2.109 21.177h-0.038c-3.928 0 -7.627 -1.496 -10.424 -4.216L8.647 17.687c0.292 4.508 2.779 8.441 6.411 10.769 3.485 -0.142 6.651 -1.5 9.075 -3.655a15.163 15.163 0 0 1 -1.941 0.129"
        fill="#49BBA7"></path>
    <path
        d="M25.245 4.716a14.893 14.893 0 0 1 0.125 1.878c0.01 3.899 -1.517 7.572 -4.298 10.343L18.001 19.966c4.572 -0.286 8.563 -2.738 10.926 -6.318 -0.142 -3.427 -1.51 -6.543 -3.683 -8.932ZM3.845 4.541C1.616 6.904 0.192 10.011 0 13.442a14.83 14.83 0 0 1 1.252 -1.405c2.794 -2.762 6.514 -4.291 10.473 -4.311l0.004 -0.005H16.115C12.679 4.725 8.095 3.668 3.845 4.541"
        fill="#49BBA7"></path>
    <path
        d="M27.656 16.436c-2.787 2.742 -6.495 4.263 -10.443 4.287l-4.321 0.001c3.438 2.952 8.012 3.985 12.247 3.104C27.339 21.481 28.743 18.406 28.928 15.014a14.906 14.906 0 0 1 -1.272 1.422M10.926 8.49c-4.568 0.28 -8.557 2.722 -10.926 6.292C0.137 18.219 1.505 21.344 3.686 23.739a14.63 14.63 0 0 1 -0.128 -1.886c-0.009 -3.9 1.519 -7.574 4.303 -10.345L10.926 8.49"
        fill="#49BBA7"></path>
    <path
        d="M43.251 8.925c1.706 -0.022 3.081 0.55 4.127 1.717 1.056 1.167 1.574 2.636 1.552 4.408 0.022 1.772 -0.495 3.241 -1.552 4.408 -1.045 1.167 -2.421 1.739 -4.127 1.717 -1.717 0 -3.098 -0.572 -4.143 -1.717 -1.034 -1.156 -1.552 -2.625 -1.552 -4.408s0.517 -3.246 1.552 -4.391c1.045 -1.156 2.427 -1.733 4.143 -1.733Zm2.674 2.938c-0.671 -0.814 -1.563 -1.222 -2.674 -1.222 -1.112 0 -2.003 0.407 -2.674 1.222 -0.671 0.803 -1.007 1.865 -1.007 3.186s0.336 2.388 1.007 3.202c0.671 0.803 1.563 1.205 2.674 1.205 1.112 0 2.003 -0.402 2.674 -1.205 0.671 -0.814 1.007 -1.882 1.007 -3.202s-0.336 -2.383 -1.007 -3.186Zm6.515 -2.674h5.381c1.167 0 2.096 0.325 2.79 0.974 0.693 0.649 1.04 1.53 1.04 2.641s-0.347 1.992 -1.04 2.641c-0.693 0.638 -1.623 0.957 -2.79 0.957h-3.417V20.91h-1.964V9.189Zm5.051 1.618h-3.087v3.978h3.087c0.693 0 1.238 -0.171 1.634 -0.512 0.396 -0.352 0.594 -0.842 0.594 -1.469s-0.198 -1.117 -0.594 -1.469c-0.396 -0.352 -0.941 -0.528 -1.634 -0.528Zm15.649 -1.618v1.651h-6.075v3.202h5.679v1.634h-5.679V19.259h6.24v1.651h-8.204V9.189h8.039ZM86.498 20.91h-2.179l-2.955 -4.507h-2.427V20.91h-1.964V9.189h5.266c1.123 0 2.041 0.33 2.757 0.99 0.715 0.66 1.073 1.535 1.073 2.625 0 0.88 -0.237 1.629 -0.71 2.245 -0.473 0.605 -1.123 1.007 -1.948 1.205l3.087 4.655Zm-7.56 -10.103v3.978h2.971c0.693 0 1.238 -0.171 1.634 -0.512 0.396 -0.352 0.594 -0.842 0.594 -1.469s-0.204 -1.117 -0.611 -1.469c-0.396 -0.352 -0.941 -0.528 -1.634 -0.528h-2.955ZM97.8 20.91l-0.908 -2.641h-5.183l-0.908 2.641h-1.981l4.226 -11.72h2.559l4.226 11.72h-2.03Zm-5.53 -4.259h4.061l-0.512 -1.436c-0.066 -0.209 -0.176 -0.517 -0.33 -0.924 -0.484 -1.376 -0.886 -2.581 -1.205 -3.615 -0.22 0.748 -0.616 1.953 -1.189 3.615l-0.33 0.941 -0.495 1.42Zm17.538 -7.461v1.667h-3.566V20.91h-1.948V10.856h-3.549V9.189h9.063Zm7.766 -0.264c1.706 -0.022 3.081 0.55 4.127 1.717 1.056 1.167 1.574 2.636 1.552 4.408 0.022 1.772 -0.495 3.241 -1.552 4.408 -1.045 1.167 -2.421 1.739 -4.127 1.717 -1.717 0 -3.098 -0.572 -4.143 -1.717 -1.034 -1.156 -1.552 -2.625 -1.552 -4.408s0.517 -3.246 1.552 -4.391c1.045 -1.156 2.427 -1.733 4.143 -1.733Zm2.674 2.938c-0.671 -0.814 -1.563 -1.222 -2.674 -1.222 -1.112 0 -2.003 0.407 -2.674 1.222 -0.671 0.803 -1.007 1.865 -1.007 3.186s0.336 2.388 1.007 3.202c0.671 0.803 1.563 1.205 2.674 1.205 1.112 0 2.003 -0.402 2.674 -1.205 0.671 -0.814 1.007 -1.882 1.007 -3.202s-0.336 -2.383 -1.007 -3.186ZM136.289 20.91h-2.179l-2.955 -4.507h-2.427V20.91h-1.964V9.189h5.266c1.123 0 2.041 0.33 2.757 0.99 0.715 0.66 1.073 1.535 1.073 2.625 0 0.88 -0.237 1.629 -0.71 2.245 -0.473 0.605 -1.123 1.007 -1.948 1.205l3.087 4.655Zm-7.56 -10.103v3.978h2.971c0.693 0 1.238 -0.171 1.634 -0.512 0.396 -0.352 0.594 -0.842 0.594 -1.469s-0.204 -1.117 -0.611 -1.469c-0.396 -0.352 -0.941 -0.528 -1.634 -0.528h-2.955Z"
        fill="#000"></path>
</svg>