<svg width="23" height="25" viewBox="0 0 23 25" fill="none" xmlns="http://www.w3.org/2000/svg">
	<path
		d="M4.19973 15.9442C2.37438 10.7199 5.3411 7.79098 6.69647 6.7755C7.07413 6.49435 7.45179 6.20901 7.82945 5.92367C9.18482 4.89979 12.8188 2.86883 17.3297 6.07473C19.7383 7.78679 21.6014 11.1227 22.6756 14.5552C21.5888 8.78548 18.6221 3.84235 15.7939 1.88692C13.7671 0.476994 11.8746 -0.00976562 10.2297 -0.00976562C7.6574 -0.00976562 5.68938 1.18195 4.71586 1.92049C4.38436 2.17226 4.05286 2.41984 3.72136 2.67161C2.11421 3.86753 -1.40641 7.29583 0.603577 13.3048C1.69459 16.5652 5.61805 20.7908 10.8591 23.4386C7.85882 21.4538 5.17744 18.7389 4.19973 15.9442Z"
		fill="#2DB8E3"
	/>
	<path
		d="M8.98734 18.6341C7.67393 14.8407 9.85176 12.7006 10.8462 11.9537C11.1148 11.7523 11.3833 11.5509 11.6519 11.3495C12.6464 10.5983 15.3068 9.10452 18.584 11.4208C19.8387 12.3062 20.8752 13.7749 21.6389 15.4366C20.6821 12.0712 18.9197 8.74785 16.6034 7.09874C15.0466 5.99094 13.6157 5.61328 12.3946 5.61328C10.607 5.61328 9.26009 6.41895 8.5887 6.92669C8.21104 7.21203 7.82919 7.49737 7.44733 7.78272C6.31016 8.63455 3.8344 11.0893 5.3828 15.5289C6.32275 18.2229 9.04189 20.8497 12.017 22.7044C10.6196 21.5043 9.48669 20.0944 8.98315 18.6299L8.98734 18.6341Z"
		fill="#2DB8E3"
		opacity="0.3"
	/>
	<path
		d="M21.0098 24.6385C21.5721 24.2146 21.8826 23.1362 21.8616 21.6717C21.8155 18.5623 20.2713 14.1521 17.8585 12.4485C16.801 11.7015 15.8401 11.4414 15.005 11.4414C13.8595 11.4414 12.9657 11.9365 12.4076 12.3561C12.139 12.5576 11.8705 12.7632 11.5977 12.9646C10.6368 13.6821 9.17232 15.3229 10.1752 18.2266C11.1403 21.0171 14.9505 23.7279 17.9214 24.6385C19.3187 25.0665 20.4433 25.0665 21.0056 24.6426L21.0098 24.6385Z"
		fill="#2DB8E3"
	/>
</svg>