<?xml version="1.0" encoding="UTF-8"?>
<svg xmlns="http://www.w3.org/2000/svg" xmlns:xlink="http://www.w3.org/1999/xlink" width="64px" height="64px" viewBox="0 0 64 64" version="1.1">
<g id="surface1">
<path style=" stroke:none;fill-rule:evenodd;fill:rgb(0%,0%,0%);fill-opacity:1;" d="M 28.429688 20.964844 C 27.769531 21.460938 27.332031 22.167969 27.332031 23.332031 C 27.332031 24.804688 26.140625 26 24.667969 26 C 23.195312 26 22 24.804688 22 23.332031 C 22 20.496094 23.222656 18.207031 25.226562 16.699219 C 27.144531 15.261719 29.589844 14.667969 32 14.667969 C 34.875 14.667969 37.296875 15.53125 39.050781 17.1875 C 40.785156 18.828125 41.613281 21.015625 41.742188 23.203125 C 41.996094 27.476562 39.636719 32.183594 35.324219 34.648438 C 34.929688 34.871094 34.6875 35.054688 34.542969 35.1875 C 34.875 36.234375 34.535156 37.425781 33.609375 38.125 C 32.433594 39.015625 30.761719 38.785156 29.875 37.609375 C 29.875 37.609375 29.875 37.609375 29.871094 37.605469 L 29.867188 37.601562 C 29.226562 36.742188 28.972656 35.613281 29.101562 34.554688 C 29.328125 32.738281 30.59375 31.207031 32.675781 30.019531 C 35.242188 28.550781 36.550781 25.757812 36.417969 23.515625 C 36.355469 22.441406 35.972656 21.617188 35.386719 21.0625 C 34.8125 20.519531 33.792969 20 32 20 C 30.394531 20 29.175781 20.40625 28.429688 20.964844 Z M 28.429688 20.964844 "/>
<path style=" stroke:none;fill-rule:nonzero;fill:rgb(0%,0%,0%);fill-opacity:1;" d="M 32 49.332031 C 34.210938 49.332031 36 47.542969 36 45.332031 C 36 43.125 34.210938 41.332031 32 41.332031 C 29.789062 41.332031 28 43.125 28 45.332031 C 28 47.542969 29.789062 49.332031 32 49.332031 Z M 32 49.332031 "/>
<path style=" stroke:none;fill-rule:evenodd;fill:rgb(0%,0%,0%);fill-opacity:1;" d="M 2.667969 32 C 2.667969 15.800781 15.800781 2.667969 32 2.667969 C 48.199219 2.667969 61.332031 15.800781 61.332031 32 C 61.332031 48.199219 48.199219 61.332031 32 61.332031 C 15.800781 61.332031 2.667969 48.199219 2.667969 32 Z M 32 8 C 18.746094 8 8 18.746094 8 32 C 8 45.253906 18.746094 56 32 56 C 45.253906 56 56 45.253906 56 32 C 56 18.746094 45.253906 8 32 8 Z M 32 8 "/>
</g>
</svg>
