<svg width="32" height="33" viewBox="0 0 32 33" fill="none" xmlns="http://www.w3.org/2000/svg">
<path d="M7.00395 6.09446L5.36679 7.04418C4.0492 7.8085 3.3904 8.19067 3.0282 8.82644C2.66602 9.4622 2.66602 10.2364 2.66602 11.7849V22.6711C2.66602 24.7056 2.66602 25.7229 3.12236 26.2891C3.42603 26.6659 3.85156 26.9191 4.32202 27.0031C5.02903 27.1292 5.89466 26.6271 7.62584 25.6228C8.80143 24.9408 9.93283 24.2325 11.3392 24.4247C11.9789 24.512 12.5891 24.8155 13.8095 25.4223L18.8947 27.9507C19.9945 28.4976 20.0047 28.5 21.2279 28.5H23.9993C26.5135 28.5 27.7705 28.5 28.5516 27.7017C29.3327 26.9035 29.3327 25.6185 29.3327 23.0489V14.062C29.3327 11.4923 29.3327 10.2075 28.5516 9.40918C27.7705 8.61088 26.5135 8.61088 23.9993 8.61088H21.2279C20.0047 8.61088 19.9945 8.60852 18.8947 8.0616L14.4525 5.85284C12.5978 4.93063 11.6704 4.46952 10.6825 4.50156C9.69459 4.53362 8.79771 5.0539 7.00395 6.09446Z" stroke="black" stroke-width="2" stroke-linecap="round" stroke-linejoin="round"/>
<path d="M10.666 4.5V23.8333" stroke="black" stroke-width="2" stroke-linecap="round" stroke-linejoin="round"/>
<path d="M20 9.16406V27.8307" stroke="black" stroke-width="2" stroke-linecap="round" stroke-linejoin="round"/>
</svg>
