<svg width="24" height="24" viewBox="0 0 24 24" fill="none" xmlns="http://www.w3.org/2000/svg">
	<path
		opacity="0.3"
		fill-rule="evenodd"
		clip-rule="evenodd"
		d="M5.96345 13.2402H6.03655C6.7757 13.2402 7.38321 13.2402 7.87471 13.2869C8.38544 13.3355 8.84779 13.4397 9.26834 13.6974C9.68586 13.9533 10.0369 14.3043 10.2928 14.7219C10.5505 15.1424 10.6547 15.6048 10.7033 16.1155C10.75 16.607 10.75 17.2145 10.75 17.9536V18.0268C10.75 18.7659 10.75 19.3734 10.7033 19.8649C10.6547 20.3756 10.5505 20.838 10.2928 21.2585C10.0369 21.6761 9.68586 22.0271 9.26834 22.283C8.84779 22.5407 8.38544 22.6449 7.87471 22.6935C7.38322 22.7402 6.7757 22.7402 6.03656 22.7402H5.96344C5.2243 22.7402 4.61678 22.7402 4.12529 22.6935C3.61456 22.6449 3.15221 22.5407 2.73166 22.283C2.31414 22.0271 1.9631 21.6761 1.70725 21.2585C1.44953 20.838 1.34527 20.3756 1.29671 19.8649C1.24998 19.3734 1.24999 18.7659 1.25 18.0267V17.9537C1.24999 17.2145 1.24998 16.607 1.29671 16.1155C1.34527 15.6048 1.44953 15.1424 1.70725 14.7219C1.9631 14.3043 2.31414 13.9533 2.73166 13.6974C3.15221 13.4397 3.61456 13.3355 4.12529 13.2869C4.61679 13.2402 5.22431 13.2402 5.96345 13.2402Z"
		fill="#2DB8E3"
	/>
	<path
		fill-rule="evenodd"
		clip-rule="evenodd"
		d="M17.9635 13.2402H18.0365C18.7757 13.2402 19.3832 13.2402 19.8747 13.2869C20.3854 13.3355 20.8478 13.4397 21.2683 13.6974C21.6859 13.9533 22.0369 14.3043 22.2928 14.7219C22.5505 15.1424 22.6547 15.6048 22.7033 16.1155C22.75 16.607 22.75 17.2145 22.75 17.9536V18.0268C22.75 18.7659 22.75 19.3734 22.7033 19.8649C22.6547 20.3756 22.5505 20.838 22.2928 21.2585C22.0369 21.6761 21.6859 22.0271 21.2683 22.283C20.8478 22.5407 20.3854 22.6449 19.8747 22.6935C19.3832 22.7402 18.7757 22.7402 18.0366 22.7402H17.9634C17.2243 22.7402 16.6168 22.7402 16.1253 22.6935C15.6146 22.6449 15.1522 22.5407 14.7317 22.283C14.3141 22.0271 13.9631 21.6761 13.7072 21.2585C13.4495 20.838 13.3453 20.3756 13.2967 19.8649C13.25 19.3734 13.25 18.7659 13.25 18.0267V17.9537C13.25 17.2145 13.25 16.607 13.2967 16.1155C13.3453 15.6048 13.4495 15.1424 13.7072 14.7219C13.9631 14.3043 14.3141 13.9533 14.7317 13.6974C15.1522 13.4397 15.6146 13.3355 16.1253 13.2869C16.6168 13.2402 17.2243 13.2402 17.9635 13.2402Z"
		fill="#2DB8E3"
	/>
	<path
		fill-rule="evenodd"
		clip-rule="evenodd"
		d="M5.96345 1.24023H6.03655C6.7757 1.24022 7.38321 1.24021 7.87471 1.28694C8.38544 1.3355 8.84779 1.43976 9.26834 1.69748C9.68586 1.95333 10.0369 2.30437 10.2928 2.72189C10.5505 3.14244 10.6547 3.60479 10.7033 4.11552C10.75 4.60701 10.75 5.21453 10.75 5.95367V6.02679C10.75 6.76593 10.75 7.37346 10.7033 7.86494C10.6547 8.37568 10.5505 8.83802 10.2928 9.25857C10.0369 9.67609 9.68586 10.0271 9.26834 10.283C8.84779 10.5407 8.38544 10.6449 7.87471 10.6935C7.38322 10.7402 6.7757 10.7402 6.03656 10.7402H5.96344C5.2243 10.7402 4.61678 10.7402 4.12529 10.6935C3.61456 10.6449 3.15221 10.5407 2.73166 10.283C2.31414 10.0271 1.9631 9.67609 1.70725 9.25857C1.44953 8.83802 1.34527 8.37568 1.29671 7.86494C1.24998 7.37345 1.24999 6.76593 1.25 6.02678V5.95368C1.24999 5.21454 1.24998 4.60702 1.29671 4.11552C1.34527 3.60479 1.44953 3.14244 1.70725 2.72189C1.9631 2.30437 2.31414 1.95333 2.73166 1.69748C3.15221 1.43976 3.61456 1.3355 4.12529 1.28694C4.61679 1.24021 5.22431 1.24022 5.96345 1.24023Z"
		fill="#2DB8E3"
	/>
	<path
		opacity="0.3"
		fill-rule="evenodd"
		clip-rule="evenodd"
		d="M17.9635 1.24023H18.0365C18.7757 1.24022 19.3832 1.24021 19.8747 1.28694C20.3854 1.3355 20.8478 1.43976 21.2683 1.69748C21.6859 1.95333 22.0369 2.30437 22.2928 2.72189C22.5505 3.14244 22.6547 3.60479 22.7033 4.11552C22.75 4.60701 22.75 5.21453 22.75 5.95367V6.02679C22.75 6.76593 22.75 7.37346 22.7033 7.86494C22.6547 8.37568 22.5505 8.83802 22.2928 9.25857C22.0369 9.67609 21.6859 10.0271 21.2683 10.283C20.8478 10.5407 20.3854 10.6449 19.8747 10.6935C19.3832 10.7402 18.7757 10.7402 18.0366 10.7402H17.9634C17.2243 10.7402 16.6168 10.7402 16.1253 10.6935C15.6146 10.6449 15.1522 10.5407 14.7317 10.283C14.3141 10.0271 13.9631 9.67609 13.7072 9.25857C13.4495 8.83802 13.3453 8.37568 13.2967 7.86494C13.25 7.37345 13.25 6.76593 13.25 6.02678V5.95368C13.25 5.21454 13.25 4.60702 13.2967 4.11552C13.3453 3.60479 13.4495 3.14244 13.7072 2.72189C13.9631 2.30437 14.3141 1.95333 14.7317 1.69748C15.1522 1.43976 15.6146 1.3355 16.1253 1.28694C16.6168 1.24021 17.2243 1.24022 17.9635 1.24023Z"
		fill="#2DB8E3"
	/>
</svg>
