<svg width="24" height="25" viewBox="0 0 24 25" fill="none" xmlns="http://www.w3.org/2000/svg">
	<path
		opacity="0.3"
		d="M11.8244 1.7468C11.9413 1.73804 12.0587 1.73804 12.1756 1.7468C12.6792 1.78454 13.0873 2.01178 13.4602 2.30352C13.8109 2.57793 14.1989 2.96596 14.6527 3.41979L15.3547 4.04681C15.3547 4.04681 15.8214 4.12417 16.4673 4.12417C17.1785 4.12413 17.7864 4.1241 18.2722 4.18942C18.7909 4.25915 19.2811 4.41549 19.6779 4.81229C20.0747 5.20909 20.2311 5.69934 20.3008 6.21803C20.3661 6.70381 20.3661 7.31171 20.3661 8.02292L20.4191 9.0768L21.0704 9.83749C21.5242 10.2913 21.9123 10.6793 22.1867 11.03C22.4785 11.4029 22.7057 11.811 22.7434 12.3146C22.7522 12.4315 22.7522 12.5489 22.7434 12.6658C22.7057 13.1694 22.4785 13.5775 22.1867 13.9504C21.9123 14.3011 21.5243 14.6891 21.0705 15.1429L20.4191 15.9036L20.3661 16.9575C20.3661 17.6687 20.3661 18.2766 20.3008 18.7624C20.2311 19.2811 20.0747 19.7713 19.6779 20.1681C19.2811 20.5649 18.7909 20.7213 18.2722 20.791C17.7864 20.8563 17.1785 20.8563 16.4673 20.8563L15.4134 20.9093L14.6527 21.5606C14.1989 22.0144 13.8109 22.4025 13.4602 22.6769C13.0873 22.9687 12.6792 23.1959 12.1756 23.2336C12.0587 23.2424 11.9413 23.2424 11.8244 23.2336C11.3208 23.1959 10.9127 22.9687 10.5398 22.6769C10.1891 22.4025 9.8011 22.0145 9.34733 21.5607L8.58657 20.9093L7.53269 20.8563C6.82148 20.8563 6.21358 20.8563 5.7278 20.791C5.20911 20.7213 4.71886 20.5649 4.32206 20.1681C3.92526 19.7713 3.76892 19.2811 3.69919 18.7624C3.63387 18.2766 3.6339 17.6687 3.63394 16.9575L3.58089 15.9036L2.92956 15.1429C2.47573 14.6891 2.0877 14.3011 1.81329 13.9504C1.52155 13.5775 1.29431 13.1694 1.25657 12.6658C1.24781 12.5489 1.24781 12.4315 1.25657 12.3146C1.29431 11.811 1.52155 11.4029 1.81329 11.03C2.0877 10.6793 2.47573 10.2913 2.92954 9.83754L3.58089 9.0768L3.63394 8.02291C3.6339 7.3117 3.63387 6.70381 3.69919 6.21803C3.76892 5.69934 3.92526 5.20909 4.32206 4.81229C4.71886 4.41549 5.20911 4.25915 5.7278 4.18942C6.21358 4.1241 6.82147 4.12413 7.53268 4.12417C8.17864 4.12417 8.58657 4.07112 8.58657 4.07112L9.3473 3.41979C9.80108 2.96596 10.1891 2.57793 10.5398 2.30352C10.9127 2.01178 11.3208 1.78454 11.8244 1.7468Z"
		fill="#2DB8E3"
	/>
	<path
		d="M7.75 12.4902C7.75 10.143 9.65279 8.24023 12 8.24023C14.3472 8.24023 16.25 10.143 16.25 12.4902C16.25 14.8374 14.3472 16.7402 12 16.7402C9.65279 16.7402 7.75 14.8374 7.75 12.4902Z"
		fill="#2DB8E3"
	/>
</svg>
