<svg width="140" height="100" viewBox="0 0 5017 2250" fill="none" xmlns="http://www.w3.org/2000/svg">
    <rect x="1996.93" y="435.047" width="1360.91" height="274.095" transform="rotate(90 1996.93 435.047)"
        fill="black" />
    <path
        d="M4828.02 1225.94V994.536H3850.19V994.585C3850.19 1259.26 3850.19 1519.17 3848.6 1779.09H4853.41V1530.25H4101V1225.94H4828.02Z"
        fill="black" />
    <path d="M4855 677.545V435.047H3850.19V677.545H4855Z" fill="black" />
    <path
        d="M769.127 1827.39C684.694 1827.39 607.182 1817.42 536.591 1797.48C466 1776.21 402.33 1744.98 345.58 1703.77C288.83 1662.57 238.309 1612.72 194.017 1554.24L370.494 1362.83C438.317 1453.22 504.756 1515.69 569.811 1550.25C634.865 1584.81 708.225 1602.09 789.889 1602.09C836.95 1602.09 879.858 1595.44 918.614 1582.15C957.37 1567.53 987.821 1548.26 1009.97 1524.33C1032.11 1499.08 1043.19 1470.5 1043.19 1438.6C1043.19 1416 1038.34 1395.4 1028.65 1376.79C1020.35 1356.85 1007.2 1339.57 989.205 1324.95C971.211 1309 949.065 1294.38 922.766 1281.09C896.468 1267.79 866.709 1256.5 833.489 1247.19C800.27 1237.89 763.59 1229.25 723.45 1221.27C647.322 1206.65 580.884 1187.38 524.134 1163.45C467.384 1138.2 419.631 1107.62 380.875 1071.74C342.12 1034.52 313.745 993.312 295.751 948.119C277.757 901.597 268.76 849.094 268.76 790.609C268.76 732.124 281.909 678.291 308.208 629.11C335.891 579.93 373.263 537.395 420.323 501.506C467.384 465.618 522.058 437.705 584.344 417.766C646.63 397.828 713.761 387.859 785.736 387.859C867.401 387.859 940.068 397.164 1003.74 415.773C1068.79 434.382 1125.54 462.295 1173.99 499.513C1223.82 535.401 1264.65 579.265 1296.48 631.104L1117.93 800.578C1090.25 759.372 1059.1 725.478 1024.5 698.893C989.897 670.98 952.525 650.377 912.385 637.085C872.245 622.464 830.029 615.153 785.736 615.153C735.907 615.153 692.307 621.8 654.935 635.092C618.948 648.384 590.573 667.657 569.811 692.912C549.048 716.838 538.667 746.08 538.667 780.64C538.667 807.224 544.896 831.149 557.353 852.417C569.811 872.355 587.112 890.299 609.259 906.25C632.789 922.2 662.548 936.157 698.536 948.119C734.523 960.082 775.355 970.716 821.032 980.02C897.16 994.642 965.675 1014.58 1026.58 1039.83C1087.48 1063.76 1139.38 1093 1182.29 1127.56C1225.2 1160.79 1257.73 1199.34 1279.87 1243.2C1302.02 1285.74 1313.09 1333.59 1313.09 1386.76C1313.09 1478.47 1290.26 1557.56 1244.58 1624.02C1200.29 1689.15 1137.31 1739.66 1055.64 1775.55C973.979 1810.11 878.474 1827.39 769.127 1827.39Z"
        fill="black" />
    <path fill-rule="evenodd" clip-rule="evenodd"
        d="M2427.73 1797.91C2461.96 1797.96 2496.2 1798.02 2530.43 1798.08C2637.75 1798.26 2745.06 1798.44 2852.36 1798.27C2882.06 1798.23 2911.93 1797.2 2941.38 1793.79C3018.83 1784.81 3091.64 1760.42 3160.02 1722.9C3295.95 1648.32 3395.48 1539.93 3457.67 1397.58C3509.14 1279.72 3525.63 1156.39 3512.39 1028.7C3503.23 940.377 3477.71 857.165 3434.88 779.527C3369.96 661.845 3277.86 571.782 3158.82 509.763C3082.15 469.826 3000.63 445.793 2914.41 439.935C2879.59 437.578 2844.58 437.586 2809.64 437.594C2805.12 437.595 2800.6 437.596 2796.08 437.592C2673.3 437.451 2550.51 437.45 2427.73 437.466V754.545C2443.32 754.471 2458.91 754.429 2474.5 754.429C2532.35 754.392 2590.2 754.623 2648.05 754.853C2703.91 755.076 2759.77 755.298 2815.62 755.281C2866.45 755.281 2916.89 757.553 2965.77 773.243C3068.17 806.152 3144.27 869.555 3187.81 969.167C3220.59 1044.18 3222.5 1122.07 3204.27 1200.95C3166.93 1362.36 3038.37 1470 2875.97 1474.79C2794.73 1477.17 2713.46 1478.34 2632.23 1478.73C2564.06 1479.06 2495.89 1479.1 2427.73 1479.06V1797.91Z"
        fill="black" />
</svg>