<?xml version="1.0" encoding="UTF-8"?>
<svg id="Layer_2" data-name="Layer 2" xmlns="http://www.w3.org/2000/svg" viewBox="0 0 589.12 138.02">
  <defs>
    <style>
      .cls-1 {
        fill: #29361d;
      }

      .cls-1,
      .cls-2 {
        stroke-width: 0px;
      }

      .cls-2 {
        fill: #fcfae2;
      }
    </style>
  </defs>
  <g>
    <g>
      <path class="cls-2"
        d="M125.36,131.66c1.8-2.26,2.99-5.15,3.49-8.59,2.33-18.73-21.38-39.89-32.77-50.05-.69-.63-1.43-1.3-2.18-1.97-4.07-3.66-8.29-7.44-10.42-12.12-1.21-2.66-1.11-5.94.27-8.76,1.3-2.66,3.5-4.48,6.19-5.13l.13-.03c.84-.24,1.7-.36,2.56-.36,3.97,0,8.35,2.6,13.02,7.73,6.48,6.89,11.46,15.02,16.83,24.18,8.25,14.23,12.28,26.08,12.36,36.27.1,6.5-1.91,12.01-5.8,15.95-1.1,1.12-2.34,2.09-3.68,2.89Z" />
      <path class="cls-1"
        d="M92.64,41.14v7c2.9,0,6.51,2.28,10.43,6.58l.04.04.04.04c6.2,6.59,11.06,14.54,16.31,23.5l.03.05c7.63,13.16,11.61,24.56,11.84,33.93-4.16-14.5-18.55-29.05-32.88-41.85-.72-.67-1.46-1.33-2.21-2-3.98-3.57-7.74-6.95-9.57-10.96-.77-1.7-.69-3.92.22-5.79.48-.99,1.62-2.72,3.87-3.26l.13-.03.13-.04c.54-.15,1.06-.23,1.6-.23v-7M92.64,41.14c-1.15,0-2.32.15-3.51.49-8.24,1.99-12.08,11.58-8.83,18.74,2.85,6.25,8.5,10.7,13.45,15.25,11.46,10.22,33.69,30.44,31.64,46.94-1.22,8.4-6.93,11.33-13.49,11.33-5.11,0-10.74-1.79-15.15-4.16-4.59-2.33-8.44-5.56-12.37-8.84-.47-.36-1.02-.87-1.45-1.18-.14-.1-.22-.16-.25-.16-.02,0,0,.04.06.12,5.12,6.22,12.2,12.54,19.84,15.75,4.09,1.76,8.17,2.59,12.05,2.59,13.22,0,23.94-9.68,23.71-25.23-.1-13.17-6.44-26.98-12.79-37.94l-.04-.07c-5.06-8.61-10.36-17.42-17.26-24.76-4.08-4.48-9.5-8.87-15.61-8.87h0Z" />
    </g>
    <g>
      <path class="cls-2"
        d="M24.74,134.52c-7.84,0-14.22-3.13-17.96-8.81-.15-.23-.3-.46-.44-.69,2.01,1.61,4.78,2.96,8.6,3.51.92.12,1.8.17,2.68.17,17.98,0,37.83-22.25,47.37-32.94.63-.69,1.3-1.43,1.97-2.18,3.66-4.07,7.44-8.29,12.12-10.42,1.22-.56,2.57-.84,3.99-.84,4.04,0,8.74,2.51,9.9,7.3l.03.13c1.34,4.74-1.07,9.84-7.37,15.58-6.89,6.49-15.02,11.46-24.18,16.83-14.23,8.25-26.07,12.28-36.27,12.36h-.46Z" />
      <path class="cls-1"
        d="M83.08,85.82c2.67,0,5.76,1.59,6.49,4.62l.03.13.04.13c.93,3.29-1.21,7.34-6.36,12.04l-.04.04-.04.04c-6.59,6.2-14.54,11.06-23.49,16.31l-.05.03c-13.17,7.63-24.58,11.62-33.96,11.84,14.59-4.17,29.18-18.66,41.87-32.88.67-.72,1.33-1.46,2-2.21,3.57-3.98,6.95-7.74,10.96-9.57.77-.35,1.63-.53,2.55-.53M83.08,78.82c-1.86,0-3.72.37-5.45,1.15-6.25,2.85-10.7,8.5-15.25,13.45-9.78,10.96-28.7,31.77-44.76,31.77-.73,0-1.46-.04-2.18-.13-14.94-2.17-12.6-18.57-7.17-28.64,2.33-4.59,5.56-8.44,8.84-12.37.36-.47.87-1.02,1.18-1.45.13-.17.18-.26.15-.26-.02,0-.05.02-.11.06-6.22,5.12-12.54,12.2-15.75,19.84-7.69,17.9,2.38,35.76,22.15,35.76.16,0,.33,0,.49,0,13.17-.1,26.98-6.44,37.94-12.79l.07-.04c8.61-5.06,17.42-10.36,24.76-17.26,5.32-4.85,10.51-11.58,8.38-19.12-1.51-6.26-7.41-9.98-13.3-9.98h0Z" />
    </g>
    <g>
      <path class="cls-2"
        d="M45.71,93.37c-3.97,0-8.35-2.6-13.02-7.72-6.49-6.89-11.46-15.03-16.83-24.18C7.61,47.24,3.58,35.4,3.5,25.2c-.1-6.5,1.91-12.01,5.8-15.95,1.1-1.12,2.34-2.09,3.68-2.89-1.8,2.26-2.99,5.15-3.49,8.59-2.33,18.73,21.38,39.89,32.77,50.05.69.63,1.43,1.3,2.18,1.97,4.07,3.66,8.29,7.44,10.42,12.12,1.21,2.66,1.11,5.94-.27,8.76-1.3,2.66-3.5,4.48-6.19,5.13l-.13.04c-.84.24-1.7.36-2.56.36Z" />
      <path class="cls-1"
        d="M7.01,25.73c4.16,14.5,18.55,29.05,32.88,41.85.72.67,1.46,1.33,2.21,2,3.98,3.57,7.74,6.95,9.57,10.96.77,1.7.69,3.92-.22,5.79-.48.99-1.62,2.72-3.87,3.26l-.13.03-.13.04c-.54.15-1.06.23-1.6.23-2.9,0-6.51-2.28-10.43-6.58l-.04-.04-.04-.04c-6.2-6.59-11.06-14.54-16.31-23.5l-.03-.05c-7.63-13.16-11.61-24.56-11.84-33.93M23.72,0C10.5,0-.23,9.68,0,25.23c.1,13.17,6.44,26.98,12.79,37.94l.04.07c5.06,8.61,10.36,17.42,17.26,24.76,4.08,4.48,9.5,8.87,15.61,8.87,1.15,0,2.32-.15,3.51-.49,8.24-1.99,12.08-11.58,8.83-18.74-2.85-6.25-8.5-10.7-13.45-15.25C33.14,52.17,10.9,31.95,12.96,15.45c1.22-8.4,6.93-11.33,13.49-11.33,5.11,0,10.74,1.79,15.15,4.16,4.59,2.33,8.44,5.56,12.37,8.84.47.36,1.02.87,1.45,1.18.14.1.22.16.25.16.02,0,0-.04-.06-.12-5.12-6.22-12.2-12.54-19.84-15.75C31.68.83,27.59,0,23.72,0h0Z" />
    </g>
    <g>
      <path class="cls-2"
        d="M55.26,55.7c-4.04,0-8.74-2.51-9.9-7.3l-.03-.13c-1.32-4.68,1.15-9.92,7.37-15.58,6.89-6.49,15.03-11.46,24.18-16.83,14.23-8.25,26.08-12.28,36.27-12.36h.46c7.84,0,14.22,3.13,17.96,8.81.15.23.3.46.44.69-2.01-1.61-4.78-2.96-8.6-3.51-.92-.12-1.8-.17-2.68-.17-17.98,0-37.83,22.25-47.37,32.94-.63.69-1.3,1.43-1.97,2.18-3.66,4.07-7.44,8.29-12.12,10.42-1.22.56-2.57.84-3.99.84Z" />
      <path class="cls-1"
        d="M112.64,7.01c-14.59,4.17-29.18,18.65-41.87,32.88-.67.72-1.33,1.46-2,2.21-3.57,3.98-6.95,7.74-10.96,9.57-.77.35-1.63.53-2.55.53-2.67,0-5.76-1.59-6.49-4.62l-.03-.13-.04-.13c-.93-3.29,1.21-7.34,6.36-12.04l.04-.04.04-.04c6.59-6.2,14.54-11.06,23.5-16.31l.05-.03c13.17-7.63,24.58-11.62,33.96-11.84M113.61,0C113.44,0,113.28,0,113.12,0c-13.17.1-26.98,6.44-37.94,12.79l-.07.04c-8.61,5.06-17.42,10.36-24.76,17.26-5.32,4.85-10.51,11.58-8.38,19.12,1.51,6.26,7.41,9.98,13.3,9.98,1.86,0,3.72-.37,5.45-1.15,6.25-2.85,10.7-8.5,15.25-13.45,9.78-10.96,28.7-31.77,44.76-31.77.73,0,1.46.04,2.18.13,14.94,2.17,12.6,18.57,7.17,28.64-2.33,4.59-5.56,8.44-8.84,12.37-.36.47-.87,1.02-1.18,1.45-.13.17-.18.26-.15.26.02,0,.05-.02.11-.06,6.22-5.12,12.54-12.2,15.75-19.84C143.45,17.86,133.38,0,113.61,0h0Z" />
    </g>
  </g>
  <g>
    <path class="cls-1"
      d="M173.53,78.09c.15,1.75.7,3.38,1.67,4.9.96,1.52,2.23,2.84,3.79,3.96,1.56,1.11,3.39,1.99,5.49,2.62,2.1.63,4.35.95,6.77.95.93,0,1.87-.11,2.81-.33s1.79-.57,2.53-1.03c.74-.46,1.35-1.05,1.81-1.75.46-.71.7-1.56.7-2.56,0-1.08-.29-2-.86-2.76-.58-.76-1.42-1.47-2.53-2.12-1.11-.65-2.5-1.29-4.15-1.92-1.65-.63-3.56-1.37-5.71-2.23-2.38-.93-4.77-1.88-7.18-2.87-2.41-.98-4.6-2.18-6.57-3.59-1.97-1.41-3.57-3.15-4.82-5.21-1.24-2.06-1.87-4.63-1.87-7.71,0-2.19.42-4.38,1.25-6.57.84-2.19,2.12-4.16,3.87-5.9,1.75-1.74,3.97-3.17,6.68-4.26,2.71-1.09,5.94-1.64,9.69-1.64,1.04,0,2.16.08,3.37.22,1.21.15,2.42.38,3.65.7,1.23.32,2.41.72,3.56,1.2,1.15.48,2.19,1.06,3.12,1.73h.11l-.17-3.23h8.69v20.16h-7.35c-.33-1.97-.96-3.74-1.87-5.32-.91-1.58-2.05-2.91-3.43-4.01-1.37-1.09-2.94-1.94-4.71-2.53-1.76-.59-3.67-.89-5.71-.89-.97,0-1.9.11-2.81.33-.91.22-1.72.58-2.42,1.06-.71.48-1.26,1.1-1.67,1.87-.41.76-.61,1.7-.61,2.81,0,1.34.35,2.44,1.06,3.31.7.87,1.69,1.62,2.95,2.26,1.26.63,2.74,1.22,4.43,1.75,1.69.54,3.52,1.14,5.49,1.81,2.9,1,5.57,2.1,8.02,3.29,2.45,1.19,4.57,2.57,6.35,4.15,1.78,1.58,3.18,3.38,4.21,5.4,1.02,2.02,1.53,4.37,1.53,7.04,0,2.97-.58,5.56-1.75,7.77-1.17,2.21-2.72,4.04-4.65,5.49-1.93,1.45-4.14,2.53-6.63,3.26-2.49.72-5.07,1.09-7.74,1.09-1.63,0-3.27-.11-4.9-.33-1.63-.22-3.19-.53-4.68-.92-1.49-.39-2.85-.86-4.09-1.42-1.24-.56-2.31-1.17-3.2-1.84h-.11l.39,3.45h-8.69l-.45-19.6h7.35Z" />
    <path class="cls-1"
      d="M243.87,78.6c0,.56,0,1.23-.03,2-.02.78-.05,1.62-.08,2.51-.04.89-.08,1.81-.14,2.76-.06.95-.12,1.85-.19,2.7l7.41-.33v8.69h-29.91v-7.41c1.6,0,2.85-.24,3.76-.72.91-.48,1.59-1.17,2.03-2.06.45-.89.72-1.96.84-3.2.11-1.24.17-2.63.17-4.15v-18.94c0-1.37.03-2.95.08-4.73s.18-3.53.36-5.24l-8.02.33v-8.58c2.64,0,4.97-.11,6.99-.34,2.02-.23,3.75-.51,5.18-.85,1.43-.34,2.58-.71,3.45-1.1.87-.4,1.51-.78,1.92-1.16h6.18v39.82ZM245.54,19.34c0,1.3-.2,2.51-.61,3.62-.41,1.11-.97,2.1-1.7,2.95-.72.85-1.62,1.52-2.67,2-1.06.48-2.22.72-3.48.72s-2.5-.24-3.59-.72c-1.1-.48-2.03-1.15-2.81-2-.78-.85-1.38-1.84-1.81-2.95-.43-1.11-.64-2.32-.64-3.62s.23-2.52.7-3.68c.46-1.15,1.09-2.15,1.89-3.01.8-.85,1.72-1.52,2.76-2,1.04-.48,2.15-.72,3.34-.72s2.37.24,3.42.72c1.06.48,1.98,1.15,2.76,2,.78.85,1.38,1.86,1.81,3.01.43,1.15.64,2.38.64,3.68Z" />
    <path class="cls-1"
      d="M313.43,42.06c-.56,0-1.14-.12-1.75-.36-.61-.24-1.18-.56-1.7-.95-.52-.39-.96-.85-1.34-1.39-.37-.54-.61-1.1-.72-1.7-.52.11-1.04.45-1.56,1-.52.56-.99,1.21-1.42,1.95-.43.74-.8,1.51-1.12,2.31-.31.8-.53,1.5-.64,2.09,2.23,1.89,3.92,4.09,5.07,6.6s1.73,5.21,1.73,8.1c0,3.31-.72,6.34-2.17,9.11-1.45,2.77-3.37,5.15-5.76,7.16-2.39,2-5.15,3.56-8.27,4.68s-6.35,1.67-9.69,1.67c-1.04,0-2.16-.06-3.37-.2-1.21-.13-2.39-.19-3.54-.19-1.67,0-3.07.31-4.21.92-1.13.61-1.7,1.46-1.7,2.53,0,.71.26,1.3.78,1.78.52.48,1.35.87,2.51,1.17,1.15.3,2.65.55,4.51.75,1.86.21,4.12.38,6.79.53,4.38.26,8.36.73,11.95,1.42,3.58.69,6.65,1.72,9.22,3.09,2.56,1.38,4.55,3.17,5.96,5.38,1.41,2.21,2.12,4.97,2.12,8.27,0,2.15-.45,4.15-1.34,5.99-.89,1.84-2.11,3.5-3.65,4.98-1.54,1.48-3.36,2.79-5.46,3.93-2.1,1.13-4.34,2.08-6.71,2.84-2.38.76-4.86,1.34-7.44,1.73-2.58.39-5.13.58-7.66.58-4.94,0-9.07-.42-12.39-1.25-3.32-.84-6-1.95-8.02-3.34-2.02-1.39-3.46-2.98-4.32-4.76-.85-1.78-1.28-3.64-1.28-5.57,0-1.19.18-2.4.53-3.62.35-1.23.95-2.4,1.78-3.54s1.94-2.21,3.31-3.23c1.37-1.02,3.1-1.92,5.18-2.7-1.56-.45-2.88-1.02-3.95-1.73-1.08-.71-1.95-1.49-2.62-2.37-.67-.87-1.15-1.82-1.45-2.84-.3-1.02-.45-2.07-.45-3.15,0-.96.19-2.02.56-3.17.37-1.15.99-2.3,1.87-3.45.87-1.15,2.01-2.22,3.43-3.2,1.41-.98,3.17-1.79,5.29-2.42v-.11c-1.67-.63-3.19-1.47-4.57-2.51-1.37-1.04-2.55-2.26-3.54-3.68-.98-1.41-1.75-2.99-2.31-4.73-.56-1.74-.84-3.64-.84-5.68,0-3.34.71-6.4,2.14-9.19,1.43-2.78,3.33-5.18,5.71-7.18,2.38-2,5.09-3.56,8.13-4.68,3.04-1.11,6.18-1.67,9.41-1.67,1,0,2.1.07,3.29.2,1.19.13,2.4.33,3.62.61,1.22.28,2.41.64,3.56,1.09,1.15.45,2.21,1,3.17,1.67.63-1.74,1.39-3.44,2.29-5.1.89-1.65,1.94-3.13,3.15-4.43,1.21-1.3,2.56-2.34,4.06-3.12,1.5-.78,3.17-1.17,4.98-1.17,2.56,0,4.52.67,5.88,2,1.36,1.34,2.03,3.12,2.03,5.35,0,.71-.11,1.46-.33,2.26-.22.8-.61,1.54-1.14,2.23-.54.69-1.26,1.26-2.17,1.73-.91.46-2.05.7-3.43.7ZM286.09,103.27c-.85-.04-1.78-.07-2.78-.11-1-.04-2.01-.09-3.04-.17-1.02-.07-2.03-.16-3.04-.25-1-.09-1.91-.21-2.73-.36-1.26.96-2.19,2.19-2.78,3.68-.59,1.48-.89,2.9-.89,4.23,0,1.49.35,2.82,1.06,4.01.71,1.19,1.73,2.2,3.06,3.04,1.34.83,2.94,1.48,4.82,1.92,1.87.45,3.98.67,6.32.67,2.67,0,5.04-.28,7.1-.84s3.79-1.27,5.18-2.14,2.44-1.85,3.15-2.92,1.06-2.15,1.06-3.23c0-2.34-1.34-4.11-4.01-5.32-2.67-1.21-6.83-1.94-12.48-2.2ZM284.42,45.74c-1.52,0-2.87.37-4.04,1.11-1.17.74-2.17,1.74-3.01,2.98-.84,1.24-1.47,2.68-1.89,4.32-.43,1.63-.64,3.32-.64,5.07,0,2,.21,3.94.64,5.79.43,1.86,1.05,3.5,1.87,4.93.82,1.43,1.84,2.57,3.06,3.42,1.23.85,2.62,1.28,4.18,1.28s2.87-.37,4.04-1.11c1.17-.74,2.15-1.73,2.95-2.95.8-1.23,1.4-2.61,1.81-4.15.41-1.54.61-3.09.61-4.65,0-2.01-.19-3.96-.58-5.88-.39-1.91-.98-3.62-1.78-5.12-.8-1.5-1.8-2.72-3.01-3.65-1.21-.93-2.61-1.39-4.2-1.39Z" />
    <path class="cls-1"
      d="M378.87,78.58c0,.56,0,1.23-.03,2.01-.02.78-.05,1.62-.08,2.51-.04.89-.08,1.81-.14,2.76s-.12,1.85-.19,2.7l7.41-.33v8.69h-29.35v-7.41c1.45,0,2.59-.24,3.42-.72.83-.48,1.46-1.17,1.87-2.06.41-.89.67-1.96.78-3.2.11-1.24.17-2.62.17-4.14l-.06-17.8c0-2.48-.2-4.56-.61-6.23-.41-1.67-.97-3-1.7-4-.72-1-1.6-1.71-2.62-2.11-1.02-.41-2.18-.61-3.48-.61-1.82,0-3.55.42-5.18,1.25-1.63.83-3.06,1.81-4.29,2.92v25.81c0,.56,0,1.22-.03,2-.02.78-.05,1.61-.08,2.5-.04.89-.08,1.81-.14,2.75s-.12,1.84-.2,2.7l6.85-.33v8.69h-29.35v-7.41c1.6,0,2.85-.24,3.76-.72.91-.48,1.59-1.17,2.03-2.06.45-.89.72-1.96.83-3.2.11-1.24.17-2.63.17-4.15v-19.21c0-1.37.03-2.9.08-4.59.06-1.69.18-3.39.36-5.1l-8.02.33v-8.58c2.64,0,4.97-.11,6.99-.34,2.02-.23,3.75-.51,5.18-.85,1.43-.34,2.58-.71,3.45-1.11.87-.4,1.51-.78,1.92-1.15h5.62l.5,5.62h.17c1.11-.85,2.34-1.67,3.68-2.45,1.34-.78,2.7-1.46,4.09-2.03,1.39-.58,2.84-1.03,4.34-1.36,1.5-.33,3-.5,4.48-.5,3.49,0,6.38.61,8.66,1.84,2.28,1.23,4.11,3.12,5.49,5.68,1.37-1.15,2.82-2.19,4.34-3.12,1.52-.93,3.09-1.72,4.71-2.37,1.61-.65,3.23-1.15,4.84-1.5,1.62-.35,3.18-.53,4.71-.53,3.04,0,5.74.42,8.08,1.25s4.29,2.19,5.85,4.07c1.56,1.88,2.74,4.32,3.54,7.32.8,3.01,1.2,6.7,1.2,11.08v16.82c0,.56,0,1.23-.03,2-.02.78-.05,1.62-.08,2.51-.04.89-.08,1.81-.14,2.76-.06.95-.12,1.85-.2,2.7l7.41-.33v8.69h-28.79v-7.41c1.3,0,2.33-.24,3.09-.72.76-.48,1.34-1.17,1.73-2.06s.63-1.96.72-3.21c.09-1.25.14-2.63.14-4.16l-.06-17.51c0-2.57-.23-4.7-.7-6.41-.46-1.71-1.1-3.07-1.89-4.07-.8-1-1.76-1.71-2.9-2.12-1.13-.41-2.39-.61-3.76-.61-1.93.04-3.68.41-5.24,1.12s-2.99,1.58-4.29,2.62c.3,1.56.53,3.24.7,5.02.17,1.78.25,3.74.25,5.86v15.34Z" />
    <path class="cls-1"
      d="M454.34,38.05c4.08,0,7.88.67,11.39,2.01,3.51,1.34,6.54,3.27,9.11,5.79,2.56,2.53,4.58,5.6,6.04,9.22,1.47,3.62,2.2,7.71,2.2,12.28s-.7,9.13-2.09,13c-1.39,3.88-3.34,7.18-5.85,9.91-2.51,2.73-5.5,4.83-9,6.29-3.49,1.47-7.31,2.2-11.47,2.2s-7.96-.68-11.5-2.03c-3.55-1.35-6.62-3.29-9.22-5.79-2.6-2.51-4.64-5.55-6.13-9.13-1.49-3.58-2.23-7.62-2.23-12.11,0-4.71.76-9.02,2.28-12.92s3.59-7.23,6.21-10c2.62-2.77,5.67-4.91,9.16-6.43,3.49-1.52,7.18-2.28,11.08-2.28ZM454.12,46.07c-2.23.07-4.08.72-5.57,1.92-1.49,1.21-2.69,2.78-3.62,4.71-.93,1.93-1.59,4.12-1.98,6.55-.39,2.44-.58,4.9-.58,7.39,0,2.94.23,5.85.7,8.73.46,2.88,1.21,5.46,2.23,7.72,1.02,2.27,2.34,4.11,3.95,5.52,1.62,1.41,3.57,2.12,5.88,2.12,2.26-.04,4.11-.67,5.54-1.9,1.43-1.23,2.56-2.82,3.4-4.77.83-1.95,1.41-4.14,1.73-6.55.32-2.42.47-4.85.47-7.3,0-2.83-.19-5.68-.58-8.56-.39-2.88-1.06-5.48-2-7.78-.95-2.3-2.19-4.18-3.73-5.63s-3.48-2.17-5.82-2.17Z" />
    <path class="cls-1"
      d="M514.21,78.6c0,.56,0,1.23-.03,2-.02.78-.05,1.62-.08,2.51-.04.89-.08,1.81-.14,2.76-.06.95-.12,1.85-.19,2.7l7.41-.33v8.69h-29.91v-7.41c1.6,0,2.85-.24,3.76-.72.91-.48,1.59-1.17,2.03-2.06.45-.89.72-1.96.83-3.2.11-1.24.17-2.63.17-4.15v-18.94c0-1.37.03-2.95.08-4.73s.18-3.53.36-5.24l-8.02.33v-8.58c2.64,0,4.97-.11,6.99-.34s3.75-.51,5.18-.85c1.43-.34,2.58-.71,3.45-1.1.87-.4,1.51-.78,1.92-1.16h6.18v39.82ZM515.88,19.34c0,1.3-.2,2.51-.61,3.62-.41,1.11-.97,2.1-1.7,2.95-.72.85-1.62,1.52-2.67,2-1.06.48-2.22.72-3.48.72s-2.5-.24-3.59-.72c-1.1-.48-2.03-1.15-2.81-2-.78-.85-1.38-1.84-1.81-2.95s-.64-2.32-.64-3.62.23-2.52.7-3.68c.46-1.15,1.09-2.15,1.89-3.01.8-.85,1.72-1.52,2.76-2,1.04-.48,2.15-.72,3.34-.72s2.37.24,3.43.72c1.06.48,1.98,1.15,2.76,2,.78.85,1.38,1.86,1.81,3.01.43,1.15.64,2.38.64,3.68Z" />
    <path class="cls-1"
      d="M582.16,10.82v67.78c0,.56,0,1.23-.03,2s-.05,1.62-.08,2.51c-.04.89-.08,1.81-.14,2.76-.06.95-.12,1.85-.19,2.7l7.41-.33v8.69h-21.67l-.61-5.29h-.11c-2.52,2.64-5.13,4.48-7.82,5.54-2.69,1.06-5.45,1.59-8.27,1.59-3.42,0-6.54-.68-9.36-2.03-2.82-1.35-5.25-3.29-7.27-5.79-2.02-2.51-3.59-5.54-4.71-9.11s-1.67-7.56-1.67-11.97.68-8.85,2.03-12.73c1.35-3.88,3.27-7.23,5.74-10.05,2.47-2.82,5.44-5.03,8.91-6.63,3.47-1.6,7.32-2.4,11.56-2.4,2.12,0,3.98.21,5.6.64,1.62.43,3.13.9,4.54,1.42v-7.57c0-.56,0-1.23.03-2,.02-.78.05-1.62.08-2.51s.08-1.81.14-2.76.12-1.85.19-2.7l-8.02.33v-8.69c2.64,0,4.97-.11,6.99-.33s3.75-.5,5.18-.84c1.43-.33,2.58-.7,3.45-1.09.87-.39,1.51-.77,1.92-1.14h6.18ZM556.59,88.34c1.93,0,3.73-.5,5.4-1.5,1.67-1,3.01-2.3,4.01-3.9v-34.31c-.82-.56-1.95-1.05-3.4-1.48-1.45-.43-3.01-.64-4.68-.64-2.64.07-4.83.73-6.57,1.98-1.75,1.24-3.14,2.88-4.18,4.9-1.04,2.02-1.77,4.32-2.2,6.88-.43,2.56-.64,5.18-.64,7.85,0,2.45.22,4.88.67,7.3.45,2.41,1.16,4.58,2.14,6.49.98,1.91,2.26,3.46,3.82,4.65,1.56,1.19,3.43,1.78,5.62,1.78Z" />
  </g>
</svg>