<svg width="176" height="155" viewBox="0 0 176 155" fill="none" xmlns="http://www.w3.org/2000/svg">
<g filter="url(#filter0_d_651_3510)">
<rect x="46" y="24.6895" width="84" height="84" rx="42" fill="#68A843" shape-rendering="crispEdges"/>
<path d="M107.557 52.2798C108.03 53.5558 107.38 54.9739 106.104 55.4473C103.495 56.4154 100.632 58.4304 97.7344 61.0928C94.8642 63.7298 92.0981 66.8716 89.6714 69.9191C87.2496 72.9603 85.196 75.8693 83.7471 78.0198C83.0234 79.0936 82.4527 79.9753 82.0647 80.5857C81.8707 80.8908 81.7225 81.1278 81.6238 81.287L81.5133 81.4659L81.4868 81.5093L81.4809 81.5191C81.0283 82.265 80.2136 82.7182 79.3409 82.7068C78.4681 82.6955 77.6665 82.2234 77.2334 81.4654C74.8944 77.3719 72.9621 75.529 71.7994 74.7151C71.2217 74.3107 70.8286 74.1562 70.6557 74.1012C70.6149 74.0882 70.5849 74.0803 70.5661 74.0759C69.2903 73.9825 68.2842 72.9179 68.2842 71.6183C68.2842 70.2574 69.3874 69.1542 70.7483 69.1542C71.0391 69.1736 71.7265 69.2513 72.15 69.4048C72.8242 69.6194 73.6633 70.0041 74.6256 70.6775C76.005 71.6432 77.6237 73.192 79.3875 75.6719C79.4758 75.5396 79.5667 75.4043 79.6599 75.2658C81.1598 73.0399 83.2914 70.0196 85.8162 66.8489C88.3361 63.6847 91.2776 60.3324 94.4002 57.4636C97.4951 54.6201 100.911 52.1175 104.389 50.8267C105.665 50.3533 107.083 51.0039 107.557 52.2798Z" fill="white"/>
</g>
<defs>
<filter id="filter0_d_651_3510" x="0.181812" y="-21.1287" width="175.636" height="175.636" filterUnits="userSpaceOnUse" color-interpolation-filters="sRGB">
<feFlood flood-opacity="0" result="BackgroundImageFix"/>
<feColorMatrix in="SourceAlpha" type="matrix" values="0 0 0 0 0 0 0 0 0 0 0 0 0 0 0 0 0 0 127 0" result="hardAlpha"/>
<feOffset/>
<feGaussianBlur stdDeviation="22.9091"/>
<feComposite in2="hardAlpha" operator="out"/>
<feColorMatrix type="matrix" values="0 0 0 0 0 0 0 0 0 0 0 0 0 0 0 0 0 0 0.03 0"/>
<feBlend mode="normal" in2="BackgroundImageFix" result="effect1_dropShadow_651_3510"/>
<feBlend mode="normal" in="SourceGraphic" in2="effect1_dropShadow_651_3510" result="shape"/>
</filter>
</defs>
</svg>
