<svg xmlns="http://www.w3.org/2000/svg" width="160" height="29" viewBox="0 0 160 29" fill="none">
    <g id="logo" clip-path="url(#clip0_63_591)">
        <path id="Vector"
            d="M52.2527 0.817545C52.1327 0.697786 51.971 0.633301 51.8048 0.633301H42.1023C41.9315 0.633301 41.7698 0.702392 41.6544 0.817545L33.2035 9.24671C33.0834 9.36647 33.0187 9.52768 33.0187 9.6935V27.8784C33.0187 28.1455 33.2358 28.3666 33.5082 28.3666H37.4797C37.7476 28.3666 37.9692 28.1501 37.9692 27.8784V17.6436C37.9692 17.1416 38.3802 16.7316 38.8836 16.7316H55.0374C55.5407 16.7316 55.9517 17.1416 55.9517 17.6436V27.8784C55.9517 28.1455 56.1688 28.3666 56.4412 28.3666H60.4127C60.6806 28.3666 60.9022 28.1501 60.9022 27.8784V9.69811C60.9022 9.52768 60.833 9.36647 60.7175 9.25132L52.2527 0.817545ZM55.9471 10.8911C55.9471 11.3932 55.5361 11.8031 55.0328 11.8031H38.879C38.3756 11.8031 37.9646 11.3932 37.9646 10.8911V6.48305C37.9646 5.98098 38.3756 5.57104 38.879 5.57104H55.0328C55.5361 5.57104 55.9471 5.98098 55.9471 6.48305V10.8911ZM90.1342 23.4335H73.103C72.5996 23.4335 72.1886 23.0236 72.1886 22.5215V1.12155C72.1886 0.854394 71.9716 0.633301 71.6991 0.633301H67.7277C67.4598 0.633301 67.2381 0.849788 67.2381 1.12155V19.3064C67.2381 19.4769 67.3074 19.6381 67.4229 19.7532L75.8738 28.1824C75.9939 28.3021 76.1555 28.3666 76.3218 28.3666H90.125C90.3928 28.3666 90.6145 28.1501 90.6145 27.8784V23.9171C90.6145 23.65 90.3974 23.4289 90.125 23.4289L90.1342 23.4335ZM30.017 0.633301H19.8436C19.6727 0.633301 19.5111 0.702392 19.3956 0.817545L15.812 4.39188C15.5026 4.70049 15.0085 4.70049 14.6991 4.39188L11.1109 0.817545C10.9908 0.697786 10.8292 0.633301 10.663 0.633301H0.489508C0.217046 0.633301 0 0.849788 0 1.12155V5.08279C0 5.34995 0.217046 5.57104 0.489508 5.57104H12.3162C12.5748 5.57104 12.7826 5.77832 12.7826 6.03626V27.8876C12.7826 28.1548 12.9997 28.3758 13.2721 28.3758H17.2436C17.5115 28.3758 17.7331 28.1594 17.7331 27.8876V6.03165C17.7331 5.77371 17.9409 5.56643 18.1996 5.56643H30.0263C30.2941 5.56643 30.5158 5.34995 30.5158 5.07819V1.12155C30.5158 0.854394 30.2987 0.633301 30.0263 0.633301H30.017ZM120.899 0.633301H116.928C116.66 0.633301 116.438 0.849788 116.438 1.12155V22.5215C116.438 23.0236 116.027 23.4335 115.524 23.4335H99.3702C98.8669 23.4335 98.4558 23.0236 98.4558 22.5215V1.12155C98.4558 0.854394 98.2388 0.633301 97.9663 0.633301H93.9949C93.727 0.633301 93.5053 0.849788 93.5053 1.12155V19.3064C93.5053 19.4769 93.5746 19.6381 93.6901 19.7532L102.141 28.1824C102.261 28.3021 102.423 28.3666 102.589 28.3666H112.291C112.462 28.3666 112.624 28.2975 112.739 28.1824L121.19 19.7532C121.31 19.6335 121.375 19.4723 121.375 19.3064V1.12155C121.375 0.854394 121.158 0.633301 120.885 0.633301H120.899ZM145.818 12.1439C145.698 12.0242 145.536 11.9597 145.37 11.9597H132.68C132.177 11.9597 131.766 11.5498 131.766 11.0477V6.49687C131.766 5.98559 132.181 5.57104 132.694 5.57104H148.774C149.277 5.57104 149.688 5.98098 149.688 6.48305V9.30659C149.688 9.57374 149.905 9.79484 150.178 9.79484H154.149C154.417 9.79484 154.638 9.57835 154.638 9.30659V5.42825C154.648 5.25783 154.578 5.09661 154.458 4.97685L150.293 0.822151C150.173 0.702392 150.011 0.637907 149.845 0.637907H131.493C131.322 0.637907 131.161 0.706998 131.045 0.822151L127.018 4.83867C126.898 4.95843 126.833 5.11964 126.833 5.28546V7.62076C126.833 7.79118 126.903 7.95239 127.018 8.06755L135.677 16.704C135.797 16.8237 135.959 16.8882 136.125 16.8882H148.848C149.351 16.8882 149.762 17.2982 149.762 17.8002V22.5215C149.762 23.0236 149.351 23.4335 148.848 23.4335H132.694C132.19 23.4335 131.779 23.0236 131.779 22.5215V19.6427C131.779 19.3755 131.562 19.1544 131.29 19.1544H127.318C127.051 19.1544 126.829 19.3709 126.829 19.6427V23.7145C126.829 23.8849 126.898 24.0461 127.014 24.1613L131.04 28.1778C131.161 28.2975 131.322 28.362 131.488 28.362H149.84C150.011 28.362 150.173 28.2929 150.288 28.1778L154.514 23.9632C154.634 23.8434 154.699 23.6822 154.699 23.5164V21.2594C154.699 21.089 154.629 20.9278 154.514 20.8126L145.823 12.1439H145.818ZM158.301 0.633301C157.368 0.633301 156.606 1.39331 156.606 2.32374C156.606 3.25417 157.368 4.01418 158.301 4.01418C159.233 4.01418 159.995 3.25417 159.995 2.32374C159.995 1.39331 159.233 0.633301 158.301 0.633301ZM158.301 3.70096C157.539 3.70096 156.92 3.08375 156.92 2.32374C156.92 1.56373 157.539 0.946516 158.301 0.946516C159.063 0.946516 159.681 1.56373 159.681 2.32374C159.681 3.08375 159.063 3.70096 158.301 3.70096ZM158.956 2.43429C159.058 2.38362 159.132 2.32374 159.164 2.25465C159.201 2.18556 159.22 2.10725 159.22 2.01974C159.22 1.92301 159.196 1.83549 159.146 1.74798C159.095 1.66507 159.021 1.59598 158.919 1.5407C158.818 1.48543 158.688 1.45779 158.531 1.45779H157.839C157.806 1.45779 157.779 1.47161 157.751 1.49464L157.479 1.7664C157.455 1.78943 157.442 1.81707 157.442 1.85392V3.02847H157.825V2.63695C157.825 2.63695 157.83 2.61392 157.839 2.60471C157.848 2.5955 157.857 2.59089 157.871 2.59089H158.527C158.61 2.59089 158.675 2.60471 158.716 2.63235C158.758 2.65999 158.785 2.70605 158.804 2.76132C158.822 2.8212 158.836 2.90871 158.85 3.02847H159.233C159.229 2.88568 159.206 2.76593 159.169 2.66459C159.132 2.56326 159.058 2.48495 158.952 2.42968L158.956 2.43429ZM158.767 2.19016C158.721 2.23162 158.642 2.25004 158.531 2.25004H157.876C157.876 2.25004 157.853 2.24544 157.843 2.23622C157.834 2.22701 157.83 2.2178 157.83 2.20398V1.85392C157.83 1.85392 157.834 1.83089 157.843 1.82167C157.853 1.81246 157.862 1.80786 157.876 1.80786H158.531C158.647 1.80786 158.725 1.82628 158.772 1.86313C158.818 1.89998 158.836 1.95525 158.836 2.02434C158.836 2.09343 158.813 2.15331 158.767 2.19477V2.19016Z"
            fill="white" />
    </g>
    <defs>
        <clipPath id="clip0_63_591">
            <rect width="160" height="27.7333" fill="white" transform="translate(0 0.633301)" />
        </clipPath>
    </defs>
</svg>