<svg width="60" height="60" viewBox="0 0 60 60" fill="none" xmlns="http://www.w3.org/2000/svg">
<path d="M49.5568 15.2798C50.0304 16.5558 49.3799 17.9739 48.104 18.4473C45.4947 19.4154 42.6323 21.4304 39.7344 24.0928C36.8642 26.7298 34.0981 29.8716 31.6714 32.9191C29.2496 35.9603 27.196 38.8693 25.7471 41.0198C25.0234 42.0936 24.4527 42.9753 24.0647 43.5857C23.8707 43.8908 23.7225 44.1278 23.6238 44.287L23.5133 44.4659L23.4868 44.5093L23.4809 44.5191C23.0283 45.265 22.2136 45.7182 21.3409 45.7068C20.4681 45.6955 19.6665 45.2234 19.2334 44.4654C16.8944 40.3719 14.9621 38.529 13.7994 37.7151C13.2217 37.3107 12.8286 37.1562 12.6557 37.1012C12.6149 37.0882 12.5849 37.0803 12.5661 37.0759C11.2903 36.9825 10.2842 35.9179 10.2842 34.6183C10.2842 33.2574 11.3874 32.1542 12.7483 32.1542C13.0391 32.1736 13.7265 32.2513 14.15 32.4048C14.8242 32.6194 15.6633 33.0041 16.6256 33.6775C18.005 34.6432 19.6237 36.192 21.3875 38.6719C21.4758 38.5396 21.5667 38.4043 21.6599 38.2658C23.1598 36.0399 25.2914 33.0196 27.8162 29.8489C30.3361 26.6847 33.2776 23.3324 36.4002 20.4636C39.4951 17.6201 42.9107 15.1175 46.3894 13.8267C47.6653 13.3533 49.0835 14.0039 49.5568 15.2798Z" fill="white"/>
</svg>
