<svg width="24" height="25" viewBox="0 0 24 25" fill="none" xmlns="http://www.w3.org/2000/svg">
    <path
        d="M5.32171 10.1829C7.73539 5.91199 8.94222 3.77651 10.5983 3.22681C11.5093 2.9244 12.4907 2.9244 13.4017 3.22681C15.0578 3.77651 16.2646 5.91199 18.6783 10.1829C21.092 14.4539 22.2988 16.5893 21.9368 18.3293C21.7376 19.2866 21.2469 20.1549 20.535 20.8097C19.241 22 16.8274 22 12 22C7.17265 22 4.75897 22 3.46496 20.8097C2.75308 20.1549 2.26239 19.2866 2.06322 18.3293C1.70119 16.5893 2.90803 14.4539 5.32171 10.1829Z"
        stroke="#E00606" stroke-width="1.5" />
    <path opacity="0.4" d="M11.9922 16.5H12.0012" stroke="#E00606" stroke-width="2" stroke-linecap="round"
        stroke-linejoin="round" />
    <path opacity="0.4" d="M12 13.5V9.5" stroke="#E00606" stroke-width="1.5" stroke-linecap="round"
        stroke-linejoin="round" />
</svg>