<svg width="27" height="27" viewBox="0 0 27 27" fill="none" xmlns="http://www.w3.org/2000/svg">
<path d="M17.6934 15.5959C17.6934 16.4643 18.3974 17.1683 19.2658 17.1683C20.1342 17.1683 20.8382 16.4643 20.8382 15.5959C20.8382 14.7275 20.1342 14.0234 19.2658 14.0234C18.3974 14.0234 17.6934 14.7275 17.6934 15.5959Z" stroke="#26272C" stroke-width="1.57244"/>
<path d="M11.4039 8.25764H17.6937C20.6587 8.25764 22.1412 8.25764 23.0623 9.17875C23.9835 10.0999 23.9835 11.5824 23.9835 14.5474V16.644C23.9835 19.609 23.9835 21.0915 23.0623 22.0126C22.1412 22.9338 20.6587 22.9338 17.6937 22.9338H11.4039C7.45057 22.9338 5.47389 22.9338 4.24573 21.7056C3.01758 20.4775 3.01758 18.5007 3.01758 14.5474V12.4508C3.01758 8.49744 3.01758 6.52077 4.24573 5.2926C5.47389 4.06445 7.45057 4.06445 11.4039 4.06445H15.5971C16.572 4.06445 17.0595 4.06445 17.4594 4.17161C18.5446 4.46241 19.3924 5.31011 19.6832 6.39538C19.7903 6.7953 19.7903 7.28275 19.7903 8.25764" stroke="#26272C" stroke-width="1.57244" stroke-linecap="round"/>
</svg>
