<svg width="60" height="60" viewBox="0 0 60 60" fill="none" xmlns="http://www.w3.org/2000/svg">
<g filter="url(#filter0_i)">
<circle cx="30" cy="30" r="30" fill="white"/>
</g>
<g clip-path="url(#clip0)">
<path d="M21.1437 24.0452C26.0349 19.2305 33.9649 19.2305 38.8561 24.0452L39.4447 24.6247C39.6893 24.8654 39.6893 25.2557 39.4447 25.4965L37.431 27.4787C37.3088 27.599 37.1105 27.599 36.9882 27.4787L36.1782 26.6813C32.766 23.3224 27.2338 23.3224 23.8216 26.6813L22.9541 27.5352C22.8318 27.6556 22.6336 27.6556 22.5113 27.5352L20.4976 25.553C20.2531 25.3123 20.2531 24.922 20.4976 24.6812L21.1437 24.0452ZM43.0205 28.1446L44.8127 29.9088C45.0572 30.1496 45.0572 30.5399 44.8127 30.7806L36.7317 38.7355C36.4871 38.9762 36.0906 38.9762 35.8461 38.7355C35.8461 38.7355 35.8461 38.7355 35.8461 38.7355L30.1106 33.0897C30.0495 33.0295 29.9504 33.0295 29.8892 33.0897C29.8892 33.0897 29.8892 33.0897 29.8892 33.0897L24.1539 38.7355C23.9094 38.9762 23.5129 38.9762 23.2683 38.7355C23.2683 38.7355 23.2683 38.7355 23.2683 38.7355L15.1871 30.7805C14.9425 30.5398 14.9425 30.1495 15.1871 29.9087L16.9793 28.1445C17.2238 27.9038 17.6203 27.9038 17.8649 28.1445L23.6004 33.7904C23.6615 33.8506 23.7606 33.8506 23.8218 33.7904C23.8218 33.7904 23.8218 33.7904 23.8218 33.7904L29.557 28.1445C29.8015 27.9038 30.198 27.9038 30.4426 28.1445C30.4426 28.1445 30.4426 28.1445 30.4426 28.1445L36.1781 33.7904C36.2392 33.8506 36.3384 33.8506 36.3995 33.7904L42.1349 28.1446C42.3795 27.9039 42.776 27.9039 43.0205 28.1446Z" fill="#3B99FC"/>
</g>
<defs>
<filter id="filter0_i" x="0" y="0" width="60" height="60" filterUnits="userSpaceOnUse" color-interpolation-filters="sRGB">
<feFlood flood-opacity="0" result="BackgroundImageFix"/>
<feBlend mode="normal" in="SourceGraphic" in2="BackgroundImageFix" result="shape"/>
<feColorMatrix in="SourceAlpha" type="matrix" values="0 0 0 0 0 0 0 0 0 0 0 0 0 0 0 0 0 0 127 0" result="hardAlpha"/>
<feOffset/>
<feGaussianBlur stdDeviation="7"/>
<feComposite in2="hardAlpha" operator="arithmetic" k2="-1" k3="1"/>
<feColorMatrix type="matrix" values="0 0 0 0 0.1225 0 0 0 0 0.2408 0 0 0 0 0.35 0 0 0 0.15 0"/>
<feBlend mode="normal" in2="shape" result="effect1_innerShadow"/>
</filter>
<clipPath id="clip0">
<rect width="30" height="18.6" fill="white" transform="translate(15 20.4)"/>
</clipPath>
</defs>
</svg>
