<svg width="34" height="34" viewBox="0 0 34 34" fill="none" xmlns="http://www.w3.org/2000/svg">
<circle opacity="0.2" cx="17" cy="17" r="16.5" stroke="#0498AD"/>
<path d="M23.5794 19.0767L22.6502 22.2184L20.826 21.7195L23.5794 19.0767Z" fill="#E4761B"/>
<path fill-rule="evenodd" clip-rule="evenodd" d="M23.6178 19.0137L22.6629 22.2422L20.7885 21.7295L23.6178 19.0137ZM20.8633 21.7105L22.637 22.1956L23.5405 19.1406L20.8633 21.7105Z" fill="#E4761B"/>
<path d="M20.826 21.7195L22.5854 19.309L23.5794 19.0767L20.826 21.7195Z" fill="#E4761B"/>
<path fill-rule="evenodd" clip-rule="evenodd" d="M23.6425 19.042L20.8391 21.733L20.8105 21.708L22.5741 19.2917L23.6425 19.042ZM22.5965 19.3256L20.969 21.5555L23.516 19.1107L22.5965 19.3256Z" fill="#E4761B"/>
<path d="M22.213 16.7084L23.5802 19.0771L22.5862 19.3094L22.213 16.7084ZM22.213 16.7084L23.0927 16.0991L23.5802 19.0771L22.213 16.7084Z" fill="#F6851B"/>
<path fill-rule="evenodd" clip-rule="evenodd" d="M23.1073 16.0654L23.5991 19.0697L23.6102 19.0889L22.571 19.3318L22.1954 16.7139L22.1885 16.7019L23.1073 16.0654ZM22.2466 16.8026L23.5516 19.0635L22.6028 19.2853L22.2466 16.8026ZM23.5452 18.9764L22.239 16.7132L23.0795 16.131L23.5452 18.9764Z" fill="#F6851B"/>
<path d="M21.0935 14.9182L23.6221 13.8823L23.4965 14.4497L21.0935 14.9182ZM23.4165 15.1314L21.0935 14.9182L23.4965 14.4497L23.4165 15.1314Z" fill="#763D16"/>
<path fill-rule="evenodd" clip-rule="evenodd" d="M23.6485 13.8511L23.5152 14.4531L23.4331 15.1522L21.0917 14.9373L21.0905 14.9153L21.0862 14.9007L23.6485 13.8511ZM21.2796 14.8626L23.4805 14.4336L23.5956 13.9139L21.2796 14.8626ZM21.2277 14.9115L23.4744 14.4736L23.3996 15.1109L21.2277 14.9115Z" fill="#763D16"/>
<path d="M23.4165 15.1314L23.0928 16.0987L21.0935 14.9182L23.4165 15.1314ZM23.923 14.1222L23.4965 14.4497L23.6221 13.8823L23.923 14.1222ZM23.4165 15.1314L23.4965 14.4497L23.8354 14.7316L23.4165 15.1314Z" fill="#763D16"/>
<path fill-rule="evenodd" clip-rule="evenodd" d="M23.6108 13.8486L23.9545 14.1227L23.5276 14.4506L23.8647 14.7308L23.4337 15.1422L23.104 16.1273L21.0845 14.9348L21.0959 14.8994L23.4004 15.111L23.473 14.4925L23.4672 14.4969L23.4783 14.4468L23.4823 14.4129L23.4853 14.4154L23.6108 13.8486ZM23.5119 14.4871L23.4422 15.0814L23.8074 14.7328L23.5119 14.4871ZM23.527 14.403L23.8927 14.1222L23.6348 13.9165L23.527 14.403ZM23.3915 15.1484L21.1768 14.9451L23.0829 16.0706L23.3915 15.1484Z" fill="#763D16"/>
<path d="M18.865 20.9546L19.4971 21.1564L20.8262 21.72L18.865 20.9546Z" fill="#E2761B"/>
<path fill-rule="evenodd" clip-rule="evenodd" d="M18.8579 20.9719L18.8706 20.936L19.5036 21.1381L20.8335 21.7021L20.8191 21.7374L18.8579 20.9719ZM19.4341 21.1559L19.6086 21.224L19.4904 21.1739L19.4341 21.1559Z" fill="#E2761B"/>
<path d="M23.0932 16.0985L23.4169 15.1312L23.6949 15.3445L23.0932 16.0985ZM23.0932 16.0985L20.4694 15.234L21.0939 14.918L23.0932 16.0985Z" fill="#763D16"/>
<path fill-rule="evenodd" clip-rule="evenodd" d="M21.0938 14.8965L23.0819 16.0704L23.4066 15.1001L23.7211 15.3414L23.1073 16.1106L23.0929 16.1027L23.0865 16.1168L20.4191 15.238L21.0938 14.8965ZM23.1446 16.0028L23.6671 15.348L23.4257 15.1628L23.1446 16.0028ZM22.9309 16.0255L20.5181 15.2305L21.0924 14.9399L22.9309 16.0255Z" fill="#763D16"/>
<path d="M21.7184 11.9517L21.0939 14.9182L20.4694 15.2343L21.7184 11.9517Z" fill="#763D16"/>
<path fill-rule="evenodd" clip-rule="evenodd" d="M20.504 15.1951L21.0766 14.9053L21.6491 12.1859L20.504 15.1951ZM21.7 11.9448L21.7365 11.9555L21.1101 14.931L20.4335 15.2735L21.7 11.9448Z" fill="#763D16"/>
<path d="M23.6221 13.8824L21.0935 14.9182L21.718 11.9517L23.6221 13.8824Z" fill="#763D16"/>
<path fill-rule="evenodd" clip-rule="evenodd" d="M21.7057 11.9126L23.6546 13.8888L21.0664 14.949L21.7057 11.9126ZM21.7283 11.9898L21.1185 14.8865L23.5876 13.8751L21.7283 11.9898Z" fill="#763D16"/>
<path d="M21.7179 11.9516L24.357 11.647L23.622 13.8824L21.7179 11.9516Z" fill="#763D16"/>
<path fill-rule="evenodd" clip-rule="evenodd" d="M24.3852 11.6245L23.6312 13.9178L21.6777 11.9371L24.3852 11.6245ZM21.7597 11.9659L23.6145 13.8467L24.3304 11.6692L21.7597 11.9659Z" fill="#763D16"/>
<path d="M23.0932 16.0993L22.2135 16.7086L20.4694 15.2349L23.0932 16.0993Z" fill="#F6851B"/>
<path fill-rule="evenodd" clip-rule="evenodd" d="M20.4564 15.2484L20.4747 15.2158L23.1348 16.0922L22.2117 16.7316L20.4564 15.2484ZM20.556 15.2827L22.214 16.6837L23.0503 16.1045L20.556 15.2827Z" fill="#F6851B"/>
<path d="M24.2427 9.51074L24.357 11.6471L21.7179 11.9518L24.2427 9.51074Z" fill="#763D16"/>
<path fill-rule="evenodd" clip-rule="evenodd" d="M24.2599 9.46826L24.3773 11.6642L21.6647 11.9774L24.2599 9.46826ZM21.7719 11.9267L24.3374 11.6305L24.2263 9.55369L21.7719 11.9267Z" fill="#763D16"/>
<path d="M24.2429 9.51074L18.9686 13.3456L18.9 10.7446L24.2429 9.51074Z" fill="#E2761B"/>
<path fill-rule="evenodd" clip-rule="evenodd" d="M18.9186 10.7592L18.9858 13.3084L24.1553 9.54985L18.9186 10.7592ZM24.2378 9.4917L24.2533 9.52565L18.9497 13.3818L18.8798 10.7291L24.2378 9.4917Z" fill="#E2761B"/>
<path d="M14.9781 10.4316L18.9006 10.7439L18.9691 13.3449L14.9781 10.4316Z" fill="#F6851B"/>
<path fill-rule="evenodd" clip-rule="evenodd" d="M14.9117 10.4077L18.9184 10.7267L18.9884 13.3835L14.9117 10.4077ZM15.043 10.4564L18.9483 13.3071L18.8812 10.7619L15.043 10.4564Z" fill="#F6851B"/>
<path d="M20.4688 15.2343L18.9684 13.3455L21.7179 11.9517L20.4688 15.2343Z" fill="#763D16"/>
<path fill-rule="evenodd" clip-rule="evenodd" d="M21.7528 11.9126L20.4744 15.2725L18.9386 13.3392L21.7528 11.9126ZM18.9975 13.3521L20.4626 15.1965L21.6822 11.9911L18.9975 13.3521Z" fill="#763D16"/>
<path d="M20.4687 15.2349L22.2128 16.7086L19.7642 16.979L20.4687 15.2349Z" fill="#E4761B"/>
<path fill-rule="evenodd" clip-rule="evenodd" d="M20.461 15.2026L22.2591 16.722L19.7347 17.0007L20.461 15.2026ZM20.4767 15.2657L19.7939 16.9559L22.1669 16.6939L20.4767 15.2657Z" fill="#E4761B"/>
<path d="M19.7643 16.9787L18.9684 13.3457L20.4688 15.2346L19.7643 16.9787Z" fill="#E4761B"/>
<path fill-rule="evenodd" clip-rule="evenodd" d="M18.9508 13.3494L18.9843 13.3335L20.4916 15.231L19.7599 17.0426L18.9508 13.3494ZM19.0056 13.4215L19.7707 16.9141L20.448 15.2374L19.0056 13.4215Z" fill="#E4761B"/>
<path d="M21.7179 11.9518L18.9684 13.3456L24.2427 9.51074L21.7179 11.9518Z" fill="#763D16"/>
<path fill-rule="evenodd" clip-rule="evenodd" d="M19.1735 13.2207L21.7079 11.9359L24.0352 9.68578L19.1735 13.2207ZM18.9584 13.33L24.2327 9.49512L24.2571 9.52421L21.7303 11.9673L18.9782 13.3623L18.9584 13.33Z" fill="#763D16"/>
<path d="M15.0104 21.6588L16.2557 22.9574L14.561 21.415L15.0104 21.6588Z" fill="#C0AD9E"/>
<path fill-rule="evenodd" clip-rule="evenodd" d="M14.5499 21.4288L14.5718 21.3979L15.0238 21.6431L16.2711 22.9438L16.2446 22.9711L14.5499 21.4288ZM14.6917 21.5063L15.8561 22.566L15.0004 21.6737L14.6917 21.5063Z" fill="#C0AD9E"/>
<path d="M20.826 21.7197L21.4163 19.4766L22.5854 19.3091L20.826 21.7197Z" fill="#CD6116"/>
<path fill-rule="evenodd" clip-rule="evenodd" d="M22.628 19.2837L20.842 21.7308L20.8082 21.7147L21.4017 19.4595L22.628 19.2837ZM21.4321 19.4936L20.8707 21.6268L22.544 19.3342L21.4321 19.4936Z" fill="#CD6116"/>
<path d="M9.96191 15.4089L12.1174 13.1431L10.2399 15.1386L9.96191 15.4089Z" fill="#E2761B"/>
<path d="M22.5869 19.3085L21.4178 19.4761L22.2137 16.7075L22.5869 19.3085ZM18.9691 13.3449L16.8708 13.2764L14.9781 10.4316L18.9691 13.3449Z" fill="#F6851B"/>
<path fill-rule="evenodd" clip-rule="evenodd" d="M14.9623 10.4424L14.9894 10.4165L19.0302 13.3662L16.8604 13.2953L14.9623 10.4424ZM15.0531 10.5102L16.8812 13.2579L18.908 13.3241L15.0531 10.5102ZM21.4442 19.4533L22.5653 19.2926L22.2075 16.7984L21.4442 19.4533ZM22.1954 16.7025L22.2325 16.7051L22.6084 19.3249L21.3914 19.4994L22.1954 16.7025Z" fill="#F6851B"/>
<path d="M22.2121 16.708L21.4162 19.4766L21.3514 18.1247L22.2121 16.708Z" fill="#E4751F"/>
<path fill-rule="evenodd" clip-rule="evenodd" d="M21.3721 18.1297L21.431 19.3608L22.1558 16.8396L21.3721 18.1297ZM22.1972 16.6982L22.2317 16.7134L21.4358 19.4819L21.3985 19.4776L21.3335 18.1199L22.1972 16.6982Z" fill="#E4751F"/>
<path d="M19.7642 16.9784L22.2128 16.708L21.3522 18.1247L19.7642 16.9784Z" fill="#CD6116"/>
<path fill-rule="evenodd" clip-rule="evenodd" d="M22.2491 16.6851L21.3577 18.1524L19.7129 16.9651L22.2491 16.6851ZM19.8154 16.9921L21.3466 18.0974L22.1764 16.7314L19.8154 16.9921Z" fill="#CD6116"/>
<path d="M16.8707 13.2773L18.969 13.3459L19.765 16.9789L16.8707 13.2773Z" fill="#F6851B"/>
<path fill-rule="evenodd" clip-rule="evenodd" d="M16.8292 13.2559L18.9831 13.3262L19.7821 16.9737L19.7485 16.9895L16.8292 13.2559ZM16.9094 13.2966L19.7271 16.9002L18.9522 13.3633L16.9094 13.2966Z" fill="#F6851B"/>
<path d="M16.8691 13.2767L11.2063 8.03662L14.9764 10.432L16.8691 13.2767ZM14.9726 22.4544L10.0525 23.9777L9.06995 20.2266L14.9726 22.4544Z" fill="#E4761B"/>
<path fill-rule="evenodd" clip-rule="evenodd" d="M11.195 8.0486L11.2182 8.01855L14.9917 10.4161L16.8866 13.2641L16.8578 13.2887L11.195 8.0486ZM11.3752 8.16345L16.7663 13.1521L14.9645 10.4439L11.3752 8.16345ZM9.04382 20.1938L15.0329 22.4542L10.0407 23.9998L9.04382 20.1938ZM9.09934 20.2555L10.0675 23.9516L14.9156 22.4506L9.09934 20.2555Z" fill="#E4761B"/>
<path d="M10.6925 16.3462L12.5509 14.8877L14.1085 15.2495L10.6925 16.3462Z" fill="#763D16"/>
<path fill-rule="evenodd" clip-rule="evenodd" d="M12.5473 14.8677L14.1809 15.2471L10.6993 16.365L10.6818 16.3318L12.5473 14.8677ZM12.5565 14.9089L10.7888 16.2962L14.038 15.253L12.5565 14.9089Z" fill="#763D16"/>
<path d="M14.1094 15.2492L12.5519 14.8874L13.3859 11.4448L14.1094 15.2492Z" fill="#763D16"/>
<path fill-rule="evenodd" clip-rule="evenodd" d="M12.5754 14.8733L14.0857 15.2241L13.3841 11.535L12.5754 14.8733ZM13.3678 11.4404L13.405 11.4414L14.134 15.2745L12.5293 14.9017L13.3678 11.4404Z" fill="#763D16"/>
<path d="M10.2399 15.139L12.5514 14.8877L10.693 16.3462L10.2399 15.139Z" fill="#763D16"/>
<path fill-rule="evenodd" clip-rule="evenodd" d="M12.6166 14.8618L10.6854 16.3775L10.2145 15.123L12.6166 14.8618ZM10.2674 15.1556L10.7028 16.3155L12.4884 14.9141L10.2674 15.1556Z" fill="#763D16"/>
<path d="M21.3522 18.1248L20.3925 17.6411L19.7642 16.9785L21.3522 18.1248Z" fill="#CD6116"/>
<path fill-rule="evenodd" clip-rule="evenodd" d="M19.7504 16.9914L19.7753 16.9629L21.3633 18.1092L21.3436 18.1416L20.381 17.6565L19.7504 16.9914ZM19.9179 17.1128L20.4041 17.6254L21.1465 17.9996L19.9179 17.1128Z" fill="#CD6116"/>
<path d="M10.2393 15.1398L10.0756 14.2754L12.5509 14.8885L10.2393 15.1398Z" fill="#763D16"/>
<path fill-rule="evenodd" clip-rule="evenodd" d="M10.052 14.249L12.5561 14.8693L12.5536 14.9067L10.2246 15.1599L10.052 14.249ZM10.1005 14.3003L10.2554 15.1183L12.4428 14.8804L10.1005 14.3003Z" fill="#763D16"/>
<path d="M20.1941 18.7307L20.3921 17.6416L21.3518 18.1252L20.1941 18.7307Z" fill="#233447"/>
<path fill-rule="evenodd" clip-rule="evenodd" d="M20.3789 17.6123L21.3944 18.1241L20.1693 18.7648L20.3789 17.6123ZM20.4072 17.6692L20.2207 18.695L21.311 18.1247L20.4072 17.6692Z" fill="#233447"/>
<path d="M21.4165 19.4769L20.1941 18.7305L21.3518 18.125L21.4165 19.4769Z" fill="#F6851B"/>
<path fill-rule="evenodd" clip-rule="evenodd" d="M21.3696 18.0938L21.4374 19.5113L20.1556 18.7287L21.3696 18.0938ZM20.2329 18.7312L21.396 19.4414L21.3344 18.1551L20.2329 18.7312Z" fill="#F6851B"/>
<path d="M12.5508 14.8874L10.0755 14.2743L9.87366 13.5469L12.5508 14.8874ZM13.3848 11.4448L12.5508 14.8874L9.87366 13.5469L13.3848 11.4448ZM13.3848 11.4448L16.8693 13.2766L14.1084 15.2492L13.3848 11.4448Z" fill="#763D16"/>
<path fill-rule="evenodd" clip-rule="evenodd" d="M13.3562 11.4851L9.91383 13.5461L12.5386 14.8603L13.3562 11.4851ZM12.3897 14.8284L9.90408 13.5838L10.0915 14.2591L12.3897 14.8284ZM9.85205 13.5387L9.83472 13.549L9.85819 13.5608L10.0607 14.2907L12.5448 14.906L12.5643 14.9158L13.3832 11.5356L14.0958 15.2826L16.9061 13.2747L13.4074 11.4355L13.4146 11.4058L13.3848 11.4236L13.3593 11.4102L13.3642 11.4359L9.87345 13.5259L9.84446 13.5113L9.85205 13.5387ZM13.4115 11.4807L14.1221 15.217L16.8337 13.2797L13.4115 11.4807Z" fill="#763D16"/>
<path d="M14.109 15.25L16.8699 13.2773L18.1 17.036L14.109 15.25ZM18.1 17.036L14.2842 16.9561L14.109 15.25L18.1 17.036Z" fill="#E4761B"/>
<path fill-rule="evenodd" clip-rule="evenodd" d="M16.88 13.2466L18.1315 17.0708L18.0957 17.0548L14.267 16.9745L14.0912 15.2627L14.0709 15.2536L14.0889 15.2407L14.0867 15.2189L14.1068 15.228L16.88 13.2466ZM14.1313 15.2806L18.0064 17.0148L14.3014 16.9372L14.1313 15.2806ZM18.0685 17.0009L14.1471 15.246L16.8599 13.3077L18.0685 17.0009Z" fill="#E4761B"/>
<path d="M10.6925 16.3467L14.1085 15.25L14.2836 16.9561L10.6925 16.3467ZM19.7636 16.9789L18.0994 17.036L16.8694 13.2773L19.7636 16.9789Z" fill="#F6851B"/>
<path fill-rule="evenodd" clip-rule="evenodd" d="M16.8528 13.2828L16.8859 13.2651L19.8032 16.9962L18.0873 17.0551L16.8528 13.2828ZM16.9228 13.3741L18.1146 17.016L19.7271 16.9607L16.9228 13.3741ZM14.1265 15.2242L14.3067 16.9785L10.6909 16.365L10.6882 16.3281L14.1265 15.2242ZM10.7742 16.3405L14.2637 16.9326L14.0935 15.2748L10.7742 16.3405Z" fill="#F6851B"/>
<path d="M20.3925 17.6411L20.1945 18.7303L19.7642 16.9785L20.3925 17.6411Z" fill="#CD6116"/>
<path fill-rule="evenodd" clip-rule="evenodd" d="M19.7283 16.9131L20.4127 17.6349L20.213 18.7335L20.1757 18.7346L19.7283 16.9131ZM19.7995 17.0436L20.1915 18.639L20.3718 17.6471L19.7995 17.0436Z" fill="#CD6116"/>
<path d="M11.2075 8.03662L16.8703 13.2767L13.3858 11.445L11.2075 8.03662Z" fill="#763D16"/>
<path fill-rule="evenodd" clip-rule="evenodd" d="M11.1919 8.04425L11.2209 8.02002L16.8837 13.2601L16.8619 13.2909L13.3729 11.4568L11.1919 8.04425ZM11.3038 8.14866L13.3996 11.4278L16.752 13.1901L11.3038 8.14866Z" fill="#763D16"/>
<path d="M9.06995 20.2273L13.8454 20.0293L14.9726 22.4551L9.06995 20.2273Z" fill="#E4761B"/>
<path fill-rule="evenodd" clip-rule="evenodd" d="M13.8593 20.0088L15.0115 22.4884L9.06519 20.2442L9.07112 20.2073L13.8593 20.0088ZM9.16599 20.2415L14.9377 22.4199L13.8355 20.0479L9.16599 20.2415Z" fill="#E4761B"/>
<path d="M14.9734 22.4546L13.8462 20.0288L16.192 19.9146L14.9734 22.4546Z" fill="#CD6116"/>
<path fill-rule="evenodd" clip-rule="evenodd" d="M16.2224 19.8945L14.9725 22.4998L13.8164 20.0117L16.2224 19.8945ZM13.8748 20.047L14.9731 22.4106L16.1605 19.9357L13.8748 20.047Z" fill="#CD6116"/>
<path d="M20.1937 18.7306L21.4161 19.477L22.0901 21.065L20.1937 18.7306ZM14.2834 16.956L9.06995 20.2272L10.6922 16.3467L14.2834 16.956ZM13.8454 20.0292L9.06995 20.2272L14.2834 16.956L13.8454 20.0292ZM19.7633 16.9788L20.0756 18.1137L18.5676 18.2013L19.7633 16.9788ZM18.5676 18.2013L18.0992 17.036L19.7633 16.9788L18.5676 18.2013Z" fill="#F6851B"/>
<path fill-rule="evenodd" clip-rule="evenodd" d="M10.6814 16.3252L14.2803 16.9358L14.3089 16.9179L14.3058 16.9401L14.3367 16.9454L14.3019 16.9672L13.863 20.0474L9.07672 20.2459L9.03017 20.2751L9.04177 20.2473L9 20.249L9.05564 20.2141L10.6814 16.3252ZM10.7049 16.3678L9.1116 20.179L14.2319 16.9662L10.7049 16.3678ZM14.2597 16.9937L9.14176 20.205L13.8297 20.0106L14.2597 16.9937ZM19.7855 16.9842L19.8111 16.958L19.7787 16.9591L19.7738 16.9417L19.756 16.9599L18.0723 17.0177L18.5462 18.1967L18.5205 18.2229L18.5559 18.2209L18.5617 18.2353L18.577 18.2197L20.1012 18.1311L19.7855 16.9842ZM18.1279 17.0539L18.5753 18.1669L19.7174 16.9993L18.1279 17.0539ZM19.7547 17.0157L18.6165 18.1792L20.0519 18.0959L19.7547 17.0157ZM20.1798 18.7424L20.2045 18.7142L21.4322 19.4638L22.1086 21.0574L22.0763 21.0769L20.1798 18.7424ZM20.2792 18.8044L22.0209 20.9483L21.4019 19.4899L20.2792 18.8044Z" fill="#F6851B"/>
<path d="M16.2566 22.9578L14.9733 22.4551L19.4365 23.2053L16.2566 22.9578Z" fill="#C0AD9E"/>
<path fill-rule="evenodd" clip-rule="evenodd" d="M14.9661 22.4721L14.9762 22.4355L19.4394 23.1858L19.4347 23.2235L16.2521 22.9758L14.9661 22.4721ZM15.1508 22.5035L16.2607 22.9382L19.0106 23.1523L15.1508 22.5035Z" fill="#C0AD9E"/>
<path d="M10.6931 16.3468L9.96191 15.41L10.2399 15.1396L10.6931 16.3468Z" fill="#763D16"/>
<path fill-rule="evenodd" clip-rule="evenodd" d="M10.2481 15.105L10.7115 16.3394L10.6787 16.3578L9.93701 15.4076L10.2481 15.105ZM9.98804 15.4111L10.6321 16.2363L10.2329 15.1729L9.98804 15.4111Z" fill="#763D16"/>
<path d="M19.943 22.6493L19.4365 23.2053L14.9733 22.4551L19.943 22.6493Z" fill="#D7C1B3"/>
<path fill-rule="evenodd" clip-rule="evenodd" d="M14.9709 22.4729L14.9748 22.4351L19.9854 22.6309L19.4444 23.2248L14.9709 22.4729ZM15.2715 22.4848L19.4302 23.1838L19.9022 22.6657L15.2715 22.4848Z" fill="#D7C1B3"/>
<path d="M20.1829 21.2855L14.9733 22.4546L16.1919 19.9146L20.1829 21.2855Z" fill="#E4761B"/>
<path fill-rule="evenodd" clip-rule="evenodd" d="M16.1829 19.8906L20.2535 21.2889L14.9399 22.4814L16.1829 19.8906ZM16.2026 19.9377L15.0083 22.427L20.1139 21.2812L16.2026 19.9377Z" fill="#E4761B"/>
<path d="M14.9733 22.4543L20.1829 21.2852L19.943 22.6485L14.9733 22.4543Z" fill="#D7C1B3"/>
<path fill-rule="evenodd" clip-rule="evenodd" d="M20.2074 21.2612L19.9597 22.6691L14.9734 22.4742L14.97 22.4366L20.2074 21.2612ZM15.1205 22.4418L19.928 22.6297L20.16 21.3109L15.1205 22.4418Z" fill="#D7C1B3"/>
<path d="M9.8751 13.5472L9.70374 10.6187L13.3863 11.445L9.8751 13.5472ZM10.2407 15.139L9.7342 14.6249L10.0769 14.2745L10.2407 15.139Z" fill="#763D16"/>
<path fill-rule="evenodd" clip-rule="evenodd" d="M9.68262 10.5947L13.4363 11.4371L9.8573 13.5798L9.68262 10.5947ZM9.72359 10.6429L9.89164 13.5149L13.335 11.4534L9.72359 10.6429ZM10.0882 14.2353L10.2704 15.1971L9.70688 14.6251L10.0882 14.2353ZM9.76025 14.625L10.2097 15.0812L10.0644 14.3141L9.76025 14.625Z" fill="#763D16"/>
<path d="M17.2472 17.7897L18.1002 17.0356L17.9784 18.8788L17.2472 17.7897Z" fill="#CD6116"/>
<path fill-rule="evenodd" clip-rule="evenodd" d="M18.1233 16.9907L17.9947 18.9358L17.2231 17.7864L18.1233 16.9907ZM17.2733 17.7929L17.9641 18.8218L18.0792 17.0805L17.2733 17.7929Z" fill="#CD6116"/>
<path d="M18.101 17.0356L17.2479 17.7897L16.0065 18.4332L18.101 17.0356Z" fill="#CD6116"/>
<path fill-rule="evenodd" clip-rule="evenodd" d="M16.3029 18.2571L17.2357 17.7736L17.8766 17.207L16.3029 18.2571ZM15.9945 18.4171L18.089 17.0195L18.1122 17.0496L17.2574 17.8052L16.0138 18.4499L15.9945 18.4171Z" fill="#CD6116"/>
<path d="M22.0906 21.0649L21.8583 20.8935L20.1941 18.7305L22.0906 21.0649Z" fill="#F6851B"/>
<path fill-rule="evenodd" clip-rule="evenodd" d="M20.179 18.7419L20.2088 18.7183L22.1053 21.0527L22.0792 21.08L21.8448 20.9071L20.179 18.7419ZM21.0862 19.8587L21.8717 20.8796L21.9813 20.9605L21.0862 19.8587Z" fill="#F6851B"/>
<path d="M16.0045 18.4331L14.2832 16.9556L18.099 17.0355L16.0045 18.4331Z" fill="#CD6116"/>
<path fill-rule="evenodd" clip-rule="evenodd" d="M14.2306 16.9351L18.16 17.0174L16.0032 18.4566L14.2306 16.9351ZM14.336 16.9754L16.006 18.4089L18.0382 17.0529L14.336 16.9754Z" fill="#CD6116"/>
<path d="M17.9778 18.8788L18.0996 17.0356L18.5681 18.201L17.9778 18.8788Z" fill="#E4751F"/>
<path fill-rule="evenodd" clip-rule="evenodd" d="M18.0808 17.0347L18.1175 17.0288L18.5902 18.2049L17.9552 18.9342L18.0808 17.0347ZM18.1133 17.1205L18.0007 18.824L18.5462 18.1975L18.1133 17.1205Z" fill="#E4751F"/>
<path d="M9.56531 13.8373L9.87377 13.5479L10.0756 14.2752L9.56531 13.8373Z" fill="#763D16"/>
<path fill-rule="evenodd" clip-rule="evenodd" d="M9.88547 13.5112L10.1124 14.3292L9.53857 13.8367L9.88547 13.5112ZM9.59558 13.8354L10.0423 14.2188L9.86561 13.5821L9.59558 13.8354Z" fill="#763D16"/>
<path d="M17.9791 18.8787L16.0065 18.4331L17.2479 17.7896L17.9791 18.8787Z" fill="#233447"/>
<path fill-rule="evenodd" clip-rule="evenodd" d="M17.2527 17.7646L18.02 18.9076L15.9498 18.4401L17.2527 17.7646ZM16.0599 18.4259L17.935 18.8494L17.24 17.8141L16.0599 18.4259Z" fill="#233447"/>
<path d="M13.3863 11.445L9.70374 10.6186L11.208 8.03662L13.3863 11.445Z" fill="#763D16"/>
<path fill-rule="evenodd" clip-rule="evenodd" d="M11.2072 8L13.4272 11.4736L9.67419 10.6314L11.2072 8ZM11.2087 8.07307L9.73328 10.6056L13.3453 11.4162L11.2087 8.07307Z" fill="#763D16"/>
<path d="M19.4367 23.2051L19.6461 23.7763L16.2568 22.9575L19.4367 23.2051Z" fill="#C0AD9E"/>
<path fill-rule="evenodd" clip-rule="evenodd" d="M16.2512 22.9755L16.2572 22.938L19.4492 23.1865L19.6751 23.8026L16.2512 22.9755ZM16.492 22.9945L19.6148 23.7489L19.4219 23.2225L16.492 22.9945Z" fill="#C0AD9E"/>
<path d="M16.1931 19.915L16.0065 18.4336L17.9791 18.8792L16.1931 19.915Z" fill="#F6851B"/>
<path fill-rule="evenodd" clip-rule="evenodd" d="M15.9841 18.4087L18.0306 18.8709L16.1777 19.9455L15.9841 18.4087ZM16.0287 18.4578L16.2083 19.8837L17.9275 18.8867L16.0287 18.4578Z" fill="#F6851B"/>
<path d="M14.2832 16.9556L16.0045 18.4331L16.1911 19.9145L14.2832 16.9556Z" fill="#E4751F"/>
<path fill-rule="evenodd" clip-rule="evenodd" d="M14.2677 16.9657L14.2961 16.9409L16.023 18.4233L16.2105 19.9119L16.1756 19.9246L14.2677 16.9657ZM14.3707 17.0551L16.1623 19.8337L15.987 18.4426L14.3707 17.0551Z" fill="#E4751F"/>
<path d="M18.5683 18.2008L20.0764 18.1133L21.8586 20.8932L18.5683 18.2008ZM14.2841 16.9556L16.192 19.9145L13.8462 20.0288L14.2841 16.9556Z" fill="#F6851B"/>
<path fill-rule="evenodd" clip-rule="evenodd" d="M14.2722 16.9028L16.2257 19.9324L13.8239 20.0494L14.2722 16.9028ZM14.2955 17.0092L13.8681 20.0091L16.1579 19.8976L14.2955 17.0092ZM20.0862 18.0941L21.8744 20.8834L21.8463 20.9084L18.5183 18.1851L20.0862 18.0941ZM18.6179 18.2175L21.7776 20.803L20.0661 18.1334L18.6179 18.2175Z" fill="#F6851B"/>
<path d="M18.5681 18.2007L20.4417 21.053L17.9778 18.8785L18.5681 18.2007Z" fill="#E4751F"/>
<path fill-rule="evenodd" clip-rule="evenodd" d="M18.5715 18.1689L20.4589 21.0423L20.4304 21.067L17.9523 18.88L18.5715 18.1689ZM18.0058 18.8765L20.3491 20.9445L18.5672 18.2318L18.0058 18.8765Z" fill="#E4751F"/>
<path d="M17.9778 18.8784L20.4417 21.0529L20.1827 21.2852L17.9778 18.8784Z" fill="#F6851B"/>
<path fill-rule="evenodd" clip-rule="evenodd" d="M17.9636 18.8919L17.9903 18.8647L20.4702 21.0534L20.1813 21.3126L17.9636 18.8919ZM18.234 19.1307L20.1839 21.259L20.4129 21.0536L18.234 19.1307Z" fill="#F6851B"/>
<path d="M20.1821 21.2853L16.1912 19.9144L17.9772 18.8785L20.1821 21.2853ZM21.8577 20.8931L20.4411 21.053L18.5675 18.2007L21.8577 20.8931Z" fill="#F6851B"/>
<path fill-rule="evenodd" clip-rule="evenodd" d="M18.5517 18.2112L18.5796 18.186L21.9049 20.907L20.4317 21.0733L18.5517 18.2112ZM18.6518 18.2943L20.4507 21.0329L21.8109 20.8793L18.6518 18.2943ZM17.981 18.8545L20.1963 21.2725L20.1761 21.3034L16.1456 19.9189L17.981 18.8545ZM16.2369 19.91L20.1177 21.2431L17.9736 18.9028L16.2369 19.91Z" fill="#F6851B"/>
<path d="M22.2311 22.2339L21.6218 23.4563L19.6454 23.7762L22.2311 22.2339ZM19.6454 23.7762L19.4359 23.205L19.9424 22.649L19.6454 23.7762Z" fill="#C0AD9E"/>
<path fill-rule="evenodd" clip-rule="evenodd" d="M22.2768 22.1846L21.6341 23.4738L19.6603 23.7933L19.648 23.8399L19.4137 23.201L19.928 22.6365L19.9604 22.6541L19.6753 23.7363L22.2768 22.1846ZM19.642 23.7131L19.9038 22.7195L19.4574 23.2096L19.642 23.7131ZM19.7404 23.7418L21.6088 23.4394L22.1848 22.2838L19.7404 23.7418Z" fill="#C0AD9E"/>
<path d="M19.9427 22.649L20.3159 22.5005L19.6456 23.7762L19.9427 22.649ZM19.6456 23.7762L20.3159 22.5005L22.2314 22.2339L19.6456 23.7762Z" fill="#C0AD9E"/>
<path fill-rule="evenodd" clip-rule="evenodd" d="M20.312 22.4822L20.3046 22.4833L20.3033 22.4857L19.9278 22.6351L19.6288 23.7696L19.5984 23.8275L22.2422 22.2505L22.2298 22.2153L20.351 22.4768L20.3577 22.464L20.312 22.4822ZM20.2761 22.5375L19.7078 23.6192L19.9597 22.6634L20.2761 22.5375ZM19.695 23.7255L20.3292 22.5183L22.1419 22.266L19.695 23.7255Z" fill="#C0AD9E"/>
<path d="M21.8598 20.8936L22.3282 21.1792L20.9039 21.3505L21.8598 20.8936Z" fill="#161616"/>
<path fill-rule="evenodd" clip-rule="evenodd" d="M21.8588 20.8716L22.383 21.1912L20.9042 21.3691L20.8937 21.333L21.8588 20.8716ZM21.0145 21.3175L22.2693 21.1665L21.8566 20.9148L21.0145 21.3175Z" fill="#161616"/>
<path d="M20.9024 21.3505L20.4417 21.0535L21.8583 20.8936L20.9024 21.3505ZM20.7387 21.5752L22.4714 21.3658L22.2315 22.234L20.7387 21.5752Z" fill="#161616"/>
<path fill-rule="evenodd" clip-rule="evenodd" d="M20.4976 21.0658L20.9046 21.3282L21.7488 20.9246L20.4976 21.0658ZM21.8569 20.874L21.8673 20.9101L20.9018 21.3717L20.3872 21.04L21.8569 20.874ZM22.4981 21.3428L22.2447 22.2597L20.6683 21.564L22.4981 21.3428ZM20.8106 21.5852L22.2198 22.2071L22.4463 21.3875L20.8106 21.5852Z" fill="#161616"/>
<path d="M22.2326 22.2333L20.3171 22.4998L20.7398 21.5745L22.2326 22.2333ZM20.3171 22.4998L19.9438 22.6484L20.1838 21.285L20.3171 22.4998ZM20.1838 21.285L20.4427 21.0527L20.9035 21.3498L20.1838 21.285ZM22.3278 21.1784L22.4725 21.365L20.7398 21.5745L22.3278 21.1784Z" fill="#161616"/>
<path fill-rule="evenodd" clip-rule="evenodd" d="M20.4413 21.0293L20.9143 21.3342L20.9023 21.3692L20.2057 21.3065L20.3289 22.4295L20.7307 21.5499L20.742 21.5548L22.3357 21.1574L22.5086 21.3803L20.8114 21.5855L22.302 22.2433L20.3225 22.5188L19.9197 22.6791L20.1619 21.3026L20.139 21.3005L20.4413 21.0293ZM20.1799 21.4202L19.969 22.6185L20.297 22.488L20.1799 21.4202ZM20.3493 22.4766L20.7498 21.5999L22.1641 22.2241L20.3493 22.4766ZM21.0422 21.5192L22.4374 21.3506L22.3208 21.2003L21.0422 21.5192ZM20.2295 21.2704L20.8287 21.3243L20.4451 21.0771L20.2295 21.2704Z" fill="#161616"/>
<path d="M20.7398 21.5753L20.9036 21.3506L22.3278 21.1792L20.7398 21.5753ZM20.1838 21.2858L20.7398 21.5753L20.3171 22.5006L20.1838 21.2858Z" fill="#161616"/>
<path fill-rule="evenodd" clip-rule="evenodd" d="M20.914 21.3683L20.786 21.5439L22.0271 21.2344L20.914 21.3683ZM20.734 21.5507L20.8929 21.3325L22.3254 21.1602L22.3323 21.1975L20.7532 21.5914L20.3056 22.5713L20.1609 21.2523L20.734 21.5507ZM20.7113 21.5818L20.2065 21.319L20.3284 22.4297L20.706 21.6032L20.6934 21.6063L20.7113 21.5818Z" fill="#161616"/>
<path d="M20.9036 21.3499L20.7398 21.5746L20.1838 21.2852L20.9036 21.3499Z" fill="#161616"/>
<path fill-rule="evenodd" clip-rule="evenodd" d="M20.1753 21.3025L20.1858 21.2666L20.939 21.3344L20.7458 21.5994L20.1753 21.3025ZM20.2783 21.3132L20.7343 21.5505L20.8686 21.3663L20.2783 21.3132Z" fill="#161616"/>
</svg>
