<svg width="534" height="140" viewBox="0 0 534 140" fill="none" xmlns="http://www.w3.org/2000/svg">
<path d="M82.3667 138.428H0L41.5984 64.875H0V39.7728H82.3667L40.7683 113.326H82.3667V138.428Z" fill="url(#paint0_linear_13_7253)"/>
<path d="M121.752 138.428H96.3866V0.273834H121.752V87.3932L159.292 39.7728H188.254L155.51 80.933L188.254 138.428H159.292L139.276 102.528L121.752 125.785V138.428Z" fill="url(#paint1_linear_13_7253)"/>
<path d="M307.923 98.4707C307.923 103.946 306.878 109.084 304.787 113.883C302.696 118.682 299.837 122.896 296.209 126.526C292.643 130.094 288.461 132.925 283.665 135.016C278.869 137.108 273.734 138.154 268.262 138.154H202.128V5.81411H268.262C273.734 5.81411 278.869 6.86003 283.665 8.95188C288.461 11.0437 292.643 13.9046 296.209 17.5346C299.837 21.1031 302.696 25.2868 304.787 30.0857C306.878 34.8846 307.923 40.022 307.923 45.4977C307.923 47.9587 307.585 50.4812 306.909 53.0653C306.232 55.6493 305.279 58.1411 304.049 60.5405C302.819 62.94 301.344 65.1241 299.622 67.0929C297.9 69.0617 295.994 70.6922 293.903 71.9842C296.055 73.1532 297.992 74.7528 299.714 76.7831C301.436 78.7519 302.912 80.9361 304.141 83.3355C305.371 85.735 306.294 88.2575 306.909 90.9031C307.585 93.4871 307.923 96.0097 307.923 98.4707ZM228.6 111.668H268.262C270.106 111.668 271.828 111.329 273.427 110.653C275.026 109.976 276.409 109.053 277.577 107.884C278.807 106.653 279.76 105.238 280.437 103.639C281.113 102.039 281.451 100.316 281.451 98.4707C281.451 96.6249 281.113 94.9022 280.437 93.3026C279.76 91.7029 278.807 90.3186 277.577 89.1496C276.409 87.9191 275.026 86.9655 273.427 86.2887C271.828 85.612 270.106 85.2736 268.262 85.2736H228.6V111.668ZM228.6 58.7871H268.262C270.106 58.7871 271.828 58.4487 273.427 57.7719C275.026 57.0951 276.409 56.1723 277.577 55.0033C278.807 53.7728 279.76 52.3577 280.437 50.7581C281.113 49.0969 281.451 47.3434 281.451 45.4977C281.451 43.6519 281.113 41.9292 280.437 40.3296C279.76 38.73 278.807 37.3456 277.577 36.1767C276.409 34.9462 275.026 33.9925 273.427 33.3158C271.828 32.639 270.106 32.3006 268.262 32.3006H228.6V58.7871Z" fill="white"/>
<path d="M420.728 87.8576C420.728 95.2406 419.406 102.131 416.762 108.53C414.117 114.867 410.52 120.374 405.97 125.049C401.42 129.664 396.07 133.325 389.921 136.032C383.833 138.677 377.285 140 370.275 140C363.326 140 356.777 138.677 350.628 136.032C344.541 133.325 339.191 129.664 334.579 125.049C330.029 120.374 326.432 114.867 323.788 108.53C321.144 102.131 319.822 95.2406 319.822 87.8576C319.822 80.3516 321.144 73.3993 323.788 67.0007C326.432 60.6021 330.029 55.0956 334.579 50.4812C339.191 45.8053 344.541 42.1446 350.628 39.499C356.777 36.8534 363.326 35.5307 370.275 35.5307C377.285 35.5307 383.833 36.7919 389.921 39.3144C396.07 41.7754 401.42 45.3131 405.97 49.9275C410.52 54.4803 414.117 59.9868 416.762 66.4469C419.406 72.8455 420.728 79.9824 420.728 87.8576ZM395.363 87.8576C395.363 83.797 394.686 80.1362 393.334 76.8754C392.042 73.5531 390.259 70.7229 387.984 68.385C385.709 65.9855 383.034 64.1705 379.959 62.94C376.946 61.648 373.718 61.002 370.275 61.002C366.831 61.002 363.572 61.648 360.498 62.94C357.485 64.1705 354.84 65.9855 352.565 68.385C350.352 70.7229 348.599 73.5531 347.308 76.8754C346.017 80.1362 345.371 83.797 345.371 87.8576C345.371 91.6722 346.017 95.2098 347.308 98.4707C348.599 101.731 350.352 104.562 352.565 106.961C354.84 109.361 357.485 111.268 360.498 112.683C363.572 114.036 366.831 114.713 370.275 114.713C373.718 114.713 376.946 114.067 379.959 112.775C383.034 111.483 385.709 109.668 387.984 107.33C390.259 104.992 392.042 102.162 393.334 98.8398C394.686 95.5175 395.363 91.8567 395.363 87.8576Z" fill="white"/>
<path d="M533.532 87.8576C533.532 95.6098 532.21 102.685 529.566 109.084C526.922 115.482 523.325 120.989 518.775 125.603C514.224 130.156 508.875 133.694 502.726 136.216C496.638 138.739 490.089 140 483.079 140C476.131 140 469.582 138.708 463.433 136.124C457.345 133.54 451.996 129.941 447.384 125.326C442.834 120.712 439.236 115.236 436.592 108.899C433.948 102.501 432.626 95.4867 432.626 87.8576V0H457.899V46.1437C459.252 44.421 460.881 42.8829 462.787 41.5293C464.755 40.1758 466.846 39.0683 469.059 38.207C471.335 37.3456 473.671 36.6996 476.069 36.269C478.467 35.7768 480.804 35.5307 483.079 35.5307C490.089 35.5307 496.638 36.8534 502.726 39.499C508.875 42.0831 514.224 45.713 518.775 50.3889C523.325 55.0648 526.922 60.6021 529.566 67.0007C532.21 73.3377 533.532 80.29 533.532 87.8576ZM508.167 87.8576C508.167 84.0431 507.491 80.5054 506.138 77.2446C504.847 73.9222 503.064 71.0613 500.789 68.6618C498.513 66.2624 495.839 64.3859 492.764 63.0323C489.751 61.6788 486.523 61.002 483.079 61.002C479.636 61.002 476.377 61.771 473.302 63.3092C470.289 64.7858 467.645 66.7853 465.37 69.3078C463.095 71.7688 461.312 74.6298 460.02 77.8906C458.729 81.0899 458.083 84.4122 458.083 87.8576C458.083 91.6722 458.729 95.2098 460.02 98.4707C461.312 101.731 463.095 104.562 465.37 106.961C467.645 109.361 470.289 111.268 473.302 112.683C476.377 114.036 479.636 114.713 483.079 114.713C486.523 114.713 489.751 114.036 492.764 112.683C495.839 111.268 498.513 109.361 500.789 106.961C503.064 104.562 504.847 101.731 506.138 98.4707C507.491 95.2098 508.167 91.6722 508.167 87.8576Z" fill="white"/>
<defs>
<linearGradient id="paint0_linear_13_7253" x1="0.309972" y1="16.0399" x2="198.566" y2="146.847" gradientUnits="userSpaceOnUse">
<stop offset="0.053951" stop-color="#6D5CFF"/>
<stop offset="0.559189" stop-color="#E86EFF"/>
<stop offset="0.923794" stop-color="#FFD66E"/>
</linearGradient>
<linearGradient id="paint1_linear_13_7253" x1="0.309972" y1="16.0399" x2="198.566" y2="146.847" gradientUnits="userSpaceOnUse">
<stop offset="0.053951" stop-color="#6D5CFF"/>
<stop offset="0.559189" stop-color="#E86EFF"/>
<stop offset="0.923794" stop-color="#FFD66E"/>
</linearGradient>
</defs>
</svg>
