<?xml version="1.0" encoding="UTF-8"?>
<svg xmlns="http://www.w3.org/2000/svg" xmlns:xlink="http://www.w3.org/1999/xlink" width="64px" height="64px" viewBox="0 0 64 64" version="1.1">
<g id="surface1">
<path style=" stroke:none;fill-rule:nonzero;fill:rgb(0%,0%,0%);fill-opacity:1;" d="M 32.425781 7.988281 C 34.609375 8.109375 36.425781 9.152344 37.523438 11.269531 L 55.460938 47.476562 C 57.199219 51.136719 54.503906 56.0625 50.085938 56.132812 L 13.96875 56.132812 C 9.945312 56.066406 6.644531 51.5 8.613281 47.4375 L 26.886719 11.230469 C 27.226562 10.578125 27.382812 10.390625 27.679688 10.050781 C 28.863281 8.675781 30.160156 7.9375 32.425781 7.988281 Z M 32.132812 11.984375 C 31.445312 12.019531 30.816406 12.402344 30.472656 13 C 24.160156 24.980469 18.074219 37.082031 12.171875 49.269531 C 11.625 50.492188 12.5625 52.066406 13.933594 52.132812 C 25.992188 52.324219 38.058594 52.324219 50.117188 52.132812 C 51.445312 52.066406 52.441406 50.546875 51.886719 49.28125 C 46.09375 37.097656 40.121094 24.996094 33.921875 13.015625 C 33.554688 12.363281 33.019531 11.972656 32.132812 11.984375 Z M 32.132812 11.984375 "/>
<path style=" stroke:none;fill-rule:nonzero;fill:rgb(0%,0%,0%);fill-opacity:1;" d="M 33.632812 40.582031 L 30.28125 40.582031 L 29.914062 24.132812 L 34.015625 24.132812 Z M 29.804688 45.609375 C 29.804688 45.003906 30 44.496094 30.394531 44.097656 C 30.789062 43.695312 31.328125 43.496094 32.011719 43.496094 C 32.695312 43.496094 33.234375 43.695312 33.632812 44.097656 C 34.027344 44.496094 34.222656 45.003906 34.222656 45.609375 C 34.222656 46.199219 34.03125 46.6875 33.648438 47.085938 C 33.261719 47.480469 32.71875 47.675781 32.011719 47.675781 C 31.308594 47.675781 30.765625 47.480469 30.378906 47.085938 C 29.996094 46.6875 29.804688 46.199219 29.804688 45.609375 Z M 29.804688 45.609375 "/>
</g>
</svg>
