<svg width="41" height="27" viewBox="0 0 41 27" fill="none" xmlns="http://www.w3.org/2000/svg">
<path fill-rule="evenodd" clip-rule="evenodd" d="M26.028 0.798008C25.7743 0.544217 25.4729 0.343069 25.1412 0.206122C24.8094 0.0691751 24.4539 -0.000871127 24.095 8.17688e-06H24.088C23.7284 -7.167e-05 23.3724 0.0714179 23.0407 0.210311C22.709 0.349204 22.4083 0.552723 22.156 0.809008L0.798025 22.269C0.543652 22.5229 0.342151 22.8248 0.205177 23.1571C0.068203 23.4894 -0.00152524 23.8456 2.5302e-05 24.205C0.0020253 24.936 0.289025 25.623 0.807025 26.139C1.06019 26.3928 1.36105 26.5939 1.69229 26.7309C2.02353 26.8678 2.37859 26.9379 2.73703 26.937C3.47003 26.937 4.16103 26.65 4.67903 26.131L26.036 4.67001C26.5472 4.15483 26.8333 3.45809 26.8318 2.73236C26.8303 2.00663 26.5413 1.31107 26.028 0.798008Z" fill="#2DB8E3"/>
<path fill-rule="evenodd" clip-rule="evenodd" d="M38.4279 0.261019C37.9274 0.0519247 37.3757 -0.00276724 36.8438 0.103967C36.3119 0.210701 35.8241 0.473988 35.4429 0.860019L14.0829 22.322C13.5713 22.8371 13.285 23.5341 13.2869 24.2601C13.2887 24.9861 13.5787 25.6816 14.0929 26.194C14.6083 26.7056 15.3056 26.9917 16.0317 26.9897C16.7578 26.9876 17.4535 26.6975 17.9659 26.183L34.6439 9.42502V24.252C34.6445 24.978 34.9331 25.6741 35.4465 26.1875C35.9598 26.7009 36.6559 26.9895 37.3819 26.99C38.1079 26.9895 38.804 26.7009 39.3174 26.1875C39.8308 25.6741 40.1194 24.978 40.1199 24.252V2.79202C40.1215 2.24972 39.9614 1.71926 39.66 1.26842C39.3586 0.817581 38.9297 0.466841 38.4279 0.261019Z" fill="#3840C7"/>
</svg>
