<svg width="48" height="48" viewBox="0 0 48 48" fill="none" xmlns="http://www.w3.org/2000/svg">
<g opacity="0.3">
<path d="M30.3018 19.2855L30.4786 19.1088L30.3018 18.932L29.068 17.6982L28.8913 17.5214L28.7145 17.6982L24 22.4127L19.2855 17.6982L19.1088 17.5214L18.932 17.6982L17.6982 18.932L17.5214 19.1088L17.6982 19.2855L22.4127 24L17.6982 28.7145L17.5214 28.8913L17.6982 29.068L18.932 30.3018L19.1088 30.4786L19.2855 30.3018L24 25.5873L28.7145 30.3018L28.8913 30.4786L29.068 30.3018L30.3018 29.068L30.4786 28.8913L30.3018 28.7145L25.5873 24L30.3018 19.2855Z" fill="black" stroke="black" stroke-width="0.5"/>
</g>
<circle opacity="0.1" cx="24" cy="24" r="23" stroke="black" stroke-width="2"/>
</svg>
