<?xml version="1.0" encoding="UTF-8"?>
<svg xmlns="http://www.w3.org/2000/svg" xmlns:xlink="http://www.w3.org/1999/xlink" width="30px" height="25px" viewBox="0 0 29 25" version="1.1">
<g id="surface1">
<path style=" stroke:none;fill-rule:nonzero;fill:rgb(21.960784%,25.098039%,78.039216%);fill-opacity:1;" d="M 16.484375 0.78125 C 10.226562 0.78125 5.035156 6.09375 5.035156 12.5 L 1.222656 12.5 L 6.105469 17.5 L 6.257812 17.65625 L 11.449219 12.5 L 7.632812 12.5 C 7.632812 7.5 11.601562 3.4375 16.484375 3.4375 C 21.367188 3.4375 25.335938 7.5 25.335938 12.5 C 25.335938 17.5 21.367188 21.5625 16.484375 21.5625 C 14.042969 21.5625 11.753906 20.46875 10.226562 18.90625 L 8.394531 20.78125 C 10.53125 22.96875 13.277344 24.21875 16.484375 24.21875 C 22.742188 24.21875 27.929688 18.90625 27.929688 12.5 C 27.929688 6.09375 22.894531 0.78125 16.484375 0.78125 Z M 15.261719 7.34375 L 15.261719 13.90625 L 20.605469 17.1875 L 21.519531 15.46875 L 17.09375 12.8125 L 17.09375 7.34375 Z M 15.261719 7.34375 "/>
</g>
</svg>
