<svg width="140" height="27" viewBox="0 0 140 27" fill="none" xmlns="http://www.w3.org/2000/svg">
<g clip-path="url(#clip0)">
<path fill-rule="evenodd" clip-rule="evenodd" d="M26.028 0.798008C25.7743 0.544217 25.4729 0.343069 25.1412 0.206122C24.8094 0.0691751 24.4539 -0.000871127 24.095 8.17688e-06H24.088C23.7284 -7.167e-05 23.3724 0.0714179 23.0407 0.210311C22.709 0.349204 22.4083 0.552723 22.156 0.809008L0.798025 22.269C0.543652 22.5229 0.342151 22.8248 0.205177 23.1571C0.068203 23.4894 -0.00152524 23.8456 2.5302e-05 24.205C0.0020253 24.936 0.289025 25.623 0.807025 26.139C1.06018 26.3928 1.36105 26.5939 1.69229 26.7309C2.02353 26.8678 2.37859 26.9379 2.73703 26.937C3.47003 26.937 4.16103 26.65 4.67903 26.131L26.036 4.67001C26.5472 4.15483 26.8333 3.45809 26.8318 2.73236C26.8303 2.00663 26.5413 1.31107 26.028 0.798008Z" fill="#2DB8E3"/>
<path fill-rule="evenodd" clip-rule="evenodd" d="M38.4279 0.261019C37.9274 0.0519247 37.3757 -0.00276724 36.8438 0.103967C36.3119 0.210701 35.8241 0.473988 35.4429 0.860019L14.0829 22.322C13.5713 22.8371 13.285 23.5341 13.2869 24.2601C13.2887 24.9861 13.5787 25.6816 14.0929 26.194C14.6083 26.7056 15.3056 26.9917 16.0317 26.9897C16.7578 26.9876 17.4535 26.6975 17.9659 26.183L34.6439 9.42502V24.252C34.6445 24.978 34.9331 25.6741 35.4465 26.1875C35.9598 26.7009 36.6559 26.9895 37.3819 26.99C38.1079 26.9895 38.804 26.7009 39.3174 26.1875C39.8308 25.6741 40.1194 24.978 40.1199 24.252V2.79202C40.1215 2.24972 39.9614 1.71926 39.66 1.26842C39.3586 0.817581 38.9297 0.466841 38.4279 0.261019Z" fill="#3840C7"/>
<path fill-rule="evenodd" clip-rule="evenodd" d="M78.2071 23.248H72.3231V20.81H73.0651V15.578C73.0651 14.311 72.8431 13.415 72.3971 12.89C71.9521 12.365 71.3231 12.102 70.5111 12.102C69.4591 12.102 68.6931 12.458 68.2071 13.172C67.7201 13.887 67.4671 14.697 67.4491 15.609V20.809H69.4391V23.248H63.5561V20.81H64.2681V15.578C64.2681 14.311 64.0461 13.415 63.6001 12.89C63.1541 12.365 62.5341 12.102 61.7421 12.102C60.7111 12.102 59.9481 12.454 59.4531 13.155C58.9561 13.86 58.7011 14.669 58.6801 15.578V20.81H61.1781V23.248H53.5081V20.81H55.5001V12.37H53.5381V9.90397H58.6801V12.102C59.0836 11.3822 59.6548 10.7702 60.3451 10.318C61.0391 9.86297 61.8791 9.63397 62.8711 9.63397C63.8611 9.63397 64.7541 9.87697 65.5471 10.364C66.3391 10.85 66.8921 11.607 67.2111 12.638C67.6061 11.725 68.1811 10.998 68.9341 10.451C69.6881 9.90697 70.6091 9.63397 71.7001 9.63397C72.9061 9.63397 73.9671 10.022 74.8781 10.795C75.7901 11.567 76.2461 12.777 76.2461 14.42V20.81H78.2071V23.248ZM87.9571 17.958V17.48L86.9161 17.362C86.5507 17.3227 86.1835 17.3034 85.8161 17.304C85.0241 17.304 84.3161 17.442 83.6921 17.718C83.0681 17.997 82.7551 18.552 82.7551 19.385C82.7551 20.593 83.4001 21.197 84.6871 21.197C85.4391 21.197 86.1551 20.927 86.8261 20.38C87.5011 19.834 87.8781 19.027 87.9561 17.958H87.9571ZM80.7051 10.883C81.6951 10.407 82.5781 10.08 83.3511 9.90297C84.1231 9.72297 85.0141 9.63397 86.0251 9.63397C87.5121 9.63397 88.7351 10.011 89.6961 10.765C90.6561 11.517 91.1391 12.646 91.1391 14.153V20.156C91.1391 20.949 91.4651 21.346 92.1191 21.346C92.2971 21.346 92.5261 21.305 92.8021 21.226L92.8321 22.982C92.1811 23.3557 91.4426 23.5499 90.6921 23.545C89.0081 23.545 88.0951 22.663 87.9581 20.899V20.841C87.5601 21.534 87.0011 22.159 86.2791 22.712C85.5551 23.267 84.6591 23.545 83.5891 23.545C82.6571 23.545 81.7411 23.264 80.8391 22.696C79.9371 22.133 79.4861 21.148 79.4861 19.74C79.4861 18.095 80.1421 17.012 81.4491 16.485C82.7561 15.96 84.1741 15.699 85.6991 15.699C86.0751 15.699 86.4601 15.709 86.8591 15.727C87.2551 15.747 87.6211 15.778 87.9581 15.817V15.074C87.9581 14.281 87.8181 13.569 87.5421 12.934C87.2641 12.299 86.5721 11.982 85.4621 11.982C85.0461 11.982 84.6531 12.012 84.2871 12.072C83.9179 12.1317 83.5611 12.252 83.2311 12.428L82.6981 14.478L80.1421 14.213L80.7051 10.883ZM102.312 9.69397C103.203 9.69397 104.036 9.94297 104.808 10.436L105.373 14.596L102.907 14.895L102.402 12.606C102.004 12.409 101.669 12.309 101.391 12.309C100.836 12.309 100.355 12.538 99.9481 12.992C99.5431 13.448 99.3401 14.082 99.3401 14.894V20.81H101.984V23.246H94.1681V20.81H96.1601V12.37H94.0781V9.90197H99.1021V12.398C99.3217 11.6753 99.714 11.017 100.245 10.48C100.77 9.95497 101.461 9.69397 102.312 9.69397ZM113.667 23.247H106.532V20.809H108.524V5.23397H106.414V2.79797H111.674V20.808H113.667V23.247ZM117.026 7.13797H120.266V3.62997H117.026V7.13797ZM122.346 23.245H115.212V20.807H117.204V12.367H115.094V9.90097H120.354V20.807H122.346V23.245ZM140.001 23.248H132.869V20.81H134.829V15.578C134.829 14.311 134.604 13.415 134.147 12.89C133.691 12.365 133.057 12.102 132.245 12.102C131.234 12.102 130.436 12.428 129.851 13.082C129.266 13.737 128.965 14.54 128.945 15.492V20.81H130.936V23.248H123.773V20.81H125.766V12.37H123.684V9.90397H128.945V12.072C129.877 10.446 131.354 9.63397 133.374 9.63397C134.642 9.63397 135.731 10.022 136.644 10.795C137.554 11.567 138.011 12.777 138.011 14.42V20.81H140.001V23.248Z" fill="#0B0D32"/>
</g>
<defs>
<clipPath id="clip0">
<rect width="140" height="27" fill="white"/>
</clipPath>
</defs>
</svg>
