<svg width="12" height="13" viewBox="0 0 12 13" fill="none" xmlns="http://www.w3.org/2000/svg">
<path d="M7.75 0.583008H4.25V1.74967H7.75V0.583008ZM5.41667 8.16634H6.58333V4.66634H5.41667V8.16634ZM10.1008 4.31051L10.9292 3.48217C10.6783 3.18467 10.4042 2.90467 10.1067 2.65967L9.27833 3.48801C8.37417 2.76467 7.23667 2.33301 6 2.33301C3.10083 2.33301 0.75 4.68384 0.75 7.58301C0.75 10.4822 3.095 12.833 6 12.833C8.905 12.833 11.25 10.4822 11.25 7.58301C11.25 6.34634 10.8183 5.20884 10.1008 4.31051ZM6 11.6663C3.7425 11.6663 1.91667 9.84051 1.91667 7.58301C1.91667 5.32551 3.7425 3.49967 6 3.49967C8.2575 3.49967 10.0833 5.32551 10.0833 7.58301C10.0833 9.84051 8.2575 11.6663 6 11.6663Z" fill="#474A64"/>
</svg>
